<svg width="375" height="184" viewBox="0 0 375 184" fill="none" xmlns="http://www.w3.org/2000/svg">
<path d="M242.478 25.1022C240.83 26.0267 238.172 22.37 237.569 24.1587C236.967 25.9473 238.426 33.1643 239.179 34.8952C239.553 35.7555 240.082 36.5424 240.449 37.4058C240.816 38.2691 241.013 39.2618 240.689 40.142C240.124 41.6739 238.26 42.297 237.336 43.6434C236.259 45.2115 236.694 47.3235 237.197 49.1571C237.631 50.7376 238.093 52.3323 238.928 53.7431C239.763 55.1538 241.022 56.3821 242.595 56.8489C244.597 57.4432 246.738 56.7369 248.668 55.9396C250.525 55.173 252.361 54.304 253.94 53.0638C255.518 51.8235 256.836 50.1774 257.388 48.2486C258.08 45.8292 257.501 43.1815 256.303 40.9682C255.104 38.7549 253.331 36.911 251.512 35.1702C248.448 32.2383 245.187 29.5114 241.759 27.0138L242.478 25.1022Z" fill="#2F2E41"/>
<path d="M266.977 149.244L265.421 163.74L265.351 164.403L247.755 164.334L247.663 163.669L245.8 150.386L266.977 149.244Z" fill="#FFB6B6"/>
<path d="M240.074 163.64C240.074 163.859 240.072 164.08 240.069 164.303L221.804 164.233L221.744 163.568L220.618 150.958L239.505 148.671C239.505 148.671 240.114 155.359 240.074 163.64Z" fill="#FFB6B6"/>
<path d="M238.041 50.7814C240.942 54.4314 246.057 55.4891 250.186 53.3165C256.079 50.2153 264.124 46.661 265.546 49.5011C267.836 54.0738 267.836 58.5115 267.836 58.5115L270.125 111.804C270.125 111.804 271.27 133.322 256.961 131.423C242.652 129.524 220.33 137.526 220.33 137.526L222.611 113.917L228.699 105.015L231.165 79.4774L226.912 58.9323L232.064 56.6459C232.064 56.6459 232.636 52.6448 234.353 52.6448C236.07 52.6448 236.485 48.8012 237.994 50.723C238.01 50.7422 238.025 50.7617 238.041 50.7814Z" fill="#D9FE51"/>
<path d="M269.083 164.418L265.351 164.403L247.755 164.334L245.465 164.326L245.333 163.66L241.793 145.815L241.24 163.645L241.22 164.308L240.069 164.303L221.804 164.233L220.494 164.226L220.49 163.563L220.412 150.961L220.342 139.29L220.33 137.525L220.333 137.523L225.802 126.451L227.397 123.221L227.724 122.558L230.919 116.091L259.826 112.094L260.269 112.032L268.123 110.947L268.18 114.162L268.213 115.987L268.331 122.558L268.344 123.221L268.357 123.979L269.07 163.753L269.083 164.418Z" fill="#2F2E41"/>
<path d="M246.593 49.0862C253.194 49.0862 258.546 43.7418 258.546 37.1491C258.546 30.5564 253.194 25.2119 246.593 25.2119C239.991 25.2119 234.64 30.5564 234.64 37.1491C234.64 43.7418 239.991 49.0862 246.593 49.0862Z" fill="#FFB6B6"/>
<path d="M260.067 55.8442C257.277 59.8186 255.851 64.7292 256.077 69.5777C252.914 68.0474 250.779 64.8143 250.052 61.3801C249.326 57.9458 249.88 54.3399 251.048 51.0292C251.059 50.9961 251.071 50.963 251.083 50.9299C252.856 45.9606 251.209 40.4066 246.927 37.3175C244.038 35.2338 241.533 32.6197 239.611 29.6232C238.525 27.9316 237.603 25.8095 238.414 23.9708C239.161 22.2765 241.091 21.4846 242.867 20.9547C246.923 19.7448 251.233 19.0564 255.396 19.822C259.559 20.5876 263.566 22.9784 265.534 26.7214C267.501 30.4645 266.986 35.5727 263.792 38.3476C264.8 38.6728 265.512 39.739 265.427 40.7927C265.341 41.8464 264.466 42.784 263.419 42.9429C264.102 42.9187 264.505 43.8168 264.262 44.4543C264.018 45.0918 263.39 45.4878 262.791 45.816C261.938 46.2834 260.992 46.7721 260.988 47.9962C260.987 48.4869 261.162 48.9633 261.449 49.3622C262.142 50.3288 263.263 50.7641 264.341 51.1728C262.06 51.8437 260.241 53.8796 259.833 56.2189L260.067 55.8442Z" fill="#2F2E41"/>
<path d="M209.097 51.2262C208.771 47.8085 210.272 44.8701 212.45 44.6631C214.628 44.4562 216.658 47.0588 216.983 50.4778C217.132 51.8417 216.952 53.2214 216.458 54.5015L217.657 68.9998L210.832 69.4167L210.375 55.0797C209.647 53.9155 209.209 52.5941 209.097 51.2262Z" fill="#FFB6B6"/>
<path d="M246.279 58.1039C246.279 58.1039 235.13 51.554 232.834 52.5365C230.538 53.519 219.389 70.2213 219.389 70.2213L218.364 67.1733L210.534 67.9289C210.534 67.9289 205.943 89.2162 216.109 87.2512C226.275 85.2862 243 66.9464 243 66.9464L246.279 58.1039Z" fill="#D9FE51"/>
<path d="M142.835 93.2973C142.835 93.2973 149.13 89.6114 150.826 93.0291C152.521 96.4468 168.184 137.219 168.184 137.219L158.091 139.182L142.835 93.2973Z" fill="#D9FE51"/>
<path d="M129.104 68.9409L129.401 69.3629C128.294 70.0007 128.131 71.6099 128.65 72.7776C129.169 73.9452 130.173 74.8107 131.042 75.7488C131.91 76.6868 132.702 77.8486 132.622 79.1242C132.531 80.5588 131.36 81.7402 131.197 83.1689C130.961 85.2491 132.901 87.0742 132.804 89.1662C132.732 90.7637 131.501 92.0472 130.281 93.0833C129.326 93.8958 128.287 94.7122 127.642 95.7602C127.465 96.0486 127.318 96.3567 127.21 96.6865C126.728 98.174 127.182 99.795 127.793 101.234C128.402 102.672 129.179 104.077 129.369 105.628C129.558 107.178 128.972 108.968 127.544 109.603C130.389 109.36 133.166 108.369 135.522 106.758C135.734 106.613 135.941 106.464 136.145 106.31C139.486 103.798 141.832 100.17 144.09 96.6335C144.276 96.343 144.461 96.0506 144.648 95.7602C145.149 94.9732 145.652 94.1882 146.155 93.4013C147.59 91.1523 149.042 88.8699 149.824 86.3226C150.543 83.9735 150.665 81.491 150.96 79.0516C151.103 77.8565 151.292 76.6652 151.327 75.4622C151.384 73.6116 151.068 71.7532 150.423 70.0164C149.792 68.309 148.845 66.7174 147.625 65.3633C146.375 63.9758 144.846 62.8474 143.164 62.035C141.535 61.248 139.763 60.7593 137.957 60.6239C137.352 60.5788 136.748 60.571 136.145 60.5984C133.765 60.6966 131.413 61.2971 129.126 62.035C127.443 62.8474 125.915 63.9759 124.665 65.3633C123.445 66.7175 122.497 68.309 121.867 70.0164C124.06 68.8467 126.665 68.4444 129.104 68.9409Z" fill="#2F2E41"/>
<path d="M146.159 90.4101L134.876 85.9912L134.59 90.4101L124.699 91.9567L120.053 112.947L124.256 125.982L155.672 126.866L154.566 122.447C154.566 122.447 159.655 116.703 156.557 107.423L156.213 105.061C155.314 98.8864 151.601 93.4759 146.159 90.4101Z" fill="#D9FE51"/>
<path d="M139.879 85.7927C145.414 85.7927 149.901 81.3117 149.901 75.784C149.901 70.2564 145.414 65.7754 139.879 65.7754C134.344 65.7754 129.857 70.2564 129.857 75.784C129.857 81.3117 134.344 85.7927 139.879 85.7927Z" fill="#A0616A"/>
<path d="M120.963 75.4622C120.998 76.6652 121.187 77.8565 121.33 79.0516C121.625 81.491 121.747 83.9735 122.466 86.3226C123.248 88.8699 124.701 91.1523 126.135 93.4013C126.638 94.1882 127.141 94.9732 127.642 95.7602C127.829 96.0506 128.014 96.343 128.2 96.6335C130.458 100.17 132.805 103.798 136.145 106.31C136.35 106.464 136.556 106.613 136.768 106.758C139.124 108.369 141.901 109.36 144.746 109.603C143.318 108.968 142.732 107.178 142.921 105.628C143.112 104.077 143.888 102.672 144.497 101.234C145.108 99.795 145.562 98.174 145.081 96.6865C144.972 96.3568 144.825 96.0486 144.648 95.7602C144.004 94.7122 142.964 93.8958 142.009 93.0833C140.789 92.0472 139.559 90.7637 139.486 89.1662C139.39 87.0742 138.051 87.7748 137.816 85.6946C137.652 84.2659 135.744 81.8305 135.654 80.3959C135.573 79.1203 136.358 76.0353 137.226 75.0972C138.095 74.1592 137.297 71.3587 137.816 70.191C138.334 69.0234 143.996 70.0007 142.889 69.3629L143.186 68.9409C145.625 68.4444 148.231 68.8467 150.424 70.0164C150.901 70.2695 151.357 70.558 151.789 70.8838C152.833 68.9802 151.595 66.5644 149.911 65.1926C148.262 63.8463 146.23 63.0692 144.214 62.3843C143.866 62.2665 143.516 62.1488 143.165 62.035C140.877 61.2971 138.525 60.6966 136.145 60.5984C135.542 60.571 134.939 60.5788 134.333 60.6239C132.528 60.7593 130.755 61.248 129.126 62.035C127.444 62.8474 125.915 63.9758 124.665 65.3633C123.445 66.7174 122.498 68.309 121.867 70.0164C121.222 71.7532 120.906 73.6116 120.963 75.4622Z" fill="#2F2E41"/>
<path d="M295.904 155.472L281.934 126.159C280.892 123.972 278.651 122.558 276.224 122.558H99.7811C99.1107 122.558 98.4581 122.662 97.843 122.861C96.2878 123.358 94.9648 124.445 94.1816 125.938L79.208 154.445C78.1726 156.413 78.2412 158.729 79.3917 160.633C80.5399 162.54 82.5554 163.685 84.7833 163.694L220.494 164.226L221.804 164.233L240.069 164.303L241.22 164.308L245.465 164.325L247.755 164.334L265.35 164.403L269.083 164.418L290.169 164.5H290.196C292.373 164.5 294.366 163.404 295.534 161.568C296.707 159.723 296.844 157.443 295.904 155.472Z" fill="white"/>
<path d="M295.904 155.472L281.934 126.159C280.892 123.972 278.651 122.558 276.224 122.558H99.7811C99.1107 122.558 98.4581 122.662 97.843 122.861C96.2878 123.358 94.9648 124.445 94.1816 125.938L79.208 154.445C78.1726 156.413 78.2412 158.729 79.3917 160.633C80.5399 162.54 82.5554 163.685 84.7833 163.694L220.494 164.226L221.804 164.233L240.069 164.303L241.22 164.308L245.465 164.325L247.755 164.334L265.35 164.403L269.083 164.418L290.169 164.5H290.196C292.373 164.5 294.366 163.404 295.534 161.568C296.707 159.723 296.844 157.443 295.904 155.472ZM294.974 161.212C293.928 162.858 292.145 163.837 290.196 163.837H290.171L269.069 163.753L265.421 163.74L247.662 163.669L245.333 163.66L241.24 163.645L240.074 163.64L221.744 163.568L220.49 163.563L84.7855 163.031C82.7921 163.022 80.9868 161.999 79.9603 160.293C78.9315 158.587 78.8696 156.515 79.7965 154.752L94.77 126.248C95.3098 125.22 96.1329 124.407 97.1174 123.884C97.9205 123.455 98.832 123.221 99.7811 123.221H276.224C278.397 123.221 280.401 124.487 281.335 126.444L295.304 155.755C296.147 157.523 296.023 159.562 294.974 161.212Z" fill="#3F3D56"/>
<path d="M141.181 143.769L174.588 131.616L157.884 124.907L124.588 133.605L141.181 143.769Z" fill="#F2F2F2"/>
<path d="M192.066 125.43L188.305 137.361L232.332 140.013L228.571 126.535L192.066 125.43Z" fill="#F2F2F2"/>
<path d="M140.169 127.471C143.265 127.778 145.616 129.621 145.42 131.588C145.224 133.556 142.557 134.902 139.46 134.594C138.221 134.489 137.026 134.088 135.974 133.427L122.875 131.962L123.694 125.838L136.521 127.932C137.683 127.489 138.934 127.331 140.169 127.471Z" fill="#A0616A"/>
<path d="M127.022 93.1722L124.699 91.957C124.699 91.957 121.048 92.0675 118.615 94.4979C116.181 96.9283 96.4906 124.767 96.4906 124.767C96.4906 124.767 91.6233 132.28 103.792 133.384C115.96 134.489 129.455 134.489 129.455 134.489L130.562 125.43L112.199 123.442L125.058 106.429L127.022 93.1722Z" fill="#D9FE51"/>
<path d="M196.055 90.2294C193.823 90.89 191.464 91.2634 189.028 91.2988C188.885 91.3032 188.741 91.3054 188.597 91.3054C186.394 91.3054 184.254 91.0337 182.208 90.5211L182.261 89.9974L183.451 78.5326L183.526 77.799L182.422 74.4915H195.967L195.75 77.7239L195.67 78.9015L195.787 79.275L198.774 88.78L198.907 89.2042C197.982 89.5997 197.031 89.9422 196.055 90.2294Z" fill="#D9FE51"/>
<path d="M182.208 90.5209C178.993 89.7188 176.011 88.3225 173.385 86.4599C172.303 85.8744 171.252 85.2403 170.245 84.5686L170.743 84.3189L183.25 78.0728L183.451 78.5323L188.836 90.8611L189.029 91.2986C188.885 91.303 188.741 91.3052 188.597 91.3052C186.394 91.3052 184.254 91.0335 182.208 90.5209Z" fill="#2F2E41"/>
<path d="M209.456 81.038C209.4 81.1131 209.343 81.186 209.285 81.259C208.352 82.4432 207.316 83.5435 206.197 84.5488L206.188 83.9589L206.157 81.787C206.157 81.787 207.051 81.1352 208.155 80.9651C208.418 80.9231 208.695 80.9099 208.973 80.9408C209.135 80.9562 209.294 80.9872 209.456 81.038Z" fill="#2F2E41"/>
<path d="M206.197 84.5489C204.055 86.4777 201.595 88.0597 198.907 89.2042C197.982 89.5997 197.031 89.9421 196.055 90.2294L196.044 89.772L195.787 79.2749L195.75 77.7239L208.155 80.9651L208.814 81.1375L209.285 81.259C208.352 82.4432 207.316 83.5436 206.197 84.5489Z" fill="#2F2E41"/>
<path d="M189.322 70.9071C194.809 70.9071 199.258 66.4646 199.258 60.9844C199.258 55.5043 194.809 51.0618 189.322 51.0618C183.835 51.0618 179.386 55.5043 179.386 60.9844C179.386 66.4646 183.835 70.9071 189.322 70.9071Z" fill="#A0616A"/>
<path d="M196.045 89.7719C193.757 90.4613 191.339 90.8391 188.837 90.8612L189.029 91.2986C191.465 91.2633 193.824 90.8899 196.056 90.2293L196.045 89.7719ZM170.744 84.319C165.644 79.6128 162.408 72.9226 162.277 65.49C157.071 71.5086 162.244 79.2328 170.246 84.5687C171.253 85.2403 172.304 85.8744 173.386 86.4599C172.459 85.8037 171.576 85.0879 170.744 84.319ZM209.2 48.6606C204.372 42.6067 196.932 38.7202 188.598 38.7202C174.082 38.7202 162.271 50.5143 162.271 65.0127C162.271 65.1718 162.273 65.3309 162.277 65.49C162.414 65.3287 162.56 65.1696 162.713 65.0127C170.014 57.5006 174.326 39.1621 188.598 39.1621C196.941 39.1621 204.375 43.1237 209.111 49.2638C212.479 53.6252 214.483 59.0892 214.483 65.0127C214.483 65.8722 214.441 66.7229 214.357 67.5602C214.304 68.117 214.231 68.6694 214.14 69.2151C213.481 73.2253 211.895 76.9306 209.609 80.0967C209.403 80.3839 209.191 80.6645 208.974 80.9407C208.921 81.007 208.87 81.0733 208.815 81.1374C208.01 82.1427 207.131 83.0861 206.189 83.9588C204.027 85.965 201.523 87.6044 198.775 88.7799C197.89 89.1621 196.979 89.4935 196.045 89.7719C193.757 90.4613 191.339 90.8391 188.837 90.8612C188.757 90.8634 188.678 90.8634 188.598 90.8634C186.594 90.8634 184.445 90.5563 182.262 89.9973C179.279 89.235 176.229 88.0066 173.386 86.4599C176.012 88.3225 178.994 89.7189 182.209 90.5209C184.255 91.0335 186.394 91.3053 188.598 91.3053C188.742 91.3053 188.886 91.3031 189.029 91.2986C191.465 91.2633 193.824 90.8899 196.056 90.2293C197.032 89.942 197.983 89.5996 198.908 89.2041C201.596 88.0596 204.056 86.4776 206.198 84.5488C207.317 83.5435 208.353 82.4432 209.286 81.2589C209.344 81.186 209.401 81.1131 209.457 81.0379C209.532 80.9407 209.607 80.8413 209.68 80.7419C212.182 77.4122 213.908 73.4705 214.594 69.1864C214.682 68.6363 214.753 68.0795 214.806 67.5161C214.886 66.6919 214.926 65.8568 214.926 65.0127C214.926 58.8373 212.784 53.1524 209.2 48.6606Z" fill="#E6E6E6"/>
<path d="M180.423 66.263C178.635 64.5786 177.389 62.3458 178.636 57.5862C178.729 57.2319 178.48 56.8515 178.24 56.5749C177.999 56.2982 177.546 56.1697 177.261 56.3999C177.464 55.8023 180.248 53.668 180.451 53.0705C180.214 53.3849 178.404 54.0589 178.258 53.6928C178.113 53.3268 178.241 52.9155 178.368 52.5429L179.128 50.3223C179.319 49.7637 180.073 50.4311 180.451 49.9773C181.128 49.1643 180.356 48.3074 181.39 48.0795C184.774 47.3336 188.361 46.6671 191.649 47.762C193.085 48.2402 194.391 49.0348 195.683 49.8227L198.047 51.2645C199.403 52.0915 200.876 53.0727 201.248 54.6157L198.765 53.7297C199.318 54.9055 199.876 56.0958 200.129 57.37C200.382 58.6442 199.698 63.4419 199.035 64.5597C198.453 65.5417 198.041 62.9044 197.85 64.0294C198.069 61.8194 197.073 59.5269 195.307 58.1772C194.944 57.9004 194.531 57.6342 194.37 57.208C194.191 56.7328 194.371 56.1613 194.126 55.7163C193.82 55.163 193.024 55.1102 192.43 55.3274C191.836 55.5446 191.317 55.9527 190.702 56.099C189.071 56.4869 187.587 54.9467 185.914 54.8309C184.321 54.7206 182.896 55.9662 182.233 57.4176C181.57 58.869 179.738 58.5549 179.566 60.1408C179.395 61.7267 181.897 64.8652 180.894 66.1063L180.423 66.263Z" fill="#2F2E41"/>
<path d="M179.169 81.0579L178.428 80.4813L178.255 80.3487C178.089 80.2183 177.87 80.1742 177.664 80.225L176.797 80.4415C176.706 80.4636 176.609 80.4371 176.543 80.3708L175.569 79.3986C175.503 79.3323 175.476 79.2351 175.498 79.1445L175.715 78.2784C175.768 78.073 175.722 77.8564 175.591 77.6885L174.881 76.776C174.863 76.7539 174.844 76.7318 174.824 76.7119C174.554 76.4424 174.118 76.4424 173.848 76.7119L173.439 77.1207C173.144 77.4123 173.016 77.852 173.16 78.2586C173.527 79.3014 174.125 80.2493 174.91 81.0292C175.189 81.3076 175.487 81.5639 175.804 81.7937C176.379 82.2091 177.012 82.5405 177.684 82.7769C178.094 82.9205 178.532 82.7924 178.824 82.5007L179.233 82.0897C179.527 81.7981 179.496 81.3142 179.169 81.0579ZM178.934 81.7937L178.525 82.2024C178.333 82.3924 178.063 82.4631 177.824 82.3792C177.26 82.1826 176.726 81.913 176.233 81.5772C175.866 81.3319 175.523 81.0469 175.209 80.7309C174.47 79.9952 173.905 79.1026 173.558 78.1194C173.474 77.8807 173.545 77.6112 173.735 77.419L174.147 77.0102C174.153 77.0014 174.162 76.9947 174.171 76.9881C174.288 76.8975 174.456 76.9174 174.547 77.0345L175.257 77.947C175.308 78.0111 175.326 78.0973 175.306 78.1768L175.089 79.0429C175.029 79.2771 175.1 79.5268 175.271 79.6969L176.244 80.6691C176.414 80.8414 176.664 80.9099 176.899 80.8502L177.766 80.6337C177.846 80.6138 177.932 80.6315 177.996 80.6823L178.007 80.6912L178.91 81.3916C178.919 81.3982 178.928 81.407 178.934 81.4137C179.041 81.5197 179.041 81.6876 178.934 81.7937Z" fill="#CCCCCC"/>
<path d="M187.805 79.061C187.915 79.061 188.003 79.1495 188.003 79.2587V79.6541C188.003 80.5276 188.712 81.2357 189.587 81.2357C190.462 81.2357 191.171 80.5276 191.171 79.6541V79.2587C191.171 79.1495 191.259 79.061 191.369 79.061C191.478 79.061 191.567 79.1495 191.567 79.2587V79.6541C191.567 80.6694 190.797 81.5197 189.785 81.6212V82.4219H190.973C191.082 82.4219 191.171 82.5104 191.171 82.6196C191.171 82.7287 191.082 82.8173 190.973 82.8173H188.201C188.092 82.8173 188.003 82.7287 188.003 82.6196C188.003 82.5104 188.092 82.4219 188.201 82.4219H189.389V81.6212C188.377 81.5197 187.607 80.6694 187.607 79.6541V79.2587C187.607 79.1495 187.696 79.061 187.805 79.061Z" fill="#CCCCCC"/>
<path d="M189.587 76.491C188.932 76.491 188.399 77.0212 188.399 77.6774V79.6549C188.399 80.3089 188.932 80.8392 189.587 80.8392C190.244 80.8392 190.775 80.3089 190.775 79.6549V77.6774C190.775 77.0212 190.244 76.491 189.587 76.491ZM190.379 79.6549C190.379 80.0902 190.025 80.4459 189.587 80.4459C189.149 80.4459 188.795 80.0902 188.795 79.6549V77.6774C188.795 77.24 189.149 76.8865 189.587 76.8865C190.025 76.8865 190.379 77.24 190.379 77.6774V79.6549Z" fill="#CCCCCC"/>
<path d="M203.288 76.5681C202.667 76.3582 201.992 76.6897 201.782 77.3105L202.116 77.6441C202.138 77.2244 202.488 76.8951 202.91 76.8973C203.346 76.8996 203.7 77.2553 203.698 77.6906V79.2239L204.094 79.6194V77.6906C204.094 77.1846 203.768 76.7316 203.288 76.5681ZM204.293 82.4365H203.105V81.6344C203.452 81.6013 203.784 81.4753 204.067 81.2699L203.782 80.9848C203.532 81.1528 203.231 81.25 202.906 81.25C202.032 81.25 201.322 80.5407 201.322 79.668V79.2725C201.322 79.2372 201.313 79.2018 201.293 79.1731C201.26 79.1157 201.198 79.0759 201.125 79.0759C201.089 79.0759 201.056 79.0847 201.027 79.1024C200.968 79.1355 200.926 79.1996 200.926 79.2725V79.668C200.926 80.6822 201.698 81.5328 202.709 81.6344V82.4365H201.521C201.41 82.4365 201.322 82.5248 201.322 82.6331C201.322 82.7436 201.41 82.832 201.521 82.832H204.293C204.401 82.832 204.49 82.7436 204.49 82.6331C204.49 82.5248 204.401 82.4365 204.293 82.4365ZM204.689 79.0759C204.578 79.0759 204.49 79.1643 204.49 79.2725V79.668C204.49 79.7741 204.479 79.8801 204.459 79.984L204.479 80.0038L204.78 80.3065C204.802 80.238 204.822 80.1696 204.837 80.0988C204.87 79.9597 204.886 79.816 204.886 79.668V79.2725C204.886 79.1643 204.797 79.0759 204.689 79.0759Z" fill="#CCCCCC"/>
<path d="M203.722 79.8071L200.671 76.7603L200.39 77.0409L202.961 79.6082L205.142 81.7846L205.421 81.504L203.722 79.8071ZM203.198 80.4036C202.793 80.5649 202.333 80.3661 202.171 79.9596C202.133 79.8668 202.114 79.7673 202.114 79.6679V79.321L201.718 78.9255V79.6679C201.718 80.3219 202.251 80.8544 202.906 80.8544C203.111 80.8544 203.315 80.8014 203.494 80.6997L203.198 80.4036Z" fill="#CCCCCC"/>
<path d="M256.564 122.995C253.937 124.943 250.802 125.168 249.561 123.499C248.32 121.829 249.444 118.898 252.071 116.95C253.11 116.157 254.324 115.625 255.611 115.397L266.843 107.285L270.543 112.63L259.077 120.059C258.486 121.224 257.624 122.231 256.564 122.995Z" fill="#FFB6B6"/>
<path d="M263.64 56.9316C263.64 56.9316 272.701 57.2174 274.418 63.5049C276.135 69.7924 279.569 83.1939 278.997 101.801C278.997 101.801 281.859 113.805 274.418 113.233L264.116 117.806L257.247 108.66L262.971 101.801L263.64 56.9316Z" fill="#D9FE51"/>
</svg>
