<svg width="375" height="184" viewBox="0 0 375 184" fill="none" xmlns="http://www.w3.org/2000/svg">
<path d="M267.291 117.078C267.522 117.1 267.753 117.05 267.954 116.936C268.156 116.822 268.317 116.649 268.416 116.44C268.515 116.232 268.548 115.998 268.509 115.771C268.47 115.544 268.362 115.334 268.2 115.17C268.177 115.056 268.16 114.974 268.137 114.86C268.148 114.836 268.159 114.812 268.171 114.788C268.429 114.252 268.841 113.803 269.355 113.499C269.869 113.195 270.462 113.048 271.059 113.078C271.656 113.108 272.231 113.313 272.712 113.667C273.192 114.021 273.557 114.508 273.76 115.068C274.572 117.301 275.633 119.55 275.811 121.88C275.89 122.91 275.788 123.946 275.51 124.941C277.876 120.38 279.228 115.365 279.475 110.238C279.535 108.951 279.524 107.662 279.44 106.377C279.37 105.323 279.254 104.274 279.091 103.231C278.203 97.5709 275.977 92.2011 272.598 87.5628C270.906 86.5394 269.569 85.0243 268.768 83.2216C268.478 82.5735 268.284 81.887 268.191 81.1834C268.386 81.2181 268.584 81.2433 268.779 81.2651C268.84 81.2711 268.904 81.2773 268.965 81.2834L268.988 81.2855C269.203 81.305 269.419 81.2624 269.61 81.1627C269.801 81.063 269.959 80.9104 270.065 80.7234C270.171 80.5364 270.221 80.3229 270.207 80.1085C270.194 79.8942 270.119 79.6883 269.991 79.5155C269.911 79.4079 269.832 79.3005 269.752 79.1931C269.631 79.0273 269.506 78.8646 269.385 78.6989C269.371 78.683 269.358 78.6663 269.346 78.649C269.207 78.46 269.067 78.2741 268.928 78.0851C269.217 77.6811 269.596 77.349 270.036 77.1147C271.557 76.3204 273.571 77.0127 274.579 78.3949C275.589 79.7773 275.704 81.6564 275.253 83.3042C274.821 84.7041 274.152 86.0205 273.275 87.197C273.351 87.303 273.43 87.406 273.505 87.512C274.885 89.4581 276.07 91.5341 277.043 93.7102C276.894 91.3159 277.318 88.9205 278.28 86.721C279.247 84.6745 280.959 82.9924 282.478 81.2549C284.303 79.1678 287.793 80.2772 287.968 83.0382C287.97 83.0649 287.971 83.0916 287.973 83.1184C287.754 83.2281 287.539 83.3455 287.329 83.4703C287.065 83.6289 286.855 83.8633 286.726 84.1428C286.598 84.4222 286.558 84.7337 286.61 85.0365C286.663 85.3392 286.806 85.619 287.022 85.8392C287.237 86.0595 287.514 86.2099 287.817 86.2708L287.848 86.277C287.736 87.0379 287.566 87.7892 287.34 88.5244C286.688 90.576 285.618 92.4716 284.196 94.0922C282.773 95.7129 281.03 97.0237 279.075 97.9424C278.947 98.0005 278.821 98.0588 278.693 98.1137C279.629 101.202 280.156 104.398 280.263 107.622C280.32 109.524 280.223 111.427 279.971 113.313L279.984 113.246C280.494 111.16 281.712 109.312 283.432 108.016C285.985 106.119 289.494 105.54 292.223 104.047C292.513 103.88 292.845 103.799 293.181 103.814C293.516 103.828 293.84 103.938 294.114 104.13C294.389 104.322 294.602 104.588 294.73 104.897C294.857 105.205 294.893 105.544 294.834 105.872C294.829 105.896 294.825 105.919 294.82 105.942C294.417 106.084 294.023 106.251 293.641 106.442C293.422 106.552 293.208 106.669 292.997 106.794C292.733 106.953 292.523 107.187 292.394 107.466C292.266 107.746 292.226 108.057 292.278 108.36C292.331 108.663 292.475 108.943 292.69 109.163C292.905 109.383 293.182 109.534 293.485 109.594L293.516 109.601C293.538 109.605 293.557 109.609 293.579 109.613C292.829 111.188 291.811 112.621 290.571 113.852C289.041 115.341 287.222 116.502 285.225 117.266C283.227 118.03 281.094 118.38 278.956 118.295L278.953 118.295C278.255 120.777 277.301 123.18 276.104 125.465L267.143 125.05C267.115 124.949 267.091 124.846 267.067 124.745C267.894 124.836 268.729 124.825 269.553 124.713C268.927 123.871 268.3 123.022 267.673 122.179C267.659 122.163 267.646 122.147 267.634 122.129C267.316 121.698 266.995 121.27 266.677 120.839L266.677 120.839C266.718 119.564 266.925 118.3 267.291 117.078L267.291 117.078Z" fill="#F2F2F2"/>
<path d="M86.7415 39.9729C86.5127 40.0083 86.2784 39.9729 86.0704 39.8713C85.8625 39.7698 85.6909 39.6072 85.579 39.4054C85.467 39.2036 85.4201 38.9724 85.4446 38.7432C85.4691 38.514 85.5638 38.2979 85.7159 38.124C85.732 38.0089 85.7435 37.9263 85.7596 37.8112C85.7468 37.788 85.7339 37.7647 85.721 37.7415C85.4297 37.2219 84.9907 36.7995 84.4589 36.5274C83.9272 36.2554 83.3265 36.1457 82.7324 36.2122C82.1382 36.2788 81.5771 36.5185 81.1194 36.9014C80.6618 37.2843 80.328 37.7932 80.1601 38.3642C79.4886 40.6433 78.5689 42.9531 78.5357 45.2897C78.5215 46.3224 78.6874 47.3498 79.0261 48.3262C76.3819 43.9186 74.7211 38.9968 74.1562 33.8945C74.0157 32.614 73.9474 31.3267 73.9514 30.0386C73.9556 28.9825 74.0065 27.9289 74.104 26.8778C74.6394 21.1737 76.527 15.6774 79.6117 10.8401C81.2375 9.71462 82.4776 8.1202 83.1648 6.27176C83.4143 5.60704 83.5657 4.90988 83.6145 4.20198C83.4223 4.24853 83.2259 4.28587 83.0323 4.31969C82.9719 4.32943 82.9083 4.33954 82.8479 4.3493L82.8251 4.35281C82.6119 4.38557 82.3937 4.3563 82.1968 4.26852C81.9998 4.18074 81.8326 4.0382 81.7152 3.85805C81.5978 3.6779 81.5353 3.46782 81.5351 3.25311C81.5349 3.0384 81.5971 2.82821 81.7141 2.64785C81.787 2.53564 81.86 2.42348 81.933 2.31136C82.0435 2.13848 82.1575 1.96844 82.268 1.79558C82.2811 1.77888 82.2932 1.76144 82.3043 1.74335C82.4316 1.54613 82.5591 1.35211 82.6863 1.15489C82.3726 0.769416 81.9737 0.46126 81.5206 0.254443C79.9532 -0.444849 77.9853 0.369961 77.0659 1.81151C76.1433 3.25339 76.1453 5.13592 76.6972 6.75292C77.216 8.12352 77.9654 9.39627 78.9133 10.5166C78.8445 10.6271 78.7722 10.7347 78.7034 10.8451C77.447 12.8723 76.3932 15.0172 75.5572 17.249C75.5576 14.8501 74.9857 12.4853 73.8885 10.3493C72.7963 8.36609 70.9835 6.79249 69.3593 5.15163C67.4083 3.18071 63.9939 4.50259 63.9905 7.26909C63.9905 7.29588 63.9905 7.32264 63.9906 7.3494C64.2157 7.44551 64.4372 7.54943 64.6549 7.66114C64.9287 7.80319 65.1529 8.02422 65.2983 8.29526C65.4436 8.56629 65.5033 8.8747 65.4695 9.18008C65.4357 9.48545 65.31 9.77355 65.1089 10.0066C64.9077 10.2397 64.6405 10.4069 64.3423 10.4862L64.3117 10.4944C64.4704 11.2469 64.6864 11.9863 64.9578 12.7062C65.7355 14.7139 66.9216 16.54 68.4418 18.0701C69.962 19.6002 71.7835 20.8013 73.792 21.5981C73.9236 21.6482 74.0521 21.6987 74.1833 21.7456C73.4416 24.8856 73.1132 28.1083 73.2066 31.3325C73.2678 33.2341 73.4835 35.1276 73.8514 36.9946L73.8345 36.9288C73.1963 34.8776 71.8662 33.1083 70.069 31.9199C67.4028 30.1842 63.8644 29.8217 61.0482 28.4994C60.748 28.3504 60.4113 28.2901 60.0777 28.3254C59.7442 28.3606 59.4277 28.4901 59.1657 28.6985C58.9036 28.9069 58.7069 29.1855 58.5988 29.5015C58.4906 29.8174 58.4756 30.1576 58.5553 30.4818C58.5614 30.5048 58.5676 30.5278 58.5738 30.5509C58.9848 30.6678 59.3882 30.8101 59.7814 30.9769C60.0066 31.073 60.228 31.177 60.4457 31.2886C60.7195 31.4307 60.9437 31.6517 61.0891 31.9228C61.2345 32.1938 61.2942 32.5022 61.2604 32.8076C61.2266 33.113 61.1009 33.4011 60.8997 33.6341C60.6986 33.8672 60.4314 34.0344 60.1331 34.1137L60.1025 34.1218C60.0805 34.1274 60.0617 34.1327 60.0397 34.1383C60.8869 35.6635 61.9916 37.0321 63.3054 38.1843C64.9249 39.5759 66.813 40.6236 68.8538 41.2632C70.8947 41.9029 73.0454 42.121 75.174 41.9042L75.1772 41.9038C76.0275 44.3382 77.1298 46.678 78.4662 48.8856L87.3841 47.9204C87.4053 47.8183 87.4229 47.7134 87.4409 47.6117C86.6211 47.7527 85.7871 47.7932 84.9573 47.7325C85.5307 46.853 86.1033 45.9671 86.6767 45.0876C86.6898 45.0709 86.7019 45.0534 86.713 45.0354C87.0034 44.5856 87.2974 44.1386 87.5878 43.6888L87.5879 43.6883C87.4673 42.4189 87.1829 41.1702 86.7418 39.9731L86.7415 39.9729Z" fill="#F2F2F2"/>
<path d="M209.949 36.6841C210.39 36.8049 210.799 37.0206 211.148 37.316C211.497 37.6113 211.776 37.9791 211.966 38.3934C212.156 38.8078 212.253 39.2586 212.249 39.7142C212.246 40.1697 212.142 40.6189 211.944 41.0301L216.73 46.3245L214.206 50.0031L207.553 42.4319C206.881 42.0567 206.371 41.4491 206.119 40.7243C205.866 39.9995 205.89 39.2079 206.185 38.4994C206.481 37.7909 207.027 37.2148 207.72 36.8802C208.414 36.5456 209.207 36.4759 209.949 36.6841Z" fill="#A0616A"/>
<path d="M254.751 49.6848C254.32 48.9861 253.754 48.3789 253.086 47.8983C252.418 47.4176 251.662 47.0728 250.86 46.8837C250.058 46.6946 249.226 46.6649 248.413 46.7963C247.599 46.9277 246.82 47.2176 246.119 47.6494L230.381 57.3492L213.404 42.9888L209.18 46.9022L227.935 71.1163L252.311 58.4711C251.742 58.7662 255.438 50.7981 254.751 49.6848Z" fill="#CCCCCC"/>
<path d="M223.572 81.9368C223.573 89.6717 222.044 97.3311 219.07 104.477C216.096 111.624 211.736 118.117 206.24 123.587C200.743 129.056 194.218 133.394 187.036 136.353C179.855 139.313 172.158 140.835 164.385 140.834C131.697 140.834 105.197 114.464 105.197 81.9368C105.192 75.6097 106.211 69.3231 108.216 63.3189C112.152 51.5926 119.693 41.3943 129.773 34.1662C139.852 26.9381 151.96 23.0459 164.385 23.04C175.1 23.0363 185.615 25.9282 194.807 31.4068C203.999 36.8855 211.524 44.7453 216.578 54.1473C217.831 56.467 218.924 58.8688 219.85 61.336C219.978 61.6796 220.103 62.0231 220.224 62.37V62.3732C220.767 63.898 221.245 65.4511 221.658 67.0326C222.933 71.899 223.576 76.9078 223.572 81.9368Z" fill="#3F3D56"/>
<path d="M157.909 42.2001C155.25 40.7688 152.296 39.9608 149.275 39.8378C146.254 39.7148 143.244 40.28 140.476 41.4903C138.038 42.5459 135.471 44.4396 134.658 47.8592C137.947 45.9278 142.204 48.9794 143.051 53.8748L142.853 53.929C142.406 57.3198 143.404 61.0114 145.336 63.1139C145.589 60.93 147.032 59.4437 148.452 58.5152C149.871 57.5867 151.441 56.9122 152.525 55.3163C153.809 53.4243 154.135 50.6592 154.645 48.1367C155.156 45.6142 156.124 42.903 157.909 42.2001Z" fill="white"/>
<path d="M139.5 71.0541C138.589 72.4153 137.372 73.2693 136.28 74.3327C135.192 75.3994 134.156 76.8391 133.939 78.6878C133.801 79.8723 134.015 81.0764 133.985 82.274C133.956 83.4715 133.555 84.8196 132.736 85.1174C131.444 85.582 130.457 83.1934 129.129 83.0265C128.073 82.8956 127.123 84.548 127.429 85.9812C127.734 87.4144 129.171 88.0491 129.997 87.1133C130.743 88.36 130.217 90.621 129.096 91.0038C128.977 91.7891 128.859 92.5711 128.744 93.3564C125.91 91.3833 123.046 89.3776 120.635 86.4883C117.955 83.3023 116.292 79.3918 115.861 75.2587C115.548 71.9376 116.012 68.1387 114.48 65.5833C113.253 63.5383 111.149 63.0867 109.255 63.2144C108.91 63.2372 108.561 63.2765 108.216 63.319C109.333 59.9808 110.751 56.75 112.454 53.6665C112.84 53.5019 113.198 53.2802 113.516 53.0088C115.279 51.5201 116.061 48.5065 117.492 46.4222C117.584 46.288 117.679 46.1571 117.778 46.0296C119.241 44.1285 121.201 43.1501 123.095 42.2405C127.287 40.2151 131.601 38.1636 136.027 38.4449L134.768 38.566C133.298 42.6626 131.827 46.7592 130.355 50.8558C130.132 51.484 129.906 52.1133 129.678 52.7438C128.843 55.0734 127.981 57.5537 128.109 60.1615C128.185 61.7059 128.724 63.355 129.75 63.8851C130.707 64.3759 131.753 63.7738 132.677 63.1783C133.068 62.9296 133.456 62.6809 133.847 62.429C135.251 61.5292 136.807 60.6065 138.29 61.2085C139.648 61.7583 140.65 63.5939 140.841 65.5735C141.016 67.4978 140.544 69.4254 139.5 71.0541Z" fill="white"/>
<path d="M147.851 99.0226C143.75 96.5102 139.65 93.9977 135.549 91.4853L135.619 91.3069C133.069 92.2732 132.01 96.7831 132.432 100.471C132.853 104.159 134.282 107.456 135.004 111.05C135.977 115.967 135.61 121.055 133.94 125.783C139.332 119.763 144.104 113.219 148.184 106.251C148.754 105.373 149.189 104.415 149.473 103.408C149.733 102.338 149.693 101.05 149.171 100.192C148.836 99.6988 148.382 99.297 147.851 99.0226Z" fill="white"/>
<path d="M131.666 53.3137C131.231 54.2879 131.063 55.587 131.458 56.595C131.862 57.6245 132.715 58.0898 133.501 58.4771L135.766 59.5947C136.52 59.9665 137.333 60.3421 138.101 60.0362C139.028 59.6672 139.671 58.2213 139.504 56.879C139.327 55.4506 138.423 54.4681 137.586 53.6313C136.415 52.4604 135.244 51.2895 134.073 50.1187L133.413 50.923C132.699 51.6159 132.108 52.4242 131.666 53.3137Z" fill="white"/>
<path d="M211.425 68.5837C212.445 68.8226 213.464 69.0615 214.483 69.3003C214.306 72.7262 212.599 75.8968 210.311 77.0452C209.357 77.523 208.295 77.6996 207.506 78.5929C206.792 79.4044 206.431 80.6674 206.099 81.8748C205.517 83.982 204.935 86.0892 204.353 88.1963C203.728 90.4671 202.925 92.9899 201.301 93.8079C199.907 94.5114 198.312 93.6508 197.24 92.2079C196.168 90.7649 195.514 88.8246 194.879 86.9334C194.919 88.9947 193.955 91.0169 192.591 91.7334C191.223 92.45 189.559 91.8021 188.645 90.2021C187.987 89.0536 187.714 87.5387 187.07 86.3738C186.425 85.209 185.074 84.5415 184.37 85.6343C183.907 86.3608 183.966 87.4732 183.736 88.396C183.377 89.8291 182.292 90.7289 181.217 90.8075C180.145 90.886 179.099 90.2708 178.202 89.4365C176.35 87.7088 174.986 84.9669 174.456 81.9206C174.223 80.5627 174.157 79.0837 174.562 77.8109C174.966 76.5381 175.943 75.5565 176.913 75.7986C177.551 74.457 176.291 72.6771 175.157 72.8341C174.019 72.9912 173.128 74.2051 172.194 75.1376C171.264 76.0702 169.961 76.7475 169.024 75.8215C169.031 76.682 168.327 77.2514 167.719 77.1794C167.114 77.1107 166.575 76.6264 166.019 76.2828C163.872 74.9511 161.146 75.8346 159.62 78.354C160.574 74.3163 161.971 69.6831 164.901 68.7342C166.098 68.3449 167.403 68.6655 168.534 67.9915C170.537 66.7972 170.941 62.285 169.212 60.4233C169.432 62.1836 169.389 64.2384 168.455 65.4426C167.522 66.6467 165.562 65.8613 165.68 64.0814C165.411 65.3084 164.069 65.4949 163.451 64.5525C162.829 63.6102 162.882 62.0691 163.323 60.9435C163.763 59.8179 164.513 59.0097 165.24 58.2342C166.801 56.5688 168.386 54.8837 170.195 53.8366C172.007 52.7896 174.098 52.4362 175.913 53.4767C176.87 54.0264 177.712 54.9426 178.688 55.4268C179.665 55.9144 180.905 55.8522 181.552 54.7135C182.279 53.444 181.937 51.5593 182.207 49.9723C182.69 47.1682 185.508 45.8561 187.07 47.7081C185.903 47.4103 184.696 48.7846 184.551 50.4501C184.403 52.1155 185.248 53.7974 186.379 54.3013C188.28 55.1389 190.141 53.0317 191.578 51.0816C193.077 49.0398 194.579 46.9991 196.083 44.9596C196.323 44.6123 196.592 44.2861 196.888 43.9845C197.359 43.5277 197.987 43.2661 198.645 43.2527C199.302 43.2394 199.94 43.4752 200.43 43.9125C201.949 45.1461 202.662 47.6754 203.909 49.4161C205.717 51.9454 208.423 52.5605 210.942 53.0513C212.82 53.4145 214.698 53.7799 216.578 54.1475C217.831 56.4672 218.924 58.8689 219.85 61.3362C216.667 62.681 213.73 65.1972 211.425 68.5837Z" fill="white"/>
<path d="M217.496 107.953C216.087 110.799 214.449 113.527 212.597 116.11C211.413 115.606 210.14 116.506 209.032 117.35C207.875 118.234 206.484 119.094 205.297 118.289C204.084 117.465 203.692 115.158 204.077 113.329C204.462 111.503 205.422 110.05 206.352 108.669C207.339 107.203 208.394 105.682 209.765 105.113C211.14 104.543 212.906 105.348 213.307 107.292L214.28 107.259C213.734 106.513 214.02 104.969 214.754 104.697C215.599 104.38 216.332 105.535 216.832 106.556C217.055 107.017 217.282 107.482 217.496 107.953Z" fill="white"/>
<path d="M180.219 94.1319C178.127 94.2629 176.47 91.7001 175.369 89.1789C174.267 86.6577 173.263 83.7745 171.375 82.4912C170.296 81.7579 169.067 81.6573 167.897 81.302C166.727 80.9467 165.502 80.2114 164.943 78.7141L163.616 78.1807C161.863 79.1613 160.088 80.1598 158.577 81.7557C156.884 83.546 155.829 85.8411 155.575 88.2871C155.322 90.9303 156.258 93.8777 158.007 94.8707C159.389 95.6553 160.998 95.1607 162.398 95.879C164.147 96.7764 165.186 99.3833 165.579 101.957C165.972 104.531 165.872 107.206 166.154 109.809C166.435 112.412 167.21 115.121 168.814 116.455C170.821 118.124 173.767 116.737 174.667 113.698C175.109 112.208 175.094 110.526 175.424 108.979C176.006 106.254 177.576 104.232 178.822 101.997C180.067 99.7617 181.047 96.7259 180.219 94.1319Z" fill="white"/>
<path d="M159.546 67.3564C159.741 67.5352 159.923 67.7275 160.091 67.9319C160.264 68.2296 160.353 68.5688 160.347 68.9128C160.341 69.2569 160.241 69.5928 160.057 69.8844C160.309 69.8702 160.556 69.804 160.781 69.6902C161.006 69.5764 161.204 69.4174 161.365 69.2233C161.746 68.7906 162.082 68.3197 162.367 67.8183C162.58 67.4721 162.807 67.004 162.662 66.5928C162.564 66.3121 162.33 66.1924 162.166 65.9813C161.906 65.6467 161.842 65.1153 161.708 64.6561C161.417 63.6644 160.722 62.9351 159.967 62.8308L160.072 62.8508C159.756 62.9583 159.536 63.4566 159.606 63.9049C159.67 64.3132 159.933 64.6522 159.907 65.0686C159.869 65.6675 159.268 65.9485 159.231 66.5474C159.225 66.8478 159.338 67.1385 159.546 67.3564Z" fill="white"/>
<path d="M155.962 57.1797C155.965 57.1789 155.968 57.1787 155.971 57.1779C156.035 57.1197 156.095 57.0567 156.149 56.9893L155.962 57.1797Z" fill="#E6E6E6"/>
<path d="M156.59 59.9911C157.052 59.6952 157.311 58.8766 157.158 58.1915C157.006 57.5106 156.468 57.0528 155.972 57.1785C155.828 57.3237 155.649 57.4301 155.453 57.4877C155.256 57.5453 155.048 57.5522 154.848 57.5078C154.541 57.4292 154.204 57.2268 153.938 57.4568C153.786 57.6286 153.68 57.8355 153.628 58.0588C153.53 58.3596 153.432 58.6603 153.333 58.9611C153.286 59.0688 153.274 59.1882 153.298 59.303C153.317 59.349 153.347 59.3895 153.387 59.4204C153.426 59.4513 153.472 59.4717 153.521 59.4796C154.112 59.6529 154.703 59.8263 155.294 59.9996C155.724 60.1259 156.189 60.2476 156.59 59.9911Z" fill="white"/>
<path d="M201.191 98.7973C200.917 98.3524 200.644 97.9075 200.371 97.4625C200.103 96.9472 199.736 96.489 199.292 96.1136C199.194 96.0321 199.081 95.9709 198.959 95.9335C198.837 95.8962 198.709 95.8834 198.582 95.8961C198.455 95.9087 198.332 95.9465 198.22 96.0072C198.108 96.0678 198.009 96.1502 197.93 96.2493L197.963 96.5035C198.585 97.2806 199.244 98.144 199.402 99.2974C199.464 99.7521 199.443 100.223 199.497 100.679C199.552 101.136 199.707 101.61 200.003 101.807C200.433 102.092 200.938 101.671 201.244 101.157C201.518 100.734 201.641 100.232 201.593 99.732C201.524 99.3963 201.388 99.0782 201.191 98.7973Z" fill="white"/>
<path d="M213.346 81.8049C213.425 81.2895 213.504 80.7741 213.583 80.2587C213.711 79.6926 213.727 79.1071 213.63 78.5349C213.608 78.4099 213.561 78.2906 213.492 78.1839C213.423 78.0772 213.333 77.9854 213.227 77.9137C213.122 77.8421 213.004 77.7921 212.879 77.7668C212.754 77.7414 212.625 77.7412 212.5 77.766L212.361 77.9818C212.334 78.9752 212.279 80.0578 211.654 81.0414C211.407 81.4291 211.086 81.7753 210.832 82.1597C210.578 82.544 210.391 83.0058 210.49 83.3463C210.634 83.8406 211.293 83.8416 211.86 83.6443C212.343 83.4964 212.761 83.1912 213.048 82.7777C213.213 82.4772 213.315 82.146 213.346 81.8049Z" fill="#E6E6E6"/>
<path d="M205.475 99.3764C205.609 98.9945 205.416 98.5564 205.375 98.1342C205.355 97.5889 205.501 97.0504 205.792 96.5882C206.081 96.1522 206.301 95.6739 206.442 95.1706C206.501 94.9413 206.49 94.6995 206.411 94.4764C206.32 94.2743 206.101 94.1822 205.976 94.3422L206.244 94.5144C205.882 94.45 205.509 94.468 205.154 94.567C204.951 94.6441 204.77 94.7687 204.626 94.9301C204.483 95.0915 204.38 95.285 204.327 95.4943C204.283 95.8206 204.21 96.1425 204.11 96.4564C203.95 96.7843 203.64 96.8934 203.445 97.1812C203.312 97.4364 203.244 97.7205 203.249 98.0079C203.254 98.2953 203.331 98.577 203.472 98.8276C203.717 99.2376 204.106 99.5422 204.564 99.6824C204.893 99.7996 205.325 99.8058 205.475 99.3764Z" fill="white"/>
<path d="M213.104 101.667C213.223 101.974 213.382 102.264 213.577 102.53C213.942 102.896 214.439 102.671 214.882 102.582C215.284 102.519 215.696 102.565 216.074 102.716C216.451 102.867 216.781 103.117 217.028 103.439C216.856 102.586 216.481 101.787 215.934 101.108C215.388 100.429 214.685 99.8912 213.886 99.5387C212.842 99.1149 211.742 99.074 210.655 99.0359L210.468 99.0837C210.946 100.469 212.447 100.438 213.104 101.667Z" fill="white"/>
<path d="M180.791 104.499L180.794 104.505C180.812 104.47 180.83 104.436 180.848 104.401L180.791 104.499Z" fill="#E6E6E6"/>
<path d="M179.634 106.729C179.381 107.185 179.164 107.659 178.984 108.148C178.746 108.94 178.589 109.754 178.514 110.577C178.455 111.045 178.437 111.643 178.731 111.871C178.816 111.927 178.918 111.95 179.019 111.936C179.12 111.923 179.212 111.873 179.278 111.797C179.442 111.625 179.576 111.426 179.675 111.211C180.254 110.218 180.704 109.156 181.013 108.05C181.295 106.885 181.292 105.514 180.794 104.506C180.407 105.247 180.02 105.988 179.634 106.729Z" fill="white"/>
<path d="M168.468 47.3361C168.652 47.5149 168.884 47.6363 169.137 47.6853C169.389 47.7343 169.65 47.7088 169.888 47.6119C170.381 47.3976 170.833 47.1005 171.224 46.7336C171.548 46.4949 171.823 46.1964 172.034 45.8543C172.15 45.6499 172.225 45.4247 172.253 45.1916C172.282 44.9584 172.264 44.722 172.2 44.4959C172.017 43.9633 171.553 43.7848 171.143 43.6639C170.487 43.4704 169.831 43.2769 169.176 43.0834L169.65 42.658C169.162 42.3973 168.622 42.8811 168.317 43.48C168.121 43.871 167.985 44.2887 167.912 44.7195C167.749 45.6596 167.909 46.779 168.468 47.3361Z" fill="#E6E6E6"/>
<path d="M180.045 43.4685C180.23 43.6712 180.486 43.7964 180.76 43.8186C181.034 43.8408 181.307 43.7584 181.522 43.588C181.707 43.4495 181.861 43.2736 181.974 43.072C182.086 42.8703 182.155 42.6473 182.175 42.4175C182.221 41.9043 181.966 41.3337 181.602 41.2894L181.685 40.8088C180.984 40.6828 180.12 40.6575 179.744 41.5054C179.617 41.8303 179.578 42.1825 179.631 42.527C179.684 42.8715 179.827 43.1961 180.045 43.4685Z" fill="#E6E6E6"/>
<path d="M178.499 17.9121C174.385 17.4504 170.256 18.6337 167.019 21.2018C163.782 23.7699 161.702 27.5123 161.238 31.6059C160.272 40.1303 164.785 58.6413 173.013 66.3041C176.888 51.6228 190.464 42.9147 192.26 35.088C194.18 26.7249 187.065 18.8737 178.499 17.9121Z" fill="#D9FE51"/>
<path d="M175.654 36.8629C178.466 36.8629 180.745 34.5949 180.745 31.7972C180.745 28.9994 178.466 26.7314 175.654 26.7314C172.843 26.7314 170.563 28.9994 170.563 31.7972C170.563 34.5949 172.843 36.8629 175.654 36.8629Z" fill="white"/>
<path d="M170.301 73.608C172.143 73.608 173.635 72.1226 173.635 70.2901C173.635 68.4577 172.143 66.9722 170.301 66.9722C168.46 66.9722 166.967 68.4577 166.967 70.2901C166.967 72.1226 168.46 73.608 170.301 73.608Z" fill="#D9FE51"/>
<path opacity="0.2" d="M179.866 28.1678C180.439 28.5104 180.939 28.962 181.336 29.4968C181.734 30.0315 182.022 30.639 182.183 31.2845C182.345 31.9299 182.378 32.6008 182.279 33.2587C182.18 33.9166 181.952 34.5487 181.607 35.1189C181.263 35.6891 180.809 36.1863 180.272 36.582C179.735 36.9776 179.124 37.2641 178.475 37.425C177.165 37.75 175.779 37.5438 174.622 36.8519C175.802 37.1131 177.037 36.9479 178.106 36.3859C179.174 35.8239 180.007 34.9017 180.455 33.7845C180.903 32.6673 180.937 31.4279 180.55 30.2882C180.164 29.1485 179.382 28.1829 178.346 27.5642C178.882 27.6825 179.395 27.8863 179.866 28.1678Z" fill="#231F20"/>
<path opacity="0.2" d="M192.281 35.1045C190.485 42.9312 176.908 51.6393 173.034 66.3205C172.26 65.5929 171.541 64.8094 170.884 63.9763C175.237 50.1764 187.969 41.791 189.704 34.229C191.258 27.4609 186.894 21.0287 180.633 18.3115C188.212 20.2075 194.04 27.4405 192.281 35.1045Z" fill="#231F20"/>
<path d="M130.794 37.678C127.705 37.3313 124.604 38.2199 122.173 40.1484C119.742 42.077 118.181 44.8874 117.832 47.9616C117.107 54.3631 120.496 68.2642 126.675 74.0187C129.584 62.9936 139.78 56.4541 141.129 50.5765C142.57 44.2961 137.227 38.4001 130.794 37.678Z" fill="#D9FE51"/>
<path d="M128.658 51.9092C130.769 51.9092 132.481 50.206 132.481 48.105C132.481 46.004 130.769 44.3008 128.658 44.3008C126.547 44.3008 124.835 46.004 124.835 48.105C124.835 50.206 126.547 51.9092 128.658 51.9092Z" fill="white"/>
<path d="M124.638 79.5038C126.021 79.5038 127.142 78.3883 127.142 77.0122C127.142 75.6361 126.021 74.5205 124.638 74.5205C123.255 74.5205 122.134 75.6361 122.134 77.0122C122.134 78.3883 123.255 79.5038 124.638 79.5038Z" fill="#D9FE51"/>
<path opacity="0.2" d="M131.821 45.3796C132.251 45.6369 132.626 45.976 132.925 46.3776C133.224 46.7792 133.44 47.2353 133.561 47.7201C133.683 48.2048 133.707 48.7086 133.633 49.2026C133.558 49.6967 133.387 50.1714 133.129 50.5996C132.87 51.0278 132.529 51.4011 132.126 51.6983C131.722 51.9954 131.264 52.2106 130.777 52.3314C130.289 52.4523 129.783 52.4764 129.287 52.4026C128.79 52.3287 128.313 52.1583 127.883 51.901C128.769 52.0971 129.696 51.9731 130.499 51.551C131.301 51.129 131.927 50.4365 132.263 49.5975C132.599 48.7585 132.625 47.8278 132.335 46.9719C132.044 46.1161 131.457 45.3909 130.679 44.9263C131.082 45.0151 131.467 45.1682 131.821 45.3796Z" fill="#231F20"/>
<path opacity="0.2" d="M141.144 50.5887C139.795 56.4663 129.599 63.0058 126.69 74.0309C126.109 73.4845 125.569 72.8961 125.075 72.2705C128.345 61.9072 137.905 55.6101 139.209 49.9313C140.375 44.8486 137.098 40.0183 132.396 37.9778C138.088 39.4016 142.465 44.8333 141.144 50.5887Z" fill="#231F20"/>
<path d="M250.482 175.486H246.285L244.288 159.375L250.483 159.376L250.482 175.486Z" fill="#A0616A"/>
<path d="M252.74 183.417H249.762L249.23 180.619L247.869 183.417H239.969C239.591 183.417 239.222 183.297 238.917 183.073C238.612 182.85 238.386 182.536 238.274 182.176C238.161 181.816 238.167 181.43 238.29 181.074C238.414 180.718 238.649 180.41 238.96 180.196L245.269 175.861V173.032L251.904 173.426L252.74 183.417Z" fill="#2F2E41"/>
<path d="M234.225 175.486H230.027L228.03 159.375L234.225 159.376L234.225 175.486Z" fill="#A0616A"/>
<path d="M236.483 183.417H233.504L232.973 180.619L231.611 183.417H223.711C223.333 183.417 222.964 183.297 222.659 183.073C222.354 182.85 222.129 182.536 222.016 182.176C221.903 181.816 221.909 181.43 222.033 181.074C222.156 180.718 222.391 180.41 222.702 180.196L229.011 175.861V173.032L235.646 173.426L236.483 183.417Z" fill="#2F2E41"/>
<path d="M218.278 132.95C219.082 134.149 227.82 167.109 227.82 167.109L235.569 167.988L234.649 159.695L233.243 145.02L231.066 135.224C231.066 135.224 238.753 117.815 239.239 116.428L239.585 115.433L241.987 137.123C242.272 137.897 242.396 138.721 242.352 139.545C242.28 140.899 243.645 161.282 243.645 161.282L244.302 168.591L250.94 169.509L253.634 156.862C255.883 152.753 254.594 138.154 253.674 136.795C252.754 135.436 253.12 125.972 253.12 125.972C254.294 125.561 261.297 101.797 257.795 101.937C258.019 100.67 258.196 99.5389 258.196 99.5389L252.115 94.6591L236.898 90.7226L233.059 88.8882C233.059 88.8882 226.202 101.505 226.27 102.133C226.364 102.927 226.181 103.73 225.752 104.407L218.829 127.463C218.829 127.463 217.467 131.739 218.278 132.95Z" fill="#2F2E41"/>
<path d="M256.51 50.4468L254.089 45.332L245.849 45.6472L243.162 50.9683C243.162 50.9683 235.481 60.0973 235.232 63.0657C234.92 66.799 237.518 85.0965 234.92 83.9104C234.92 83.9104 228.793 91.0661 232.418 91.0661C236.044 91.0661 252.441 101.309 253.517 102.461C254.593 103.613 259.397 104.36 258.994 101.955C258.591 99.5503 256.51 86.5444 256.51 86.5444L262.144 66.0938C263.765 61.6785 264.269 56.7259 260.604 53.7601L256.51 50.4468Z" fill="#CCCCCC"/>
<path d="M225.989 35.3927C224.887 34.9574 223.71 34.7423 222.524 34.7598C221.339 34.7773 220.168 35.027 219.079 35.4946C217.991 35.9623 217.005 36.6387 216.179 37.4854C215.353 38.332 214.703 39.3322 214.266 40.4289C212.426 45.0412 212.121 56.0557 215.545 61.5761C219.947 53.9664 228.854 51.1565 231.051 47.059C233.398 42.6808 230.624 37.2235 225.989 35.3927Z" fill="#D9FE51"/>
<path d="M222.283 45.6434C223.909 45.6434 225.228 44.3315 225.228 42.7131C225.228 41.0947 223.909 39.7827 222.283 39.7827C220.656 39.7827 219.338 41.0947 219.338 42.7131C219.338 44.3315 220.656 45.6434 222.283 45.6434Z" fill="white"/>
<path d="M213.422 65.3103C214.487 65.3103 215.351 64.451 215.351 63.391C215.351 62.331 214.487 61.4717 213.422 61.4717C212.357 61.4717 211.493 62.331 211.493 63.391C211.493 64.451 212.357 65.3103 213.422 65.3103Z" fill="#D9FE51"/>
<path opacity="0.2" d="M225.188 41.3235C225.727 41.8847 226.021 42.6361 226.004 43.4126C225.987 44.1891 225.661 44.9271 225.097 45.4645C224.534 46.0019 223.779 46.2947 222.998 46.2786C222.218 46.2625 221.476 45.9388 220.936 45.3786C221.554 45.7027 222.269 45.797 222.951 45.6448C223.633 45.4925 224.239 45.1036 224.659 44.5476C225.08 43.9917 225.288 43.305 225.246 42.6104C225.204 41.9159 224.915 41.2588 224.431 40.7568C224.712 40.9039 224.968 41.0952 225.188 41.3235Z" fill="#231F20"/>
<path opacity="0.2" d="M231.058 47.0709C228.862 51.1683 219.955 53.9782 215.553 61.5879C215.232 61.0649 214.95 60.5189 214.71 59.9546C219.245 52.9092 227.631 50.1518 229.754 46.1929C231.653 42.6497 230.199 38.4001 227.118 35.9375C231.06 38.1408 233.21 43.0586 231.058 47.0709Z" fill="#231F20"/>
<path d="M212.553 62.7302C213.002 62.6382 213.465 62.6452 213.91 62.7506C214.356 62.8561 214.772 63.0574 215.131 63.3404C215.49 63.6234 215.782 63.9813 215.987 64.3888C216.191 64.7963 216.304 65.2434 216.316 65.6988L222.997 68.2507L222.429 72.6689L213.045 68.9333C212.275 68.9031 211.542 68.5928 210.987 68.0612C210.431 67.5296 210.091 66.8136 210.03 66.049C209.97 65.2844 210.193 64.5242 210.658 63.9125C211.123 63.3008 211.797 62.8802 212.553 62.7302Z" fill="#A0616A"/>
<path d="M259.233 53.6256C258.53 53.1982 257.749 52.9133 256.934 52.7871C256.12 52.6609 255.289 52.6959 254.488 52.8901C253.687 53.0843 252.933 53.434 252.268 53.9189C251.604 54.4038 251.042 55.0146 250.615 55.716L241.026 71.4738L219.344 66.3597L217.369 71.7559L245.134 84.8433L259.196 62.5558C261.302 59.6116 262.333 55.5084 259.233 53.6256Z" fill="#CCCCCC"/>
<path d="M259.592 34.314C259.592 35.8328 259.218 37.3285 258.502 38.6698C257.786 40.0111 256.75 41.157 255.485 42.0069C254.221 42.8568 252.765 43.3848 251.248 43.5445C249.73 43.7041 248.196 43.4905 246.78 42.9225C245.365 42.3545 244.111 41.4494 243.129 40.2867C242.147 39.124 241.467 37.7392 241.149 36.2539C240.83 34.7686 240.883 33.2281 241.302 31.7678C241.722 30.3075 242.495 28.972 243.554 27.8785L243.599 27.834C243.673 27.7561 243.748 27.6781 243.826 27.6039C243.827 27.6039 243.827 27.6038 243.828 27.6036C243.828 27.6034 243.829 27.6032 243.829 27.6028C243.829 27.6025 243.83 27.6021 243.83 27.6016C243.83 27.6011 243.83 27.6007 243.83 27.6002C243.927 27.5111 244.024 27.422 244.125 27.3367C245.472 26.1612 247.131 25.3971 248.904 25.1358C250.676 24.8745 252.487 25.1271 254.119 25.8633C255.751 26.5995 257.135 27.7881 258.106 29.2869C259.076 30.7856 259.592 32.531 259.592 34.314Z" fill="#2F2E41"/>
<path d="M247.97 44.2408C252.288 44.2408 255.789 40.7574 255.789 36.4605C255.789 32.1635 252.288 28.6802 247.97 28.6802C243.652 28.6802 240.151 32.1635 240.151 36.4605C240.151 40.7574 243.652 44.2408 247.97 44.2408Z" fill="#9E616A"/>
<path d="M256.273 38.6793L254.978 38.4516C254.254 38.3207 253.588 37.973 253.068 37.455C252.548 36.9369 252.199 36.2733 252.069 35.5528L250.805 37.6609L250.75 37.6792C247.738 38.6742 244.604 38.3766 241.172 36.7706C240.191 36.3074 239.238 35.785 238.321 35.2065L238.253 35.1644L238.248 35.0853C238.073 32.5542 238.643 30.4398 239.855 29.1314C240.321 28.6391 240.885 28.2502 241.512 27.9902C242.139 27.7302 242.814 27.6049 243.493 27.6226C243.541 27.61 243.585 27.5856 243.622 27.5516C243.639 27.5389 243.657 27.5263 243.674 27.5143V27.5012L243.764 27.4591C243.957 27.3689 244.153 27.2824 244.35 27.2035C245.897 26.6075 247.582 26.458 249.21 26.7721C250.839 27.0863 252.346 27.8513 253.557 28.9793C255.965 31.2673 257.07 35.1068 256.306 38.534L256.273 38.6793Z" fill="#2F2E41"/>
<path d="M272.764 45.3084C270.103 43.9418 273.525 38.982 272.838 36.0822C272.15 33.1823 267.198 32.2496 266.883 29.2867C266.568 26.3238 265.825 23.2679 263.861 21.0196C262.605 19.5829 260.755 18.5223 258.85 18.7023C258.206 18.7632 257.582 18.9616 257.022 19.2839C256.461 19.6063 255.977 20.0451 255.603 20.5704C255.228 21.0957 254.971 21.6952 254.851 22.328C254.73 22.9609 254.747 23.6122 254.902 24.2377C254.36 23.473 252.956 23.6388 252.609 24.5085C252.3 25.2817 252.982 26.2183 253.785 26.2867C254.836 27.5779 256.039 28.9481 257.685 29.2086C257.947 29.2685 258.22 29.2683 258.482 29.2081C258.744 29.1479 258.989 29.0292 259.199 28.8609C259.586 28.4909 259.616 27.7511 259.157 27.4745C261.225 28.2922 262.438 30.5177 262.745 32.7114C263.052 34.9051 262.627 37.1247 262.347 39.3219C262.068 41.5192 261.947 43.8306 262.813 45.8711C263.836 48.2819 266.191 50.0097 268.761 50.5639C271.331 51.118 274.068 50.5764 276.395 49.3563C278.721 48.136 280.661 46.2733 282.246 44.1849C279.516 46.1139 275.739 46.8366 272.764 45.3084Z" fill="#2F2E41"/>
<path d="M255.94 38.4632C255.94 38.4632 253.624 29.8603 243.696 27.8747C243.684 27.871 243.647 27.8561 243.599 27.8339C243.569 27.8153 243.531 27.7968 243.494 27.7782C243.606 27.7151 243.714 27.6595 243.826 27.6037L243.828 27.6035L243.829 27.6027L243.83 27.6015L243.83 27.6C243.927 27.511 244.024 27.4219 244.124 27.3365L244.408 27.3477C244.408 27.3477 254.37 25.7778 255.94 38.4632Z" fill="#FD6584"/>
<path opacity="0.2" d="M250.755 66.0676L245.147 72.5323L235.882 69.8097L245.983 74.4416L250.755 66.0676Z" fill="black"/>
<path d="M284.412 183.904L198.198 184C198.1 184 198.005 183.961 197.936 183.891C197.866 183.822 197.827 183.728 197.827 183.63C197.827 183.532 197.866 183.438 197.936 183.368C198.005 183.299 198.1 183.259 198.198 183.259L284.412 183.164C284.51 183.164 284.605 183.203 284.675 183.272C284.745 183.342 284.784 183.436 284.784 183.534C284.784 183.632 284.745 183.726 284.675 183.796C284.605 183.865 284.51 183.904 284.412 183.904Z" fill="#CACACA"/>
<path d="M288.196 126.335C284.159 126.335 279.735 126.184 274.922 125.88C250.031 124.307 217.789 118.839 184.136 110.482C150.483 102.126 119.439 91.8794 96.7236 81.6311C85.6581 76.6386 77.1654 71.913 71.4816 67.585C65.464 63.0032 62.8318 59.0094 63.6579 55.715C65.2674 49.297 79.519 47.8929 91.1911 47.8452L91.1951 48.7786C75.1661 48.844 65.7098 51.3878 64.5681 55.9411C63.1136 61.7403 74.9751 70.794 97.1109 80.781C119.777 91.0068 150.763 101.234 184.363 109.577C217.963 117.92 250.145 123.379 274.982 124.949C299.237 126.482 313.983 124.035 315.437 118.235C316.645 113.42 308.685 106.327 293.023 98.2621L293.455 97.4333C304.834 103.293 318.043 111.698 316.347 118.461C315.521 121.756 311.312 124.05 303.837 125.282C299.575 125.984 294.341 126.335 288.196 126.335Z" fill="#D9FE51"/>
</svg>
