<svg width="375" height="184" viewBox="0 0 375 184" fill="none" xmlns="http://www.w3.org/2000/svg">
<path d="M135.472 140.301C133.601 140.295 131.739 140.054 129.928 139.583L129.571 139.484L129.24 139.318C117.272 133.306 107.175 125.366 99.2294 115.717C92.6523 107.683 87.5245 98.5614 84.0766 88.762C79.9534 77.0297 77.9697 64.6503 78.2203 52.2147C78.2254 51.9537 78.2296 51.7521 78.2296 51.6133C78.2296 45.5682 81.5791 40.2641 86.7627 38.1004C90.73 36.4444 126.751 21.6224 129.354 20.5515C134.255 18.0912 139.484 20.1447 140.321 20.5038C142.198 21.2726 175.497 34.9169 182.693 38.3496C190.109 41.8875 192.088 48.2431 192.088 51.4407C192.088 65.9173 189.585 79.4469 184.649 91.6536C180.663 101.534 175.013 110.656 167.946 118.621C154.311 133.993 140.672 139.442 140.54 139.491C138.91 140.052 137.195 140.327 135.472 140.301ZM132.264 132.342C133.447 132.608 136.169 133.006 137.944 132.358C140.198 131.534 151.613 125.604 162.281 113.577C177.02 96.9614 184.498 76.0735 184.509 51.4941C184.483 50.9961 184.13 47.4445 179.435 45.2049C172.378 41.8386 137.766 27.6604 137.418 27.5175L137.322 27.4769C136.597 27.1724 134.288 26.531 132.697 27.3664L132.378 27.5152C131.993 27.6739 93.7558 43.4068 89.6778 45.109C86.8251 46.2998 85.8087 49.2497 85.8087 51.6133C85.8087 51.786 85.8043 52.0373 85.798 52.362C85.472 69.1802 89.3569 110.564 132.264 132.342Z" fill="#3F3D56"/>
<path d="M130.939 24.0033C130.939 24.0033 92.3542 39.879 88.2201 41.6046C84.0861 43.3302 82.0191 47.4717 82.0191 51.6131C82.0191 55.7546 78.9185 109.795 130.939 135.924C130.939 135.924 135.66 137.233 139.242 135.924C142.824 134.615 188.298 112.527 188.298 51.4406C188.298 51.4406 188.298 45.2284 181.064 41.7771C173.829 38.3259 138.851 24.0033 138.851 24.0033C138.851 24.0033 134.556 22.1051 130.939 24.0033Z" fill="#D9FE51"/>
<path opacity="0.1" d="M135.072 36.4277V121.119C135.072 121.119 96.1436 102.346 96.4881 52.9936L135.072 36.4277Z" fill="black"/>
<path d="M135.581 97.2965L123.18 81.3231L130.391 75.7041L136.263 83.2672L156.099 62.29L162.732 68.5859L135.581 97.2965Z" fill="white"/>
<path d="M296.503 170.36H183.19C183.111 170.36 183.035 170.328 182.98 170.272C182.924 170.216 182.893 170.141 182.893 170.062C182.893 169.983 182.924 169.907 182.98 169.851C183.035 169.795 183.111 169.764 183.19 169.764H296.503C296.582 169.764 296.658 169.795 296.714 169.851C296.769 169.907 296.801 169.983 296.801 170.062C296.801 170.141 296.769 170.216 296.714 170.272C296.658 170.328 296.582 170.36 296.503 170.36Z" fill="#CACACA"/>
<path d="M215.945 165.663L220.545 165.663L222.733 147.89L215.944 147.89L215.945 165.663Z" fill="#FFB8B8"/>
<path d="M214.772 164.159L223.83 164.158H223.831C225.362 164.158 226.83 164.768 227.913 165.852C228.995 166.937 229.603 168.407 229.603 169.941V170.129L214.772 170.13L214.772 164.159Z" fill="#2F2E41"/>
<path d="M231.411 165.663L236.01 165.663L238.198 147.89L231.41 147.89L231.411 165.663Z" fill="#FFB8B8"/>
<path d="M230.237 164.159L239.296 164.158H239.296C240.827 164.158 242.295 164.768 243.378 165.852C244.46 166.937 245.069 168.407 245.069 169.941V170.129L230.238 170.13L230.237 164.159Z" fill="#2F2E41"/>
<path d="M223.175 103.247L224.278 159.633L215.352 159.079L209.16 123.164L207.205 98.6763L223.175 103.247Z" fill="#2F2E41"/>
<path d="M238.493 93.7791L239.744 160.527L229.334 160.23L227.086 120.552L223.175 106.186L207.205 98.6766L209.812 80.7191L233.278 80.3926L238.493 93.7791Z" fill="#2F2E41"/>
<path d="M220.546 34.0295C224.955 34.0295 228.528 30.4494 228.528 26.0332C228.528 21.6169 224.955 18.0369 220.546 18.0369C216.138 18.0369 212.564 21.6169 212.564 26.0332C212.564 30.4494 216.138 34.0295 220.546 34.0295Z" fill="#FFB8B8"/>
<path d="M227.167 37.3979L228.389 39.2536L231.649 48.3954L229.041 83.9838L213.723 84.3106L211.768 43.4978L215.864 38.3684L227.167 37.3979Z" fill="#CCCCCC"/>
<path d="M205.575 44.4774L202.968 44.1509C202.968 44.1509 202.316 44.4774 201.99 46.7629C201.664 49.0484 197.753 69.2914 197.753 69.2914L202.968 94.1054L208.834 86.2694L205.249 72.5564L208.834 58.8434L205.575 44.4774Z" fill="#2F2E41"/>
<path d="M238.819 44.1514H240.774L245.663 70.5976L241.1 91.1671L236.537 83.6577L237.841 75.4952L237.189 68.3123L234.908 64.0675L238.819 44.1514Z" fill="#2F2E41"/>
<path d="M225.263 26.0331L223.811 25.6696C223.811 25.6696 222.723 19.4906 220.183 20.2176C217.643 20.9445 211.113 21.6714 211.113 18.7637C211.113 15.8559 217.281 13.3116 220.909 13.6751C224.537 14.0386 229.171 15.2444 230.342 20.581C232.22 29.1359 226.468 31.2968 226.468 31.2968L226.564 30.9853C226.829 30.1204 226.848 29.1983 226.619 28.3232C226.389 27.4481 225.919 26.6548 225.263 26.0331Z" fill="#2F2E41"/>
<path d="M203.294 44.1511L213.723 39.9066L216.168 38.1109L223.501 70.5976L226.923 37.1313L240.448 44.1511L235.885 66.3531L235.234 74.8421L237.189 81.6986C237.189 81.6986 244.033 86.5961 241.752 91.8201C239.47 97.0441 236.863 97.3706 236.863 97.3706C236.863 97.3706 225.782 86.9226 225.13 84.3106C224.478 81.6986 223.501 77.1276 223.501 77.1276C223.501 77.1276 217.96 98.0236 211.442 97.6971C204.924 97.3706 204.924 90.5141 204.924 90.5141L206.553 83.3311L209.16 75.8216L207.857 63.4146L203.294 44.1511Z" fill="#2F2E41"/>
</svg>
