<svg width="48" height="48" viewBox="0 0 48 48" fill="none" xmlns="http://www.w3.org/2000/svg">
<path opacity="0.1" fill-rule="evenodd" clip-rule="evenodd" d="M24 48C37.2548 48 48 37.2548 48 24C48 10.7452 37.2548 0 24 0C10.7452 0 0 10.7452 0 24C0 37.2548 10.7452 48 24 48Z" fill="#8B8D94"/>
<mask id="mask0_1683_3995" style="mask-type:luminance" maskUnits="userSpaceOnUse" x="0" y="0" width="48" height="48">
<path fill-rule="evenodd" clip-rule="evenodd" d="M23.8889 47.7778C37.0824 47.7778 47.7778 37.0824 47.7778 23.8889C47.7778 10.6954 37.0824 0 23.8889 0C10.6954 0 0 10.6954 0 23.8889C0 37.0824 10.6954 47.7778 23.8889 47.7778Z" fill="white"/>
</mask>
<g mask="url(#mask0_1683_3995)">
<path opacity="0.3" fill-rule="evenodd" clip-rule="evenodd" d="M32.1666 19.6585C32.1666 15.1567 28.5618 11.5104 24.1111 11.5104C19.6604 11.5104 16.0555 15.1567 16.0555 19.6585C16.0555 24.1604 19.6604 27.8067 24.1111 27.8067C28.5618 27.8067 32.1666 24.1604 32.1666 19.6585ZM8 40.5779V48.177H40.2222V40.5779C40.2222 34.9952 32.1667 30.3993 24.1111 30.3993C16.0556 30.3993 8 34.9952 8 40.5779Z" fill="#8B8D94"/>
</g>
</svg>
