<svg width="123" height="31" viewBox="0 0 123 31" fill="none" xmlns="http://www.w3.org/2000/svg">
<g clip-path="url(#clip0_3478_25379)">
<path d="M122.912 15.7075L118.659 20.3681L123 26.7905H118.923L116.358 22.8881L115.284 24.0699V26.7905H111.951V10.6455H115.284V19.4316L118.594 15.7075H122.912Z" fill="white"/>
<path d="M102.904 20.4349V26.7903H99.5713V15.7073H102.794V16.9785C103.386 15.9303 104.723 15.4175 105.841 15.4175C108.582 15.4175 109.809 17.4021 109.809 19.8328V26.7903H106.477V20.4126C106.477 19.3199 105.907 18.4948 104.702 18.4948C103.605 18.4948 102.904 19.3199 102.904 20.4349Z" fill="white"/>
<path d="M97.3096 26.7907H93.9777V15.7077H97.3096V26.7907ZM93.6929 12.3181C93.6929 11.2255 94.5698 10.3335 95.622 10.3335C96.7182 10.3335 97.5951 11.2255 97.5951 12.3181C97.5951 13.4108 96.7182 14.3029 95.622 14.3029C94.5698 14.3029 93.6929 13.4108 93.6929 12.3181Z" fill="white"/>
<path d="M91.6948 26.7905H88.3623V10.6455H91.6948V26.7905Z" fill="white"/>
<path d="M79.3147 20.279V26.7905H75.9829V10.6455H79.3147V16.4211C79.9948 15.7298 81.1343 15.4176 82.0991 15.4176C84.9492 15.4176 86.2206 17.4023 86.2206 19.833V26.7905H82.8881V20.4128C82.8881 19.3201 82.3184 18.495 81.1126 18.495C80.0604 18.495 79.3804 19.2532 79.3147 20.279Z" fill="white"/>
<path d="M69.372 18.495C67.9909 18.495 66.8725 19.4762 66.8725 21.2602C66.8725 23.0218 68.0349 24.0031 69.416 24.0031C70.7091 24.0031 71.4324 23.1779 71.6739 22.3529L74.6113 23.2671C74.1288 25.2072 72.3316 27.125 69.416 27.125C66.1714 27.125 63.5625 24.6944 63.5625 21.2602C63.5625 17.8037 66.1058 15.373 69.3063 15.373C72.3093 15.373 74.0632 17.2462 74.5456 19.2309L71.5643 20.1452C71.3228 19.2978 70.6651 18.495 69.372 18.495Z" fill="white"/>
<path d="M55.3044 20.4349V26.7903H51.9722V15.7073H55.1948V16.9785C55.7866 15.9303 57.1239 15.4175 58.2419 15.4175C60.9822 15.4175 62.2099 17.4021 62.2099 19.8328V26.7903H58.8777V20.4126C58.8777 19.3199 58.3077 18.4948 57.102 18.4948C56.0059 18.4948 55.3044 19.3199 55.3044 20.4349Z" fill="white"/>
<path d="M42.9055 19.9222H47.268C47.2241 19.0748 46.6542 18.049 45.0758 18.049C43.6728 18.049 42.9713 19.0971 42.9055 19.9222ZM47.5092 22.7988L50.2933 23.6017C49.7672 25.5194 48.0353 27.125 45.2731 27.125C42.2697 27.125 39.5952 24.9396 39.5952 21.2156C39.5952 17.6476 42.204 15.373 45.0319 15.373C48.408 15.373 50.4906 17.4915 50.4906 21.0595C50.4906 21.5278 50.4467 22.0407 50.4248 22.1075H42.8397C42.9055 23.3563 44.0235 24.2483 45.3169 24.2483C46.5227 24.2483 47.2023 23.6685 47.5092 22.7988Z" fill="white"/>
<path d="M30.6269 26.7905H27.4043V10.6455H30.6707V16.7556C31.1311 16.0643 32.3368 15.4399 33.8275 15.4399C36.9843 15.4399 38.8916 17.8929 38.8916 21.2155C38.8916 24.6051 36.7432 27.0358 33.696 27.0358C32.2491 27.0358 31.1311 26.3891 30.6269 25.5417V26.7905ZM35.5594 21.2379C35.5594 19.3647 34.3975 18.495 33.1041 18.495C31.8107 18.495 30.6269 19.3647 30.6269 21.2379C30.6269 23.0664 31.8107 24.003 33.1041 24.003C34.3975 24.003 35.5594 23.0887 35.5594 21.2379Z" fill="white"/>
<path fill-rule="evenodd" clip-rule="evenodd" d="M7.64767 7.75H15.542C19.6295 7.75 22.943 11.1079 22.943 15.25V23.5C22.943 27.6421 19.6295 31 15.542 31H0V15.5H7.64767V23.25H15.2953V15.5H7.64767V7.75Z" fill="white"/>
<path d="M7.64767 0H0V7.75H7.64767V0Z" fill="#D9FE51"/>
</g>
<defs>
<clipPath id="clip0_3478_25379">
<rect width="123" height="31" fill="white"/>
</clipPath>
</defs>
</svg>
