<svg width="48" height="48" viewBox="0 0 48 48" fill="current" xmlns="http://www.w3.org/2000/svg">
<path d="M36.46 6.15V4.5C36.46 3.67 35.79 3 34.96 3C34.13 3 33.46 3.67 33.46 4.5V6H15.2V4.5C15.2 3.67 14.53 3 13.7 3C12.87 3 12.2 3.67 12.2 4.5V6.05C7.88 6.49 4.5 10.15 4.5 14.59V15.09H43.5V14.59C43.5 10.38 40.46 6.88 36.46 6.15Z" fill="current"/>
<path fill-rule="evenodd" clip-rule="evenodd" d="M4.5 36.41C4.5 41.15 8.35 45 13.09 45H34.91C39.65 45 43.5 41.15 43.5 36.41V17.77H4.5V36.41ZM16 29C17.1046 29 18 28.1046 18 27C18 25.8954 17.1046 25 16 25C14.8954 25 14 25.8954 14 27C14 28.1046 14.8954 29 16 29ZM26 27C26 28.1046 25.1046 29 24 29C22.8954 29 22 28.1046 22 27C22 25.8954 22.8954 25 24 25C25.1046 25 26 25.8954 26 27ZM32 29C33.1046 29 34 28.1046 34 27C34 25.8954 33.1046 25 32 25C30.8954 25 30 25.8954 30 27C30 28.1046 30.8954 29 32 29Z" fill="current"/>
</svg>
