<svg width="87" height="90" viewBox="0 0 87 90" fill="none" xmlns="http://www.w3.org/2000/svg">
<path d="M33.7675 90.0002C52.1407 90.0002 67.0352 87.3686 67.0352 84.1224C67.0352 80.8762 52.1407 78.2446 33.7675 78.2446C15.3942 78.2446 0.499756 80.8762 0.499756 84.1224C0.499756 87.3686 15.3942 90.0002 33.7675 90.0002Z" fill="#3F3D56"/>
<path d="M53.9872 65.033C71.9436 65.033 86.5001 50.4748 86.5001 32.5165C86.5001 14.5581 71.9436 0 53.9872 0C36.0309 0 21.4744 14.5581 21.4744 32.5165C21.4744 50.4748 36.0309 65.033 53.9872 65.033Z" fill="#3F3D56"/>
<path opacity="0.05" d="M53.9866 59.3596C68.8102 59.3596 80.827 47.3414 80.827 32.5162C80.827 17.691 68.8102 5.67285 53.9866 5.67285C39.1631 5.67285 27.1462 17.691 27.1462 32.5162C27.1462 47.3414 39.1631 59.3596 53.9866 59.3596Z" fill="black"/>
<path opacity="0.05" d="M53.9871 54.5171C66.1363 54.5171 75.9851 44.6672 75.9851 32.5166C75.9851 20.3661 66.1363 10.5161 53.9871 10.5161C41.8379 10.5161 31.989 20.3661 31.989 32.5166C31.989 44.6672 41.8379 54.5171 53.9871 54.5171Z" fill="black"/>
<path opacity="0.05" d="M53.9868 48.2906C62.6975 48.2906 69.759 41.2283 69.759 32.5166C69.759 23.8049 62.6975 16.7427 53.9868 16.7427C45.2761 16.7427 38.2146 23.8049 38.2146 32.5166C38.2146 41.2283 45.2761 48.2906 53.9868 48.2906Z" fill="black"/>
<path d="M21.7617 35.4263C21.7617 35.4263 19.2055 42.6222 20.3416 45.1786C21.4777 47.7351 23.2764 50.1969 23.2764 50.1969C23.2764 50.1969 22.6137 35.8997 21.7617 35.4263Z" fill="#D0CDE1"/>
<path opacity="0.1" d="M21.7617 35.4263C21.7617 35.4263 19.2055 42.6222 20.3416 45.1786C21.4777 47.7351 23.2764 50.1969 23.2764 50.1969C23.2764 50.1969 22.6137 35.8997 21.7617 35.4263Z" fill="black"/>
<path d="M23.5607 52.0907C23.5607 52.0907 23.3713 53.8897 23.2767 53.9844C23.182 54.0791 23.3713 54.2684 23.2767 54.5525C23.182 54.8365 23.0873 55.2153 23.2767 55.31C23.466 55.4046 22.2353 63.7368 22.2353 63.7368C22.2353 63.7368 19.2057 67.7135 20.4365 73.9625L20.8152 80.3063C20.8152 80.3063 23.75 80.4957 23.75 79.4542C23.75 79.4542 23.5607 78.2233 23.5607 77.6552C23.5607 77.0871 24.034 77.0871 23.75 76.803C23.466 76.519 23.466 76.3296 23.466 76.3296C23.466 76.3296 23.9394 75.9509 23.8447 75.8562C23.75 75.7615 24.6967 69.039 24.6967 69.039C24.6967 69.039 25.7381 67.9975 25.7381 67.4294V66.8613C25.7381 66.8613 26.2115 65.6304 26.2115 65.5357C26.2115 65.4411 28.7677 59.6654 28.7677 59.6654L29.8091 63.8314L30.9451 69.7965C30.9451 69.7965 31.5132 75.1934 32.6492 77.2765C32.6492 77.2765 34.6374 84.0937 34.6374 83.9043C34.6374 83.7149 37.9509 83.2415 37.8562 82.3894C37.7616 81.5372 35.8681 69.6071 35.8681 69.6071L36.3415 51.9014L23.5607 52.0907Z" fill="#2F2E41"/>
<path d="M21.005 79.833C21.005 79.833 18.4488 84.8512 20.1529 85.0406C21.857 85.2299 22.5197 85.2299 23.2771 84.4725C23.6912 84.0583 24.5297 83.5027 25.2048 83.0841C25.6048 82.8401 25.9279 82.4882 26.1372 82.0689C26.3464 81.6496 26.4332 81.1798 26.3876 80.7134C26.3377 80.2502 26.1646 79.8685 25.7386 79.833C24.6025 79.7383 23.2771 78.6968 23.2771 78.6968L21.005 79.833Z" fill="#2F2E41"/>
<path d="M35.1104 83.5254C35.1104 83.5254 32.5543 88.5436 34.2584 88.7329C35.9625 88.9223 36.6252 88.9223 37.3826 88.1648C37.7967 87.7507 38.6352 87.1951 39.3103 86.7765C39.7103 86.5325 40.0334 86.1806 40.2426 85.7613C40.4518 85.342 40.5387 84.8722 40.4931 84.4058C40.4432 83.9426 40.2701 83.5609 39.8441 83.5254C38.708 83.4307 37.3826 82.3892 37.3826 82.3892L35.1104 83.5254Z" fill="#2F2E41"/>
<path d="M32.4091 27.2142C34.607 27.2142 36.3888 25.4322 36.3888 23.234C36.3888 21.0359 34.607 19.2539 32.4091 19.2539C30.2112 19.2539 28.4294 21.0359 28.4294 23.234C28.4294 25.4322 30.2112 27.2142 32.4091 27.2142Z" fill="#FFB8B8"/>
<path d="M29.8513 24.542C29.8513 24.542 27.0086 29.773 26.7812 29.773C26.5538 29.773 31.898 31.4788 31.898 31.4788C31.898 31.4788 33.3761 26.4752 33.6035 26.0203L29.8513 24.542Z" fill="#FFB8B8"/>
<path d="M34.2114 30.2663C34.2114 30.2663 28.531 27.1418 27.963 27.2365C27.3949 27.3312 21.3359 32.6334 21.4305 34.8111C21.5252 36.9889 22.2826 40.5868 22.2826 40.5868C22.2826 40.5868 22.5666 50.6232 23.1346 50.7179C23.7027 50.8126 23.04 52.5169 23.2293 52.5169C23.4187 52.5169 36.4835 52.5169 36.5782 52.2329C36.6728 51.9488 34.2114 30.2663 34.2114 30.2663Z" fill="#D0CDE1"/>
<path d="M37.3834 52.7534C37.3834 52.7534 39.1822 58.245 37.6675 58.0557C36.1527 57.8663 35.49 53.3215 35.49 53.3215L37.3834 52.7534Z" fill="#FFB8B8"/>
<path d="M32.5545 29.935C32.5545 29.935 29.0516 30.6924 29.6197 35.4266C30.1877 40.1608 31.2291 44.8949 31.2291 44.8949L34.732 52.5643L35.1107 53.9845L37.6669 53.3217L35.7734 42.3385C35.7734 42.3385 35.1107 30.5978 34.2586 30.219C33.7213 29.9899 33.1371 29.8926 32.5545 29.935Z" fill="#D0CDE1"/>
<path opacity="0.1" d="M30.4246 44.7526L34.7796 52.5166L31.1104 44.3354L30.4246 44.7526Z" fill="black"/>
<path d="M36.3717 22.062L36.3849 21.7579L36.9898 21.9085C36.9834 21.8108 36.9558 21.7158 36.909 21.6298C36.8622 21.5439 36.7973 21.4692 36.7188 21.4107L37.3632 21.3747C36.8224 20.6062 36.1316 19.9553 35.3323 19.4613C34.533 18.9673 33.6419 18.6404 32.7128 18.5004C31.3189 18.2983 29.7668 18.5907 28.811 19.6253C28.3474 20.1271 28.0561 20.7653 27.8489 21.4163C27.4672 22.6154 27.3894 24.0448 28.1853 25.0195C28.9941 26.0101 30.4069 26.2042 31.6798 26.3268C32.1277 26.3699 32.5971 26.41 33.0121 26.2362C33.0583 25.7601 32.9974 25.2797 32.8337 24.8302C32.7656 24.6911 32.7331 24.5372 32.739 24.3824C32.7956 24.0037 33.3007 23.9082 33.6801 23.9594C34.0596 24.0106 34.5159 24.0889 34.7652 23.7983C34.9369 23.5981 34.9268 23.3066 34.9496 23.0438C35.0115 22.3283 36.3652 22.212 36.3717 22.062Z" fill="#2F2E41"/>
<path d="M60.7803 84.9313C63.3412 84.9313 65.4173 82.855 65.4173 80.2938C65.4173 77.7325 63.3412 75.6562 60.7803 75.6562C58.2194 75.6562 56.1433 77.7325 56.1433 80.2938C56.1433 82.855 58.2194 84.9313 60.7803 84.9313Z" fill="#D9FE51"/>
<path d="M6.32327 83.3136C8.88421 83.3136 10.9603 81.2373 10.9603 78.6761C10.9603 76.1149 8.88421 74.0386 6.32327 74.0386C3.76233 74.0386 1.68628 76.1149 1.68628 78.6761C1.68628 81.2373 3.76233 83.3136 6.32327 83.3136Z" fill="#D9FE51"/>
<path d="M6.32317 75.8717C8.16943 75.8717 9.66612 74.3748 9.66612 72.5284C9.66612 70.6819 8.16943 69.1851 6.32317 69.1851C4.47691 69.1851 2.98022 70.6819 2.98022 72.5284C2.98022 74.3748 4.47691 75.8717 6.32317 75.8717Z" fill="#D9FE51"/>
<path d="M6.32334 69.7244C7.63359 69.7244 8.69576 68.6621 8.69576 67.3517C8.69576 66.0413 7.63359 64.979 6.32334 64.979C5.01309 64.979 3.95093 66.0413 3.95093 67.3517C3.95093 68.6621 5.01309 69.7244 6.32334 69.7244Z" fill="#D9FE51"/>
</svg>
