<svg width="20" height="21" viewBox="0 0 20 21" fill="none" xmlns="http://www.w3.org/2000/svg">
<path d="M17.3522 10.4979L18.2855 8.94791C18.548 8.51041 18.398 7.94375 17.948 7.69375L16.3647 6.81875L16.398 5.01041C16.4064 4.50208 15.9897 4.08541 15.4814 4.09375L13.673 4.12708L12.798 2.54375C12.5522 2.09791 11.9814 1.94375 11.5439 2.20625L9.99387 3.13958L8.44804 2.21041C8.01054 1.94791 7.44387 2.09791 7.19387 2.54791L6.31887 4.13125L4.51054 4.09791C4.0022 4.08958 3.58554 4.50625 3.59387 5.01458L3.6272 6.82291L2.04387 7.69791C1.59804 7.94375 1.44387 8.51458 1.70637 8.95208L2.6397 10.5021L1.71054 12.0479C1.44804 12.4854 1.59804 13.0521 2.04804 13.3021L3.63137 14.1771L3.59804 15.9854C3.5897 16.4937 4.00637 16.9104 4.5147 16.9021L6.32304 16.8687L7.19804 18.4521C7.44387 18.8979 8.0147 19.0521 8.4522 18.7896L10.0022 17.8562L11.5522 18.7896C11.9897 19.0521 12.5564 18.9021 12.8064 18.4521L13.6814 16.8687L15.4897 16.9021C15.998 16.9104 16.4147 16.4937 16.4064 15.9854L16.373 14.1771L17.9564 13.3021C18.4022 13.0562 18.5564 12.4854 18.2939 12.0479L17.3605 10.4979H17.3522ZM13.4897 8.83958L9.4897 13.0062C9.37304 13.1271 9.2147 13.1979 9.04387 13.1979H9.0397C8.87304 13.1979 8.7147 13.1312 8.59804 13.0146L6.5147 10.9312C6.26887 10.6854 6.26887 10.2896 6.5147 10.0479C6.76054 9.80208 7.15637 9.80208 7.39804 10.0479L9.03137 11.6812L12.5897 7.97291C12.8272 7.72291 13.223 7.71458 13.473 7.95625C13.723 8.19375 13.7314 8.58958 13.4897 8.83958Z" fill="#3269FF"/>
</svg>
