<svg width="48" height="48" viewBox="0 0 48 48" fill="current" xmlns="http://www.w3.org/2000/svg">
<path d="M24 4C12.9744 4 4 12.9744 4 24C4 35.0256 12.9744 44 24 44C35.0256 44 44 35.0256 44 24C44 12.9744 35.0256 4 24 4ZM34.4103 17.2923L21.4872 32.6769C21.3436 32.841 21.1692 32.9846 20.9744 33.0769C20.7795 33.1692 20.5538 33.2205 20.3385 33.2205H20.3077C20.0923 33.2205 19.8769 33.1795 19.6821 33.0872C19.4872 32.9949 19.3128 32.8718 19.1692 32.7077L13.6308 26.5538C13.4872 26.4103 13.3846 26.2256 13.3128 26.041C13.241 25.8462 13.2103 25.641 13.2205 25.4359C13.2205 25.2308 13.2821 25.0256 13.3641 24.841C13.4462 24.6564 13.5795 24.4923 13.7231 24.3487C13.8769 24.2154 14.0513 24.1026 14.2462 24.041C14.441 23.9692 14.6462 23.9487 14.8513 23.959C15.0564 23.9692 15.2615 24.0308 15.4359 24.1128C15.6205 24.2051 15.7846 24.3282 15.9179 24.4923L20.2769 29.3333L32.0615 15.3026C32.3282 14.9949 32.6974 14.8103 33.0974 14.7795C33.4974 14.7487 33.8974 14.8718 34.2051 15.1385C34.5128 15.3949 34.7077 15.7744 34.7487 16.1744C34.7897 16.5744 34.6667 16.9744 34.4103 17.2923Z" fill="current"/>
</svg>
