<svg width="77" height="78" viewBox="0 0 77 78" fill="none" xmlns="http://www.w3.org/2000/svg">
<path d="M37.6953 6.5C20.4505 6.5 6.41406 20.7188 6.41406 38.1875C6.41406 55.6563 20.4505 69.875 37.6953 69.875C54.9401 69.875 68.9766 55.6563 68.9766 38.1875C68.9766 20.7188 54.9401 6.5 37.6953 6.5ZM53.9776 27.56L33.7651 51.935C33.5405 52.195 33.2678 52.4225 32.963 52.5688C32.6582 52.715 32.3053 52.7963 31.9684 52.7963H31.9203C31.5834 52.7963 31.2466 52.7313 30.9418 52.585C30.637 52.4388 30.3643 52.2438 30.1397 51.9838L21.4772 42.2338C21.2526 42.0063 21.0922 41.7138 20.9799 41.4213C20.8676 41.1125 20.8195 40.7875 20.8355 40.4625C20.8355 40.1375 20.9318 39.8125 21.0601 39.52C21.1884 39.2275 21.397 38.9675 21.6216 38.74C21.8622 38.5288 22.1349 38.35 22.4397 38.2525C22.7445 38.1388 23.0653 38.1063 23.3861 38.1225C23.707 38.1388 24.0278 38.2363 24.3005 38.3663C24.5893 38.5125 24.8459 38.7075 25.0545 38.9675L31.8722 46.6375L50.3041 24.4075C50.7211 23.92 51.2986 23.6275 51.9243 23.5788C52.5499 23.53 53.1755 23.725 53.6568 24.1475C54.138 24.5538 54.4428 25.155 54.507 25.7888C54.5711 26.4225 54.3786 27.0563 53.9776 27.56V27.56Z" fill="#3269FF"/>
</svg>
