<svg width="24" height="24" viewBox="0 0 24 24" fill="none" xmlns="http://www.w3.org/2000/svg">
<path fill-rule="evenodd" clip-rule="evenodd" d="M18 1.6H6C3.56995 1.6 1.6 3.56995 1.6 6V18C1.6 20.4301 3.56995 22.4 6 22.4H18C20.4301 22.4 22.4 20.4301 22.4 18V6C22.4 3.56995 20.4301 1.6 18 1.6ZM6 0C2.68629 0 0 2.68629 0 6V18C0 21.3137 2.68629 24 6 24H18C21.3137 24 24 21.3137 24 18V6C24 2.68629 21.3137 0 18 0H6Z" fill="#C3C5C9"/>
<path d="M10.0055 16.6613C9.83887 16.6613 9.6722 16.5947 9.53887 16.4613L6.53887 13.4613C6.2722 13.1947 6.2722 12.7947 6.53887 12.528C6.80553 12.2613 7.20553 12.2613 7.4722 12.528L9.9722 15.028L16.5055 7.56133C16.7389 7.29466 17.1722 7.26133 17.4389 7.49466C17.7055 7.72799 17.7389 8.16133 17.5055 8.42799L10.5055 16.428C10.3722 16.5613 10.2055 16.6613 10.0055 16.6613Z" fill="#DCDFE3"/>
</svg>
