<svg width="63" height="64" viewBox="0 0 63 64" fill="none" xmlns="http://www.w3.org/2000/svg">
<path d="M31.6978 0.5C14.453 0.5 0.416504 14.7188 0.416504 32.1875C0.416504 49.6563 14.453 63.875 31.6978 63.875C48.9425 63.875 62.979 49.6563 62.979 32.1875C62.979 14.7188 48.9425 0.5 31.6978 0.5ZM47.98 21.56L27.7675 45.935C27.543 46.195 27.2703 46.4225 26.9655 46.5688C26.6607 46.715 26.3078 46.7963 25.9709 46.7963H25.9228C25.5859 46.7963 25.249 46.7313 24.9442 46.585C24.6394 46.4388 24.3667 46.2438 24.1421 45.9838L15.4796 36.2338C15.255 36.0063 15.0946 35.7138 14.9823 35.4213C14.87 35.1125 14.8219 34.7875 14.838 34.4625C14.838 34.1375 14.9342 33.8125 15.0625 33.52C15.1909 33.2275 15.3994 32.9675 15.624 32.74C15.8646 32.5288 16.1373 32.35 16.4421 32.2525C16.7469 32.1388 17.0678 32.1063 17.3886 32.1225C17.7094 32.1388 18.0303 32.2363 18.303 32.3663C18.5917 32.5125 18.8484 32.7075 19.0569 32.9675L25.8746 40.6375L44.3065 18.4075C44.7236 17.92 45.3011 17.6275 45.9267 17.5788C46.5523 17.53 47.178 17.725 47.6592 18.1475C48.1405 18.5538 48.4453 19.155 48.5094 19.7888C48.5736 20.4225 48.3811 21.0563 47.98 21.56Z" fill="#005AE0"/>
</svg>
