<svg width="16" height="16" viewBox="0 0 16 16" fill="none" xmlns="http://www.w3.org/2000/svg">
<path d="M7.99992 1.33325C4.31992 1.33325 1.33325 4.31992 1.33325 7.99992C1.33325 11.6799 4.31992 14.6666 7.99992 14.6666C11.6799 14.6666 14.6666 11.6799 14.6666 7.99992C14.6666 4.31992 11.6799 1.33325 7.99992 1.33325ZM10.4199 10.4266C10.3066 10.5333 10.1533 10.5933 10.0066 10.5933C9.84659 10.5933 9.68659 10.5333 9.57325 10.4066L7.56659 8.27992C7.45992 8.16659 7.39992 8.01992 7.39992 7.86659V4.66659C7.39992 4.33325 7.66659 4.06659 7.99992 4.06659C8.33325 4.06659 8.59992 4.33325 8.59992 4.66659V7.62659L10.4466 9.57992C10.6733 9.81992 10.6666 10.1999 10.4199 10.4266Z" fill="#CDCDCD"/>
</svg>
