<svg width="48" height="48" viewBox="0 0 48 48" fill="current" xmlns="http://www.w3.org/2000/svg">
<path d="M21.4462 24.0026L11.1681 34.2907C10.4681 34.9907 10.4632 36.1356 11.1632 36.8456C11.8632 37.5456 13.0081 37.5407 13.7181 36.8407L23.9962 26.5526L34.2881 36.8345C34.9881 37.5445 36.1238 37.5402 36.8238 36.8302C37.5338 36.1302 37.538 34.9945 36.828 34.2945L26.5462 24.0026L36.8234 13.7154C37.5234 13.0154 37.5282 11.8706 36.8282 11.1606C36.4782 10.8106 36.0135 10.6353 35.5535 10.6353C35.0935 10.6353 34.6355 10.8134 34.2855 11.1634L23.9962 21.4526L13.7036 11.16C13.3536 10.81 12.8955 10.632 12.4355 10.632C11.9755 10.632 11.5178 10.8143 11.1678 11.1643C10.4678 11.8643 10.4656 13.0021 11.1656 13.7121L21.4462 24.0026Z" fill="current"/>
</svg>
