<svg width="21" height="20" viewBox="0 0 21 20" fill="none" xmlns="http://www.w3.org/2000/svg">
<path opacity="0.3" fill-rule="evenodd" clip-rule="evenodd" d="M13.5072 0.5H0.173828V19.389L10.19 19.389L13.5072 19.389L20.0451 19.389V5.81253H13.5072V0.5ZM5.39029 3.96105H3.07143V5.97972H5.39029V3.96105ZM10.6069 3.96116H8.28809V5.97983H10.6069V3.96116ZM3.07121 8.72031H5.39007V10.739H3.07121V8.72031ZM10.6069 8.71793H8.28809V10.7366H10.6069V8.71793ZM15.245 8.72031H17.5638V10.739H15.245V8.72031ZM5.39007 13.3344H3.07121V15.3531H5.39007V13.3344ZM8.28809 13.3344H10.6069V15.3531H8.28809V13.3344ZM17.5638 13.3344H15.245V15.3531H17.5638V13.3344Z" fill="#8B8D94"/>
</svg>
