<svg width="48" height="48" viewBox="0 0 48 48" fill="none" xmlns="http://www.w3.org/2000/svg">
<path fill-rule="evenodd" clip-rule="evenodd" d="M4 24C4 12.9744 12.9744 4 24 4C35.0256 4 44 12.9744 44 24C44 35.0256 35.0256 44 24 44C12.9744 44 4 35.0256 4 24ZM27.5131 19.5703L25.5527 14.7855C24.9836 13.3963 23.0164 13.3963 22.4472 14.7855L20.487 19.5703C20.3165 19.9863 19.9863 20.3165 19.5703 20.487L14.7855 22.4472C13.3963 23.0164 13.3963 24.9836 14.7855 25.5528L19.5703 27.5131C19.9863 27.6835 20.3165 28.0137 20.487 28.4297L22.4472 33.2145C23.0164 34.6037 24.9836 34.6037 25.5528 33.2145L27.5131 28.4297C27.6835 28.0137 28.0137 27.6835 28.4297 27.5131L33.2145 25.5527C34.6037 24.9836 34.6037 23.0164 33.2145 22.4472L28.4297 20.487C28.0137 20.3165 27.6835 19.9863 27.5131 19.5703Z" fill="#1F2024"/>
</svg>
