<svg width="12" height="17" viewBox="0 0 12 17" fill="current" xmlns="http://www.w3.org/2000/svg">
<path d="M5.56934 15.167C4.16309 15.0908 3.05566 14.6982 2.24707 13.9893C1.43848 13.2803 1.0166 12.293 0.981445 11.0273H3.54785C3.58887 11.5781 3.78809 12.0176 4.14551 12.3457C4.50293 12.668 4.97754 12.8643 5.56934 12.9346V9.60352L4.77832 9.41016C2.46973 8.8418 1.31543 7.6875 1.31543 5.94727C1.31543 5.24414 1.49414 4.61426 1.85156 4.05762C2.20898 3.49512 2.70996 3.04688 3.35449 2.71289C3.99902 2.37891 4.7373 2.17969 5.56934 2.11523V0.673828H6.58887V2.11523C7.43262 2.16797 8.17383 2.36133 8.8125 2.69531C9.45117 3.02344 9.94629 3.46582 10.2979 4.02246C10.6494 4.5791 10.8311 5.20898 10.8428 5.91211H8.31152C8.27051 5.47266 8.09766 5.11816 7.79297 4.84863C7.49414 4.57324 7.09277 4.40332 6.58887 4.33887V7.48535L7.2041 7.63477C8.38184 7.9043 9.31055 8.34375 9.99023 8.95312C10.6699 9.55664 11.0127 10.3594 11.0186 11.3613C11.0186 12.0938 10.8428 12.7383 10.4912 13.2949C10.1396 13.8457 9.63281 14.2852 8.9707 14.6133C8.30859 14.9355 7.51465 15.1201 6.58887 15.167V16.5996H5.56934V15.167ZM4.02246 5.78906C4.02246 6.15234 4.15723 6.44824 4.42676 6.67676C4.70215 6.89941 5.08301 7.08398 5.56934 7.23047V4.34766C5.07715 4.42383 4.69629 4.59082 4.42676 4.84863C4.15723 5.10645 4.02246 5.41992 4.02246 5.78906ZM6.58887 12.9258C7.12793 12.8555 7.55566 12.6797 7.87207 12.3984C8.18848 12.1172 8.34668 11.7715 8.34668 11.3613C8.34668 10.9922 8.2002 10.6904 7.90723 10.4561C7.62012 10.2217 7.18066 10.0225 6.58887 9.8584V12.9258Z" fill="current"/>
</svg>
