<svg width="12" height="7" viewBox="0 0 12 7" fill="none" xmlns="http://www.w3.org/2000/svg">
<path d="M10.37 0.0666504H1.63667C1.33667 0.0666504 1.07333 0.22665 0.949999 0.48665C0.823333 0.74665 0.863333 1.04998 1.04667 1.27998L5.42333 6.39332L5.45333 6.42332C5.49333 6.46332 5.57 6.53665 5.68 6.58665C5.82 6.66665 5.95333 6.66665 6.00667 6.66665C6.08333 6.66665 6.14667 6.64998 6.19667 6.63332H6.31333L6.42 6.52665C6.45667 6.50665 6.50667 6.47332 6.56 6.41998L10.94 1.30332C11.1233 1.10332 11.1733 0.809984 11.0633 0.54665C10.9433 0.25665 10.67 0.0699837 10.3667 0.0699837L10.37 0.0666504Z" fill="#65666B"/>
</svg>
