<svg width="14" height="13" viewBox="0 0 14 13" fill="none" xmlns="http://www.w3.org/2000/svg">
<path d="M12.0133 5.27265C11.9239 5.27265 11.8388 5.23862 11.7707 5.1748L8.32809 1.72885C8.19617 1.59697 8.19617 1.38001 8.32809 1.24812L9.1664 0.405781C9.34939 0.222848 9.58769 0.125 9.84301 0.125C10.0983 0.125 10.3409 0.222848 10.5196 0.405781L13.0941 2.97961C13.2729 3.16254 13.375 3.40078 13.375 3.65603C13.375 3.91129 13.2729 4.15378 13.0941 4.33246L12.2516 5.17055C12.1877 5.23436 12.1026 5.2684 12.0133 5.2684V5.27265Z" fill="#C3C5C9"/>
<path d="M1.5833 12.875C1.32797 12.875 1.08967 12.7772 0.90669 12.5942C0.70243 12.39 0.600301 12.1092 0.630088 11.8199L0.919456 8.9781C0.940733 8.76113 1.03861 8.55268 1.19606 8.39952L7.12384 2.45207C7.18767 2.38826 7.27278 2.34997 7.3664 2.34997C7.46002 2.34997 7.54512 2.384 7.60896 2.44782L11.0516 5.88951C11.1154 5.95332 11.1495 6.03841 11.1495 6.132C11.1495 6.2256 11.1154 6.31068 11.0473 6.3745L5.09826 12.3007C4.94081 12.4538 4.73656 12.5517 4.51953 12.5772L1.68117 12.8665C1.64713 12.8665 1.61734 12.8665 1.5833 12.8665V12.875Z" fill="#C3C5C9"/>
</svg>
