<svg width="48" height="48" viewBox="0 0 48 48" fill="none" xmlns="http://www.w3.org/2000/svg">
<path fill-rule="evenodd" clip-rule="evenodd" d="M7.48342 11.4834C7.94913 11.0107 8.57517 10.75 9.22234 10.75H38.7779C39.4251 10.75 40.0511 11.0107 40.5168 11.4834C40.7306 11.7004 40.9024 11.954 41.0259 12.2306L24.0002 23.8797L6.97439 12.2305C7.09783 11.954 7.26964 11.7004 7.48342 11.4834ZM3.28141 12.6686C3.2539 12.8116 3.24462 12.9566 3.25294 13.1002C3.25106 13.1619 3.25012 13.2238 3.25012 13.2857V34.7143C3.25012 36.3067 3.87309 37.8391 4.99015 38.9729C6.10807 40.1077 7.62991 40.75 9.22234 40.75H38.7779C40.3703 40.75 41.8922 40.1077 43.0101 38.9729C44.1272 37.8391 44.7501 36.3067 44.7501 34.7143V13.2857C44.7501 13.2241 44.7492 13.1626 44.7473 13.1012C44.7558 12.957 44.7465 12.8113 44.7187 12.6676C44.5796 11.3011 43.9817 10.0133 43.0101 9.02709C41.8922 7.89235 40.3703 7.25 38.7779 7.25H9.22234C7.62991 7.25 6.10807 7.89235 4.99015 9.02709C4.01827 10.0136 3.4204 11.3017 3.28141 12.6686ZM41.2501 16.318V34.7143C41.2501 35.3952 40.9834 36.043 40.5168 36.5166C40.0511 36.9893 39.4251 37.25 38.7779 37.25H9.22234C8.57517 37.25 7.94913 36.9893 7.48342 36.5166C7.01684 36.043 6.75012 35.3952 6.75012 34.7143V16.3179L23.012 27.4445C23.6077 27.8521 24.3926 27.8521 24.9884 27.4445L41.2501 16.318Z" fill="#1F2024"/>
</svg>
