<svg width="48" height="48" viewBox="0 0 48 48" fill="current" xmlns="http://www.w3.org/2000/svg">
<path d="M43.5885 17.1358C43.5869 15.6798 43.0078 14.284 41.9783 13.2545C40.9488 12.225 39.553 11.6459 38.097 11.6443H34.983V10.2714C34.9818 9.17946 34.5476 8.13254 33.7754 7.36039C33.0033 6.58825 31.9564 6.15397 30.8644 6.15283H17.1357C16.0438 6.15397 14.9968 6.58825 14.2247 7.36039C13.4526 8.13254 13.0183 9.17946 13.0171 10.2714V11.6443H9.90308C8.44714 11.6459 7.05129 12.225 6.02179 13.2545C4.99228 14.284 4.41321 15.6798 4.41162 17.1358V21.2543H43.5885V17.1358ZM32.2372 11.6443H15.7629V10.2714C15.7629 9.90732 15.9075 9.55813 16.165 9.30066C16.4224 9.0432 16.7716 8.89856 17.1357 8.89856H30.8644C31.2285 8.89856 31.5777 9.0432 31.8351 9.30066C32.0926 9.55813 32.2372 9.90732 32.2372 10.2714V11.6443Z" fill="current"/>
<path d="M29.0339 24.6865C29.0339 25.2327 28.8169 25.7565 28.4307 26.1426C28.0445 26.5288 27.5208 26.7458 26.9746 26.7458H21.0255C20.4794 26.7458 19.9556 26.5288 19.5694 26.1426C19.1832 25.7565 18.9662 25.2327 18.9662 24.6865V24.3433C18.9662 24.2523 18.9301 24.165 18.8657 24.1006C18.8013 24.0362 18.714 24.0001 18.623 24.0001H4.41162V36.3559C4.41162 37.8123 4.99018 39.2091 6.02003 40.2389C7.04988 41.2688 8.44666 41.8473 9.90308 41.8473H38.097C39.5535 41.8473 40.9502 41.2688 41.9801 40.2389C43.0099 39.2091 43.5885 37.8123 43.5885 36.3559V24.0001H29.3771C29.2861 24.0001 29.1988 24.0362 29.1344 24.1006C29.0701 24.165 29.0339 24.2523 29.0339 24.3433V24.6865Z" fill="current"/>
</svg>
