<svg width="48" height="48" viewBox="0 0 48 48" fill="current" xmlns="http://www.w3.org/2000/svg">
<path fill-rule="evenodd" clip-rule="evenodd" d="M20.0979 43.6234C21.3926 43.8671 22.6984 43.9889 23.9931 43.9889V44C26.6046 44 29.1829 43.5015 31.5953 42.5378C35.1695 41.1088 38.3675 38.4724 40.6028 35.116C42.827 31.7818 44 27.9158 44 23.9391C44 18.5334 41.7979 13.3714 38.1683 9.72695C34.5388 6.08253 29.4042 4 24.0816 4C20.109 4 16.247 5.17419 12.9162 7.40072C9.685 9.56079 7.12881 12.6624 5.50214 16.4176C3.97506 20.2282 3.60989 24.2271 4.41769 27.9158C5.1259 31.7485 7.00708 35.2933 9.87312 38.1512C12.7392 41.0091 16.2691 42.9033 20.0979 43.6234ZM21.3706 34.4293C21.3706 35.5702 22.2669 36.4675 23.4067 36.4675C24.5465 36.4675 25.4428 35.5924 25.4428 34.4293C25.4428 33.2662 24.5465 32.3911 23.4067 32.3911C22.2669 32.3911 21.3706 33.2883 21.3706 34.4293ZM21.8132 27.6057C21.8132 28.7688 22.4218 29.4556 23.4288 29.4556V29.4667C24.4469 29.4667 24.9891 28.802 24.9891 27.5614C24.9891 25.8001 25.6199 24.8918 27.6892 23.6733C30.1015 22.2221 31.2745 20.3058 31.2745 17.8023C31.2745 14.1025 28.2867 11.5215 24.0042 11.5215C20.7398 11.5215 18.1947 12.9726 17.1877 15.3875C16.8668 16.0743 16.734 16.6724 16.734 17.3925C16.734 18.3451 17.2541 18.8879 18.1726 18.8879C19.0025 18.8879 19.4009 18.5223 19.6997 17.4589C20.2529 15.4429 21.7026 14.3794 23.8825 14.3794C26.2949 14.3794 27.9105 15.8084 27.9105 17.9463C27.9105 19.619 27.1801 20.6824 25.2436 21.8677C22.8423 23.3077 21.8132 24.8807 21.8132 27.1294V27.6057Z" fill="current"/>
</svg>
