<svg width="49" height="48" viewBox="0 0 49 48" fill="none" xmlns="http://www.w3.org/2000/svg">
<path opacity="0.1" fill-rule="evenodd" clip-rule="evenodd" d="M24.5 48C37.7548 48 48.5 37.2548 48.5 24C48.5 10.7452 37.7548 0 24.5 0C11.2452 0 0.5 10.7452 0.5 24C0.5 37.2548 11.2452 48 24.5 48Z" fill="#8B8D94"/>
<mask id="mask0_6269_18001" style="mask-type:luminance" maskUnits="userSpaceOnUse" x="0" y="0" width="49" height="48">
<path fill-rule="evenodd" clip-rule="evenodd" d="M24.3889 47.7778C37.5824 47.7778 48.2778 37.0824 48.2778 23.8889C48.2778 10.6954 37.5824 0 24.3889 0C11.1954 0 0.5 10.6954 0.5 23.8889C0.5 37.0824 11.1954 47.7778 24.3889 47.7778Z" fill="white"/>
</mask>
<g mask="url(#mask0_6269_18001)">
<path opacity="0.3" fill-rule="evenodd" clip-rule="evenodd" d="M28.8065 11.7778H12.3359V35.1112L24.709 35.1112L28.8065 35.1112L36.8829 35.1112V18.3403H28.8065V11.7778ZM18.7796 16.0532H15.9151V18.5469H18.7796V16.0532ZM25.2238 16.0532H22.3594V18.5469H25.2238V16.0532ZM15.9151 21.9321H18.7796V24.4258H15.9151V21.9321ZM25.2238 21.9292H22.3594V24.4228H25.2238V21.9292ZM30.9531 21.9321H33.8176V24.4258H30.9531V21.9321ZM18.7796 27.6318H15.9151V30.1255H18.7796V27.6318ZM22.3594 27.6318H25.2238V30.1255H22.3594V27.6318ZM33.8176 27.6318H30.9531V30.1255H33.8176V27.6318Z" fill="#8B8D94"/>
</g>
</svg>
