<svg width="32" height="24" viewBox="0 0 32 24" fill="none" xmlns="http://www.w3.org/2000/svg">
<g clip-path="url(#clip0_1266_15537)">
<rect width="32" height="24" fill="white"/>
<path fill-rule="evenodd" clip-rule="evenodd" d="M0 0V24H32V0H0Z" fill="#F7FCFF"/>
<mask id="mask0_1266_15537" style="mask-type:luminance" maskUnits="userSpaceOnUse" x="0" y="0" width="32" height="24">
<path fill-rule="evenodd" clip-rule="evenodd" d="M0 0V24H32V0H0Z" fill="white"/>
</mask>
<g mask="url(#mask0_1266_15537)">
<path fill-rule="evenodd" clip-rule="evenodd" d="M15.5643 18.2194C18.9212 18.2194 21.6426 15.4621 21.6426 12.0609C21.6426 8.65961 18.9212 5.90234 15.5643 5.90234C12.2074 5.90234 9.48608 8.65961 9.48608 12.0609C9.48608 15.4621 12.2074 18.2194 15.5643 18.2194Z" fill="#3D58DB"/>
<mask id="mask1_1266_15537" style="mask-type:luminance" maskUnits="userSpaceOnUse" x="9" y="5" width="13" height="14">
<path fill-rule="evenodd" clip-rule="evenodd" d="M15.5643 18.2194C18.9212 18.2194 21.6426 15.4621 21.6426 12.0609C21.6426 8.65961 18.9212 5.90234 15.5643 5.90234C12.2074 5.90234 9.48608 8.65961 9.48608 12.0609C9.48608 15.4621 12.2074 18.2194 15.5643 18.2194Z" fill="white"/>
</mask>
<g mask="url(#mask1_1266_15537)">
<path fill-rule="evenodd" clip-rule="evenodd" d="M21.8546 12.5325C21.8546 12.5325 21.5134 9.62856 18.9867 9.47091C16.46 9.31327 15.7787 11.6005 15.6329 12.2065C15.4871 12.8124 15.118 14.4289 12.4577 14.4289C9.79735 14.4289 9.55737 10.3185 9.55737 10.3185V5.47168H21.8546V12.5325Z" fill="#E31D1C"/>
</g>
<path fill-rule="evenodd" clip-rule="evenodd" d="M6.4444 2.05225L7.40342 2.87977L2.95901 7.83168L2 7.00415L6.4444 2.05225ZM8.02613 3.3916L8.98515 4.21913L4.70006 9.09929L3.74104 8.27177L8.02613 3.3916ZM10.5599 5.5746L9.60088 4.74707L5.30388 9.66427L6.26289 10.4918L10.5599 5.5746Z" fill="#272727"/>
<path fill-rule="evenodd" clip-rule="evenodd" d="M25.3788 1.70508L24.4196 2.52951L26.0834 4.39234L27.0426 3.56791L25.3788 1.70508ZM28.3362 5.13172L27.377 5.95615L29.0408 7.81898L30 6.99455L28.3362 5.13172ZM21.2534 5.21261L22.2126 4.38818L23.8764 6.25102L22.9172 7.07545L21.2534 5.21261ZM25.1704 7.81494L24.2112 8.63937L25.875 10.5022L26.8343 9.67778L25.1704 7.81494ZM22.8966 3.83126L23.8558 3.00684L28.4871 8.3877L27.5279 9.21213L22.8966 3.83126Z" fill="#272727"/>
<path fill-rule="evenodd" clip-rule="evenodd" d="M26.1029 14.2432L25.1356 13.4155L23.4578 15.2856L24.4251 16.1133L26.1029 14.2432ZM23.2823 17.5342L22.3151 16.7065L20.6372 18.5766L21.6045 19.4043L23.2823 17.5342ZM28.1906 16.0327L29.1579 16.8604L27.48 18.7305L26.5127 17.9028L28.1906 16.0327ZM26.4744 20.228L25.5071 19.4004L23.8293 21.2705L24.7966 22.0981L26.4744 20.228ZM23.9141 17.978L24.8814 18.8057L23.13 20.8026L22.1627 19.975L23.9141 17.978ZM27.7544 15.4785L26.7871 14.6509L25.0357 16.6478L26.003 17.4755L27.7544 15.4785Z" fill="#272727"/>
<path fill-rule="evenodd" clip-rule="evenodd" d="M5.50851 14.8898L6.46778 14.0645L10.749 18.7449L9.78975 19.5702L5.50851 14.8898ZM6.50768 18.9835L7.46695 18.1582L9.27533 20.0538L8.31606 20.8791L6.50768 18.9835ZM3.31048 16.6909L2.35121 17.5163L6.65469 22.2596L7.61396 21.4343L3.31048 16.6909ZM3.99326 16.152L4.95253 15.3267L6.52021 17.0805L5.56094 17.9059L3.99326 16.152Z" fill="#272727"/>
</g>
</g>
<defs>
<clipPath id="clip0_1266_15537">
<rect width="32" height="24" fill="white"/>
</clipPath>
</defs>
</svg>
