<svg width="48" height="48" viewBox="0 0 48 48" fill="none" xmlns="http://www.w3.org/2000/svg">
<path d="M39.2698 13.6352H8.72984C7.82984 13.6352 7.08984 12.9052 7.08984 11.9952C7.08984 11.0852 7.81984 10.3652 8.72984 10.3652H39.2698C40.1698 10.3652 40.9098 11.0952 40.9098 12.0052C40.9098 12.9152 40.1798 13.6452 39.2698 13.6452V13.6352Z" fill="#1F2024"/>
<path d="M39.2698 25.6352H8.72984C7.82984 25.6352 7.08984 24.9052 7.08984 23.9952C7.08984 23.0852 7.81984 22.3552 8.72984 22.3552H39.2698C40.1698 22.3552 40.9098 23.0852 40.9098 23.9952C40.9098 24.9052 40.1798 25.6352 39.2698 25.6352Z" fill="#1F2024"/>
<path d="M39.2698 37.6352H8.72984C7.82984 37.6352 7.08984 36.9052 7.08984 35.9952C7.08984 35.0852 7.81984 34.3552 8.72984 34.3552H39.2698C40.1698 34.3552 40.9098 35.0852 40.9098 35.9952C40.9098 36.9052 40.1798 37.6352 39.2698 37.6352Z" fill="#1F2024"/>
</svg>
