<svg width="48" height="48" viewBox="0 0 48 48" fill="none" xmlns="http://www.w3.org/2000/svg">
<path d="M8.75016 13.335C8.01016 13.335 7.41016 12.735 7.41016 11.995C7.41016 11.255 8.01016 10.665 8.75016 10.665H39.2502C39.9902 10.665 40.5902 11.265 40.5902 12.005C40.5902 12.745 39.9902 13.345 39.2502 13.345H8.75016V13.335Z" fill="#1F2024"/>
<path d="M8.75016 25.335C8.01016 25.335 7.41016 24.735 7.41016 23.995C7.41016 23.255 8.01016 22.655 8.75016 22.655H39.2502C39.9902 22.655 40.5902 23.255 40.5902 23.995C40.5902 24.735 39.9902 25.335 39.2502 25.335H8.75016Z" fill="#1F2024"/>
<path d="M8.75016 37.335C8.01016 37.335 7.41016 36.735 7.41016 35.995C7.41016 35.255 8.01016 34.655 8.75016 34.655H39.2502C39.9902 34.655 40.5902 35.255 40.5902 35.995C40.5902 36.735 39.9902 37.335 39.2502 37.335H8.75016Z" fill="#1F2024"/>
</svg>
