<svg width="48" height="48" viewBox="0 0 48 48" fill="none" xmlns="http://www.w3.org/2000/svg">
<path d="M8.75016 13.835C7.74016 13.835 6.91016 13.015 6.91016 11.995C6.91016 10.975 7.73016 10.165 8.75016 10.165H39.2502C40.2602 10.165 41.0902 10.985 41.0902 12.005C41.0902 13.025 40.2702 13.845 39.2502 13.845H8.75016V13.835Z" fill="#1F2024"/>
<path d="M8.75016 25.835C7.74016 25.835 6.91016 25.015 6.91016 23.995C6.91016 22.975 7.73016 22.155 8.75016 22.155H39.2502C40.2602 22.155 41.0902 22.975 41.0902 23.995C41.0902 25.015 40.2702 25.835 39.2502 25.835H8.75016Z" fill="#1F2024"/>
<path d="M8.75016 37.835C7.74016 37.835 6.91016 37.015 6.91016 35.995C6.91016 34.975 7.73016 34.155 8.75016 34.155H39.2502C40.2602 34.155 41.0902 34.975 41.0902 35.995C41.0902 37.015 40.2702 37.835 39.2502 37.835H8.75016Z" fill="#1F2024"/>
</svg>
