<svg width="48" height="48" viewBox="0 0 48 48" fill="none" xmlns="http://www.w3.org/2000/svg">
<path d="M8.7498 14.4498C7.3998 14.4498 6.2998 13.3498 6.2998 11.9998C6.2998 10.6498 7.3998 9.5498 8.7498 9.5498H39.2498C40.5998 9.5498 41.6998 10.6498 41.6998 11.9998C41.6998 13.3498 40.5998 14.4498 39.2498 14.4498H8.7498Z" fill="#1F2024"/>
<path d="M8.7498 26.4498C7.3998 26.4498 6.2998 25.3498 6.2998 23.9998C6.2998 22.6498 7.3998 21.5498 8.7498 21.5498H39.2498C40.5998 21.5498 41.6998 22.6498 41.6998 23.9998C41.6998 25.3498 40.5998 26.4498 39.2498 26.4498H8.7498Z" fill="#1F2024"/>
<path d="M8.7498 38.4498C7.3998 38.4498 6.2998 37.3498 6.2998 35.9998C6.2998 34.6498 7.3998 33.5498 8.7498 33.5498H39.2498C40.5998 33.5498 41.6998 34.6498 41.6998 35.9998C41.6998 37.3498 40.5998 38.4498 39.2498 38.4498H8.7498Z" fill="#1F2024"/>
</svg>
