<svg width="20" height="20" viewBox="0 0 20 20" fill="none" xmlns="http://www.w3.org/2000/svg">
<path d="M14.6301 4.46736L14.5801 4.43236L14.9001 4.11236C15.3401 3.59236 16.0151 2.60236 15.6701 1.66236C15.3251 0.722363 14.2751 0.297363 13.3751 0.297363H6.6251C5.7101 0.297363 4.9201 0.887363 4.6301 1.71236C4.3501 2.49236 4.5151 3.43236 5.1051 4.02236L5.5601 4.43736L5.5101 4.47236C2.1201 6.90236 0.475098 9.93736 0.475098 13.7524C0.475098 15.8024 0.705098 17.0274 1.2401 17.8574C2.0051 19.0824 3.1751 19.6524 5.0251 19.7024H15.0801C16.0651 19.6524 17.0201 19.5424 17.8901 18.8274C18.9751 17.8474 19.5251 16.1574 19.5251 13.8024C19.5251 10.1174 17.6951 6.62736 14.6301 4.46736ZM10.7651 14.6324V14.9174C10.7651 15.3524 10.4201 15.7024 9.9951 15.7024C9.5701 15.7024 9.2251 15.3524 9.2251 14.9174V14.6124C8.5251 14.4874 7.9251 14.2074 7.5801 13.8174C7.3551 13.5924 7.2101 13.3024 7.2101 13.0124C7.2101 12.6224 7.4851 12.3474 7.9051 12.3474C8.1701 12.3474 8.3751 12.4474 8.6901 12.7024C9.1801 13.1174 9.6351 13.2874 10.1601 13.2874C10.6851 13.2874 10.9901 13.1024 10.9901 12.7674C10.9901 12.4474 10.7801 12.2574 10.3001 12.1624L9.3401 11.9624C8.1001 11.7024 7.4351 11.0574 7.4351 10.1274C7.4351 9.13736 8.1201 8.46236 9.2201 8.23736V7.97736C9.2201 7.54236 9.5651 7.19236 9.9901 7.19236C10.4151 7.19236 10.7601 7.54236 10.7601 7.97736V8.22736C11.2901 8.31236 11.7551 8.47236 12.0851 8.71236C12.4501 8.97736 12.6601 9.30236 12.6601 9.67236C12.6601 10.0424 12.3751 10.3174 11.9851 10.3174C11.7051 10.3174 11.4551 10.1674 11.1401 9.93236C10.7601 9.62736 10.3751 9.50736 9.9801 9.50736C9.5251 9.50736 9.2301 9.69236 9.2301 9.99236C9.2301 10.2774 9.4651 10.4674 9.9251 10.5574L10.9551 10.7724C12.1901 11.0374 12.7901 11.6324 12.7901 12.5974C12.7901 13.6974 12.0301 14.4274 10.7701 14.6224L10.7651 14.6324Z" fill="#EDAB02"/>
</svg>
