<svg width="48" height="48" viewBox="0 0 48 48" fill="none" xmlns="http://www.w3.org/2000/svg">
<path d="M24.2717 4.49986C13.3049 4.35173 4.35173 13.3049 4.49986 24.2717C4.64611 34.7895 13.2102 43.3536 23.728 43.4999C34.6967 43.6499 43.648 34.6967 43.498 23.7299C43.3536 13.2102 34.7895 4.64611 24.2717 4.49986ZM36.1236 35.1795C36.0863 35.2199 36.0405 35.2516 35.9895 35.2723C35.9386 35.293 35.8837 35.3023 35.8288 35.2994C35.7738 35.2966 35.7202 35.2817 35.6717 35.2558C35.6232 35.2299 35.5809 35.1936 35.548 35.1495C34.7094 34.0524 33.6825 33.1131 32.5152 32.3755C30.1283 30.8436 27.1039 29.9999 23.9999 29.9999C20.8958 29.9999 17.8714 30.8436 15.4845 32.3755C14.3172 33.1128 13.2903 34.0518 12.4517 35.1486C12.4188 35.1927 12.3766 35.2289 12.328 35.2548C12.2795 35.2807 12.2259 35.2956 12.171 35.2985C12.116 35.3014 12.0611 35.2921 12.0102 35.2714C11.9592 35.2507 11.9135 35.219 11.8761 35.1786C9.12518 32.209 7.56689 28.3286 7.49986 24.2811C7.34705 15.1583 14.833 7.52236 23.9595 7.49986C33.0861 7.47736 40.4999 14.8883 40.4999 23.9999C40.503 28.1449 38.9399 32.1381 36.1236 35.1795Z" fill="#1F2024"/>
<path d="M23.9999 13.4999C22.1512 13.4999 20.4796 14.1927 19.2918 15.4518C18.104 16.7108 17.5105 18.4518 17.6446 20.3202C17.9165 23.9999 20.7674 26.9999 23.9999 26.9999C27.2324 26.9999 30.0777 23.9999 30.3552 20.3211C30.494 18.4705 29.9052 16.7455 28.6977 15.463C27.5052 14.1974 25.8365 13.4999 23.9999 13.4999Z" fill="#1F2024"/>
</svg>
