<svg width="70" height="80" viewBox="0 0 70 80" fill="none" xmlns="http://www.w3.org/2000/svg">
<path d="M26.8826 39.8905L2.65195 46.1302C2.50308 46.1685 2.34812 46.1771 2.19592 46.1556C2.04372 46.134 1.89724 46.0827 1.76487 46.0046C1.6325 45.9264 1.51682 45.8229 1.42444 45.7001C1.33205 45.5772 1.26477 45.4374 1.22643 45.2885C1.1881 45.1396 1.17946 44.9847 1.20102 44.8325C1.22257 44.6802 1.27389 44.5338 1.35204 44.4014C1.4302 44.269 1.53367 44.1534 1.65653 44.061C1.7794 43.9686 1.91925 43.9013 2.06812 43.863L26.2988 37.6233C26.4477 37.5849 26.6026 37.5763 26.7548 37.5979C26.907 37.6194 27.0535 37.6707 27.1859 37.7489C27.3182 37.8271 27.4339 37.9305 27.5263 38.0534C27.6187 38.1762 27.686 38.3161 27.7243 38.465C27.7626 38.6138 27.7713 38.7688 27.7497 38.921C27.7282 39.0732 27.6769 39.2197 27.5987 39.352C27.5205 39.4844 27.4171 39.6001 27.2942 39.6925C27.1714 39.7849 27.0315 39.8521 26.8826 39.8905Z" fill="#CCCCCC"/>
<path d="M32.5441 42.5123L3.6373 49.9561C3.33665 50.0335 3.01756 49.9884 2.75023 49.8305C2.48289 49.6727 2.28921 49.4151 2.21179 49.1144C2.13437 48.8138 2.17955 48.4947 2.3374 48.2274C2.49525 47.96 2.75283 47.7663 3.05347 47.6889L31.9602 40.2451C32.2608 40.168 32.5796 40.2134 32.8468 40.3712C33.1139 40.5291 33.3074 40.7866 33.3847 41.087C33.4621 41.3875 33.417 41.7064 33.2594 41.9737C33.1018 42.2409 32.8445 42.4347 32.5441 42.5123Z" fill="#CCCCCC"/>
<path d="M62.4005 79.4999H7.44345C5.57978 79.4978 3.79306 78.7565 2.47525 77.4387C1.15744 76.1209 0.416168 74.3342 0.414062 72.4705V7.92795C0.416168 6.06429 1.15744 4.27756 2.47525 2.95975C3.79306 1.64193 5.57978 0.900665 7.44345 0.89856H61.4299C65.8482 0.89856 69.4299 4.48028 69.4299 8.89856V72.4705C69.4278 74.3342 68.6865 76.1209 67.3687 77.4387C66.0509 78.7565 64.2642 79.4978 62.4005 79.4999Z" fill="#F0F2F5"/>
<path d="M7.44426 2.92212C6.1171 2.92362 4.84473 3.45149 3.90629 4.38993C2.96785 5.32837 2.43997 6.60074 2.43848 7.9279V72.4705C2.43997 73.7976 2.96785 75.07 3.90629 76.0084C4.84473 76.9469 6.1171 77.4747 7.44426 77.4762H62.4013C63.7285 77.4747 65.0008 76.9469 65.9393 76.0084C66.8777 75.07 67.4056 73.7976 67.4071 72.4705V8.81001C67.4071 5.55822 64.771 2.92212 61.5192 2.92212L7.44426 2.92212Z" fill="#F7F8FA"/>
<path d="M51.3197 15.9178H26.2985C25.988 15.9178 25.6903 15.7945 25.4708 15.575C25.2513 15.3554 25.1279 15.0577 25.1279 14.7472C25.1279 14.4368 25.2513 14.139 25.4708 13.9195C25.6903 13.7 25.988 13.5767 26.2985 13.5767H51.3197C51.6301 13.5767 51.9279 13.7 52.1474 13.9195C52.3669 14.139 52.4903 14.4368 52.4903 14.7472C52.4903 15.0577 52.3669 15.3554 52.1474 15.575C51.9279 15.7945 51.6301 15.9178 51.3197 15.9178Z" fill="#D9FE51"/>
<path d="M51.3197 61.9751H26.2985C25.988 61.9751 25.6903 61.8517 25.4708 61.6322C25.2513 61.4127 25.1279 61.115 25.1279 60.8045C25.1279 60.494 25.2513 60.1963 25.4708 59.9768C25.6903 59.7572 25.988 59.6339 26.2985 59.6339H51.3197C51.6301 59.6339 51.9279 59.7572 52.1474 59.9768C52.3669 60.1963 52.4903 60.494 52.4903 60.8045C52.4903 61.115 52.3669 61.4127 52.1474 61.6322C51.9279 61.8517 51.6301 61.9751 51.3197 61.9751Z" fill="#D9FE51"/>
<path d="M56.1467 21.5345H26.2969C25.9867 21.5341 25.6894 21.4106 25.4702 21.1911C25.251 20.9716 25.1279 20.6741 25.1279 20.3639C25.1279 20.0538 25.251 19.7563 25.4702 19.5368C25.6894 19.3173 25.9867 19.1938 26.2969 19.1934H56.1467C56.3006 19.1932 56.453 19.2233 56.5952 19.282C56.7374 19.3407 56.8666 19.4269 56.9755 19.5357C57.0844 19.6444 57.1707 19.7735 57.2297 19.9156C57.2886 20.0577 57.3189 20.2101 57.3189 20.3639C57.3189 20.5178 57.2886 20.6701 57.2297 20.8123C57.1707 20.9544 57.0844 21.0835 56.9755 21.1922C56.8666 21.301 56.7374 21.3871 56.5952 21.4459C56.453 21.5046 56.3006 21.5347 56.1467 21.5345Z" fill="#D9FE51"/>
<path d="M56.1467 67.5918H26.2969C25.9867 67.5914 25.6894 67.4678 25.4702 67.2484C25.251 67.0289 25.1279 66.7314 25.1279 66.4212C25.1279 66.111 25.251 65.8135 25.4702 65.594C25.6894 65.3745 25.9867 65.251 26.2969 65.2506H56.1467C56.3006 65.2504 56.453 65.2805 56.5952 65.3393C56.7374 65.398 56.8666 65.4842 56.9755 65.5929C57.0844 65.7016 57.1707 65.8307 57.2297 65.9729C57.2886 66.115 57.3189 66.2673 57.3189 66.4212C57.3189 66.5751 57.2886 66.7274 57.2297 66.8695C57.1707 67.0116 57.0844 67.1408 56.9755 67.2495C56.8666 67.3582 56.7374 67.4444 56.5952 67.5031C56.453 67.5619 56.3006 67.592 56.1467 67.5918Z" fill="#D9FE51"/>
<path d="M16.2711 21.8514C18.5561 21.8514 20.4085 19.999 20.4085 17.714C20.4085 15.429 18.5561 13.5767 16.2711 13.5767C13.9861 13.5767 12.1338 15.429 12.1338 17.714C12.1338 19.999 13.9861 21.8514 16.2711 21.8514Z" fill="#D9FE51"/>
<path d="M16.2711 67.9086C18.5561 67.9086 20.4085 66.0563 20.4085 63.7713C20.4085 61.4863 18.5561 59.6339 16.2711 59.6339C13.9861 59.6339 12.1338 61.4863 12.1338 63.7713C12.1338 66.0563 13.9861 67.9086 16.2711 67.9086Z" fill="#D9FE51"/>
<path fill-rule="evenodd" clip-rule="evenodd" d="M54.2479 54.5138C54.7446 53.8727 55.207 53.2024 55.6323 52.5054C58.6515 47.5439 59.579 41.5877 58.2113 35.9433C56.8436 30.299 53.2924 25.4275 48.3367 22.3977C44.6372 20.1416 40.3517 19.033 36.022 19.2121C31.6924 19.3911 27.513 20.8498 24.0125 23.4035C20.5121 25.9573 17.8476 29.4916 16.3562 33.5593C14.8647 37.6271 14.6133 42.0456 15.6336 46.2563C16.6539 50.4669 18.9001 54.2805 22.0883 57.2148C25.2765 60.1491 29.2633 62.0723 33.5447 62.7412C37.8261 63.4101 42.2098 62.7946 46.1413 60.9727C48.0337 60.0957 49.7804 58.9582 51.3349 57.6017L61.5178 67.3232C61.9508 67.6848 62.5097 67.8596 63.0716 67.8091C63.6335 67.7587 64.1524 67.487 64.514 67.054C64.8756 66.621 65.0504 66.0621 65 65.5002C64.9495 64.9383 64.6779 64.4195 64.2449 64.0578L54.2479 54.5138ZM20.5091 41.7775C20.3748 38.531 21.2064 35.3175 22.8988 32.5435C25.1716 28.8275 28.826 26.1646 33.0602 25.139C37.2943 24.1135 41.7625 24.809 45.4844 27.0729C48.2589 28.765 50.4694 31.2416 51.8361 34.1897C53.2029 37.1377 53.6645 40.4247 53.1628 43.6351C52.661 46.8455 51.2183 49.835 49.0171 52.2256C46.8159 54.6162 43.9551 56.3006 40.7965 57.0656C37.6378 57.8307 34.3232 57.6421 31.2718 56.5238C28.2203 55.4054 25.5691 53.4076 23.6533 50.7827C21.7376 48.1579 20.6434 45.0241 20.5091 41.7775Z" fill="#36344A"/>
</svg>
