<svg width="19" height="21" viewBox="0 0 19 21" fill="none" xmlns="http://www.w3.org/2000/svg">
<path fill-rule="evenodd" clip-rule="evenodd" d="M2.71813 7.92059C2.71813 4.36019 5.60465 1.47458 9.16414 1.47458C12.7248 1.47458 15.6112 4.36026 15.6112 7.92059C15.6112 7.97447 15.617 8.027 15.628 8.0776C15.6166 8.1291 15.6106 8.18264 15.6106 8.23757V12.7277C15.6106 12.8422 15.6372 12.9552 15.6885 13.0576L16.8352 15.3489C16.8893 15.4583 16.8095 15.5831 16.6912 15.5831H1.63682C1.5182 15.5831 1.43918 15.4583 1.49368 15.3493L2.63963 13.0574C2.69082 12.955 2.71747 12.8421 2.71747 12.7277V8.23757C2.71747 8.18369 2.71169 8.13117 2.70072 8.08057C2.71212 8.02906 2.71813 7.97553 2.71813 7.92059ZM1.2603 8.07759C1.24933 8.027 1.24355 7.97447 1.24355 7.92059C1.24355 3.54566 4.7904 0 9.16414 0C13.5389 0 17.0858 3.54559 17.0858 7.92059C17.0858 7.97553 17.0798 8.02906 17.0684 8.08057C17.0794 8.13116 17.0851 8.18369 17.0851 8.23757V12.5535L18.1548 14.6908C18.6963 15.7777 17.9083 17.0577 16.6912 17.0577H12.8641C12.5944 18.8739 11.0288 20.2682 9.13652 20.2682C7.24531 20.2682 5.67879 18.874 5.40899 17.0577H1.63682C0.419888 17.0577 -0.36899 15.7774 0.174773 14.6899L1.24289 12.5536V8.23757C1.24289 8.18263 1.2489 8.1291 1.2603 8.07759ZM6.91093 17.0577H11.3622C11.1129 18.0547 10.2113 18.7936 9.13652 18.7936C8.06254 18.7936 7.16036 18.0546 6.91093 17.0577Z" fill="#1F2024"/>
</svg>
