<svg width="176" height="140" viewBox="0 0 176 140" fill="none" xmlns="http://www.w3.org/2000/svg">
<g clip-path="url(#clip0_3314_52729)">
<path d="M84.4552 139.38L31.0831 139.399C28.4018 139.4 26 138.014 24.6586 135.692C23.9878 134.531 23.6523 133.258 23.6519 131.984C23.6514 130.711 23.9862 129.437 24.656 128.275L51.3251 79.7258C52.6651 77.4031 55.0659 76.0161 57.7472 76.0151C60.4285 76.0142 62.8303 77.3996 64.1719 79.7214L90.878 128.259C91.547 129.416 91.8817 130.688 91.8818 131.961C91.8817 133.234 91.5471 134.508 90.8771 135.67C89.5373 137.992 87.1365 139.379 84.4552 139.38ZM24.3227 131.983C24.3227 133.143 30.2121 130.644 30.8222 131.7C32.0427 133.813 28.6435 138.73 31.0829 138.729C31.0829 138.729 89.0783 137.448 90.2973 135.335C90.9067 134.279 91.2113 133.12 91.2109 131.961C91.2105 130.802 90.9051 129.643 90.2948 128.587L63.5887 80.0502C62.3717 77.9442 60.1868 76.6837 57.7474 76.6846C55.3092 76.6854 24.3228 130.824 24.3227 131.983Z" fill="#3F3D56"/>
<path d="M85.0477 138.711C84.3787 140.05 115.712 139.638 116.082 139.638C116.082 139.638 124.889 139.444 125.074 139.123C125.167 138.962 125.213 138.786 125.213 138.61C125.213 138.434 125.167 138.258 125.074 138.098L121.018 130.727C120.834 130.408 120.502 130.216 120.131 130.216C120.116 130.216 120.093 130.23 120.064 130.256C114.654 135.091 107.987 138.287 100.732 138.395C93.0179 138.509 85.0902 138.626 85.0477 138.711Z" fill="#3F3D56"/>
<path d="M0.193359 139.602C0.193436 139.823 0.370904 140 0.591823 140L175.408 139.94C175.629 139.94 175.806 139.762 175.806 139.541C175.806 139.32 175.629 139.143 175.408 139.143L0.591549 139.204C0.370629 139.204 0.193282 139.381 0.193359 139.602Z" fill="#CCCCCC"/>
<path d="M135.376 137.668L132.348 137.669L130.904 125.992L135.372 125.991L135.376 137.668Z" fill="#A0616A"/>
<path d="M125.004 137.603C124.909 137.762 124.86 138.274 124.86 138.459C124.86 139.026 125.32 139.486 125.888 139.486L135.263 139.483C135.65 139.483 135.964 139.169 135.964 138.782L135.964 138.391C135.964 138.391 136.427 137.218 135.472 135.772C135.472 135.772 134.285 136.905 132.511 135.132L131.988 134.185L128.204 136.955L126.106 137.214C125.647 137.27 125.24 137.205 125.004 137.603Z" fill="#2F2E41"/>
<path d="M123.768 127.682L120.9 128.652L115.792 118.053L120.025 116.621L123.768 127.682Z" fill="#A0616A"/>
<path d="M113.921 130.942C113.883 131.122 114 131.624 114.059 131.799C114.241 132.336 114.824 132.624 115.362 132.442L124.242 129.437C124.609 129.312 124.806 128.915 124.682 128.548L124.556 128.178C124.556 128.178 124.62 126.918 123.252 125.855C123.252 125.855 122.49 127.308 120.242 126.196L119.443 125.467L116.745 129.303L114.84 130.22C114.424 130.421 114.017 130.489 113.921 130.942Z" fill="#2F2E41"/>
<path d="M119.092 59.9434L113.22 79.3903L106.288 96.8828L117.262 121.863L121.332 120.053L116.462 97.1054L126.674 81.5337L131.439 130.144L135.508 129.917L141.028 71.241L141.815 58.4658L119.092 59.9434Z" fill="#2F2E41"/>
<path d="M136.826 16.8643L128.234 18.45L127.557 22.294L122.358 24.7829L119.654 53.0469C119.654 53.0469 115.134 58.9271 118.753 60.7347L141.815 58.4657C141.815 58.4657 142.944 54.285 141.813 53.8884C140.682 53.4918 140.679 43.5058 140.679 43.5058L145.872 22.9659L138.184 20.2554L136.826 16.8643Z" fill="#E6E6E6"/>
<path d="M131.758 16.7901C135.59 16.7901 138.696 13.6839 138.696 9.85231C138.696 6.02069 135.59 2.91455 131.758 2.91455C127.926 2.91455 124.82 6.02069 124.82 9.85231C124.82 13.6839 127.926 16.7901 131.758 16.7901Z" fill="#A0616A"/>
<path d="M136.352 10.8822C135.799 11.1853 136.324 12.6323 135.978 12.7574C135.578 12.902 134.12 11.2421 134.102 9.38294C134.096 8.82024 134.226 8.55005 134.101 7.88289C133.938 7.0102 133.438 5.98088 132.976 6.00821C132.701 6.0244 132.433 6.41228 132.413 6.75843C132.385 7.24356 132.856 7.43451 132.789 7.69584C132.659 8.19358 130.681 8.53723 129.976 7.69681C129.424 7.03793 129.847 5.8811 129.6 5.82187C129.418 5.7782 129.223 6.41511 128.476 7.13481C128.194 7.40596 127.776 7.80922 127.538 7.69765C127.196 7.53643 127.445 6.40023 127.35 6.38517C127.272 6.37269 127.223 7.1713 126.788 7.88542C126.23 8.80287 125.077 9.51002 124.539 9.19875C124.209 9.00804 124.183 8.47709 124.163 8.07384C124.122 7.22429 122.887 5.27015 123.207 4.36133C123.857 2.51162 124.97 3.81549 125.474 3.1982C126.156 2.36253 126.768 2.81183 127.911 1.88481C129.028 0.979198 129.038 0.0689847 129.786 0.00908474C130.459 -0.0448573 130.699 0.67358 131.474 0.571021C132.13 0.48414 132.273 -0.0730835 132.786 0.00804379C133.256 0.0823162 133.287 0.5732 133.911 0.757683C134.31 0.875461 134.397 0.70499 134.849 0.757358C135.788 0.866327 136.419 1.7216 136.537 1.88182C136.992 2.49945 136.815 2.7599 137.287 3.38161C137.694 3.91775 138.596 3.69008 138.935 3.95786C140.042 4.83282 140.518 6.44643 140.528 8.28555C140.535 9.57187 140.367 10.2218 139.993 11.8454C139.708 13.0783 138.392 14.6715 137.666 15.3819C137.472 15.5726 136.926 16.1073 136.542 15.9449C136.178 15.791 136.167 15.0988 136.166 15.0074C136.165 14.6931 136.248 14.3042 136.916 13.3196C137.617 12.2853 137.895 12.1673 137.853 11.8192C137.778 11.204 136.794 10.6406 136.352 10.8822Z" fill="#2F2E41"/>
<path d="M112.152 75.5643C111.937 77.3726 112.694 78.9499 113.845 79.0873C114.996 79.2247 116.104 77.8702 116.32 76.0619C116.414 75.2703 116.322 74.523 116.092 73.9214L116.911 66.2475L113.302 65.9399L112.878 73.5375C112.512 74.0681 112.247 74.7727 112.152 75.5643Z" fill="#A0616A"/>
<path d="M122.527 24.6006C122.527 24.6006 120.658 24.6272 119.419 27.0453C118.761 28.3302 115.242 52.3587 115.242 52.3587L111.999 72.0425L117.522 72.0704L121.827 53.4293L125.447 42.6178L122.527 24.6006Z" fill="#E6E6E6"/>
<path d="M138.071 72.6758C137.542 74.4185 138.012 76.104 139.121 76.4406C140.23 76.7772 141.558 75.6373 142.087 73.8947C142.318 73.1318 142.358 72.38 142.237 71.7474L144.386 64.335L140.886 63.4009L139.139 70.8071C138.687 71.2657 138.302 71.9129 138.071 72.6758Z" fill="#A0616A"/>
<path d="M141.915 23.3067C141.915 23.3067 144.628 21.2708 146.89 24.4355C149.152 27.6002 150.066 53.6018 150.066 53.6018L143.74 69.6574L138.991 68.0763L143.507 48.4037L135.588 33.4835L141.915 23.3067Z" fill="#E6E6E6"/>
<path d="M73.3211 128.674C86.8156 128.674 97.755 117.734 97.755 104.24C97.755 90.7451 86.8156 79.8057 73.3211 79.8057C59.8266 79.8057 48.8872 90.7451 48.8872 104.24C48.8872 117.734 59.8266 128.674 73.3211 128.674Z" fill="#D9FE51"/>
<path d="M73.3255 119.218C74.5645 119.218 75.5689 118.213 75.5689 116.974C75.5689 115.735 74.5645 114.731 73.3255 114.731C72.0865 114.731 71.082 115.735 71.082 116.974C71.082 118.213 72.0865 119.218 73.3255 119.218Z" fill="white"/>
<path d="M73.3159 89.2613C73.1099 90.6307 73.4791 90.9172 73.4811 96.8208C73.4832 102.724 74.7081 110.64 73.3233 110.64C71.9385 110.641 71.4321 94.3053 66.6235 92.8595C60.9699 91.1597 73.9831 84.8284 73.3159 89.2613Z" fill="white"/>
<path d="M40.5272 116.714L38.3197 121.379C40.9884 119.465 45.1569 117.815 48.474 116.932C45.3833 115.439 41.6014 113.032 39.3419 110.649L40.6116 115.577C25.7257 112.545 15.0359 101.125 15.0314 88.0439L14.4937 87.8589C14.4984 101.523 25.0403 113.619 40.5272 116.714Z" fill="#3F3D56"/>
</g>
<defs>
<clipPath id="clip0_3314_52729">
<rect width="175.613" height="140" fill="white" transform="translate(0.193359)"/>
</clipPath>
</defs>
</svg>
