<svg width="48" height="48" viewBox="0 0 48 48" fill="none" xmlns="http://www.w3.org/2000/svg">
<path d="M35.8934 43.4765C34.2034 43.4765 31.7934 42.8665 28.1834 40.8765C23.2034 38.1665 20.0434 35.8265 16.1534 31.9265C12.1034 27.9765 10.0734 25.2965 7.1034 19.9965C4.1034 14.6265 4.3234 11.4765 5.0334 9.77651C5.6634 8.39651 6.6334 7.36651 8.3034 6.28651C9.1034 5.70651 9.9134 5.27651 10.7934 4.94651C11.9834 4.41651 13.7134 4.02651 15.7834 6.08651C17.3834 7.68651 19.4934 11.2365 20.2634 12.7765C21.3734 15.1065 20.6634 16.2365 19.6934 17.3865C19.5034 17.6165 19.2834 17.8665 19.0634 18.1965C18.9034 18.4265 18.7534 18.6065 18.6234 18.7765C17.9834 19.5965 17.9134 19.7565 17.9934 20.1065C18.2034 21.0165 19.5834 23.6765 21.9734 25.9665C24.1634 28.2465 26.7234 29.6465 27.7734 29.8865C28.1234 29.9665 28.2834 29.8865 29.1034 29.2565C29.2834 29.1165 29.4634 28.9765 29.6534 28.8365C29.9434 28.6165 30.1934 28.3965 30.4134 28.1965C31.5934 27.1465 32.7634 26.3765 35.1334 27.6165C36.6534 28.3765 40.1934 30.4765 41.8034 32.0865L41.8434 32.1265C43.6334 34.0465 43.4634 35.6065 43.3534 36.6365L43.2534 37.1765C42.9234 38.0465 42.4834 38.8565 41.8734 39.7265C40.9034 41.2365 40.0034 42.2765 38.4334 42.9365C37.8034 43.2265 37.0134 43.4665 35.9334 43.4665L35.8934 43.4765ZM12.5534 7.53651C12.3534 7.53651 12.1634 7.61651 11.9234 7.72651C11.2134 7.99651 10.6334 8.31651 9.9834 8.77651C8.7434 9.57651 8.1334 10.1865 7.7734 10.9765C7.5634 11.4965 7.0134 13.6865 9.7134 18.5265C12.5534 23.5965 14.3834 26.0165 18.2534 29.7865C21.9434 33.4665 24.9134 35.6765 29.6234 38.2365C34.9734 41.1965 36.6434 40.4365 37.1834 40.1865C38.0134 39.8365 38.5034 39.3465 39.3434 38.0365C39.8034 37.3965 40.1034 36.8465 40.3334 36.2865C40.4134 35.4865 40.4534 35.0765 39.6234 34.1865C38.4134 32.9865 35.3834 31.1165 33.7334 30.2865C33.1234 29.9665 32.9134 29.9865 32.9234 29.9665C32.8534 29.9965 32.5834 30.2465 32.3734 30.4265C32.0934 30.6765 31.7834 30.9465 31.4034 31.2365C31.2134 31.3765 31.0634 31.4965 30.9034 31.6165C29.9834 32.3265 28.8434 33.2165 27.0634 32.8065C25.3334 32.4065 22.2834 30.6565 19.8134 28.0865C17.2434 25.6265 15.4234 22.4765 15.0334 20.7865C14.6234 19.0065 15.5034 17.8665 16.2134 16.9465C16.3334 16.7965 16.4534 16.6365 16.5734 16.4665C16.8334 16.0865 17.1134 15.7465 17.3634 15.4565C17.5334 15.2565 17.7734 14.9765 17.8034 14.8765C17.8034 14.8765 17.8134 14.6865 17.5334 14.0865C16.7134 12.4465 14.8234 9.39651 13.6234 8.20651C13.1134 7.69651 12.8034 7.52651 12.5234 7.52651L12.5534 7.53651Z" fill="#1F2024"/>
</svg>
