<svg width="48" height="48" viewBox="0 0 48 48" fill="current" xmlns="http://www.w3.org/2000/svg">
<path d="M41.6449 32.3109L41.6149 32.2809C40.0249 30.6909 36.5149 28.6109 35.0149 27.8609C32.7849 26.6909 31.7248 27.3809 30.5749 28.4009C30.3449 28.6009 30.0949 28.8309 29.7949 29.0509C29.6049 29.1909 29.4249 29.3309 29.2449 29.4609C28.4049 30.1109 28.1649 30.2409 27.7049 30.1409C26.8249 29.9409 24.2349 28.7109 21.7849 26.1609C19.3649 23.8309 17.9549 21.1209 17.7349 20.1809C17.6249 19.7209 17.7649 19.4809 18.4149 18.6409C18.5449 18.4709 18.6849 18.2909 18.8449 18.0709C19.0749 17.7409 19.2949 17.4809 19.4949 17.2409C20.4348 16.1209 21.0749 15.0909 20.0349 12.9009C19.2748 11.3709 17.1849 7.86093 15.6049 6.28093C13.6649 4.33093 12.0949 4.65093 10.8849 5.19093C10.0349 5.51093 9.24485 5.94093 8.44485 6.51093C6.79485 7.57093 5.88485 8.54093 5.27485 9.88093C4.58485 11.5309 4.38485 14.6009 7.33485 19.8709C10.2949 25.1509 12.3149 27.8109 16.3449 31.7409C20.2249 35.6209 23.3648 37.9509 28.3249 40.6509C31.8948 42.6209 34.2449 43.2209 35.9049 43.2209C36.9449 43.2209 37.7049 42.9909 38.3149 42.7109C39.8349 42.0809 40.6949 41.0709 41.6549 39.5809C42.2549 38.7309 42.6849 37.9409 43.0049 37.0909L43.0949 36.6109C43.2049 35.5609 43.3549 34.1309 41.6449 32.3009V32.3109Z" fill="current"/>
</svg>
