<svg width="48" height="48" viewBox="0 0 48 48" fill="current" xmlns="http://www.w3.org/2000/svg">
<path d="M9.6999 25.7999H22.1999V38.2999C22.1999 39.2899 23.0099 40.0999 23.9999 40.0999C24.9899 40.0999 25.7999 39.2899 25.7999 38.2999V25.7999H38.2999C39.2899 25.7999 40.0999 24.9899 40.0999 23.9999C40.0999 23.0099 39.2899 22.1999 38.2999 22.1999H25.7999V9.6999C25.7999 8.7099 24.9899 7.8999 23.9999 7.8999C23.0099 7.8999 22.1999 8.7099 22.1999 9.6999V22.1999H9.6999C8.7099 22.1999 7.8999 23.0099 7.8999 23.9999C7.8999 24.9899 8.7099 25.7999 9.6999 25.7999Z" fill="current"/>
</svg>
