<svg width="20" height="21" viewBox="0 0 20 21" fill="none" xmlns="http://www.w3.org/2000/svg">
<path fill-rule="evenodd" clip-rule="evenodd" d="M8.38092 18.6765C8.92094 18.778 9.46557 18.8288 10.0056 18.8288V18.8334C11.0949 18.8334 12.1703 18.6257 13.1765 18.2242C14.6673 17.6288 16.0012 16.5303 16.9335 15.1318C17.8612 13.7425 18.3505 12.1317 18.3505 10.4747C18.3505 8.22232 17.432 6.07148 15.9181 4.55298C14.4042 3.03447 12.2626 2.16675 10.0425 2.16675C8.38554 2.16675 6.77472 2.65599 5.38545 3.58371C4.03771 4.48374 2.97153 5.77609 2.29304 7.34075C1.6561 8.92849 1.50379 10.5947 1.84072 12.1317C2.13612 13.7286 2.92076 15.2056 4.11618 16.3964C5.3116 17.5872 6.78395 18.3765 8.38092 18.6765ZM8.91176 14.8456C8.91176 15.321 9.28562 15.6949 9.76101 15.6949C10.2364 15.6949 10.6103 15.3302 10.6103 14.8456C10.6103 14.361 10.2364 13.9964 9.76101 13.9964C9.28562 13.9964 8.91176 14.3702 8.91176 14.8456ZM9.09638 12.0025C9.09638 12.4871 9.35023 12.7732 9.77025 12.7732V12.7779C10.1949 12.7779 10.421 12.5009 10.421 11.984C10.421 11.2501 10.6841 10.8716 11.5472 10.3639C12.5534 9.75931 13.0427 8.96082 13.0427 7.91771C13.0427 6.37613 11.7965 5.30071 10.0103 5.30071C8.64867 5.30071 7.5871 5.90534 7.16709 6.91153C7.03324 7.19769 6.97785 7.44693 6.97785 7.74694C6.97785 8.14387 7.19478 8.37003 7.57787 8.37003C7.92404 8.37003 8.09019 8.21772 8.21481 7.77463C8.44559 6.93461 9.05022 6.49151 9.95948 6.49151C10.9657 6.49151 11.6395 7.08692 11.6395 7.97771C11.6395 8.67466 11.3349 9.11775 10.5272 9.61161C9.52562 10.2116 9.09638 10.867 9.09638 11.804V12.0025Z" fill="#C3C5C9"/>
</svg>
