<svg width="48" height="48" viewBox="0 0 48 48" fill="none" xmlns="http://www.w3.org/2000/svg">
<path fill-rule="evenodd" clip-rule="evenodd" d="M25.1375 12.2188C25.4067 12.2188 25.625 12.437 25.625 12.7063V14.4141H25.9015C26.928 14.3857 27.9435 14.6338 28.8415 15.1327C29.283 15.378 29.7726 15.7329 30.1713 16.104C30.3705 16.2894 30.5954 16.5234 30.7853 16.792C30.928 16.9936 31.272 17.5129 31.272 18.2125V19.5937C31.272 19.863 31.0538 20.0812 30.7845 20.0812H28.022C27.7528 20.0812 27.5345 19.863 27.5345 19.5937V19.0314C27.5345 18.8589 27.4603 18.693 27.3209 18.5914C27.2058 18.5075 27.1021 18.4419 27.0264 18.3999C26.7109 18.2245 26.3535 18.1383 25.9927 18.1505C25.9718 18.1512 25.9508 18.1516 25.9298 18.1516H25.625V22.1328H25.9298C27.449 22.1328 28.906 22.7363 29.9802 23.8105C31.0545 24.8848 31.658 26.3417 31.658 27.8609C31.658 29.3801 31.0545 30.8371 29.9802 31.9113C28.906 32.9856 27.449 33.5891 25.9298 33.5891H25.625V35.2937C25.625 35.563 25.4067 35.7812 25.1375 35.7812H22.8625C22.5933 35.7812 22.375 35.563 22.375 35.2937V33.5891H22.0989C21.0723 33.6174 20.0568 33.3693 19.1588 32.8704C18.7166 32.6247 18.2269 32.2692 17.8285 31.8982C17.6296 31.7128 17.405 31.479 17.2152 31.2109C17.0734 31.0105 16.7283 30.4909 16.7283 29.7906V28.4094C16.7283 28.1401 16.9465 27.9219 17.2158 27.9219H19.9783C20.2475 27.9219 20.4658 28.1401 20.4658 28.4094V28.9704C20.4658 29.1435 20.5402 29.3099 20.68 29.4119C20.7951 29.4959 20.8987 29.5614 20.9739 29.6032C21.2895 29.7786 21.6468 29.8648 22.0076 29.8526C22.0285 29.8519 22.0495 29.8516 22.0705 29.8516H22.375V25.8703H22.0705C20.5513 25.8703 19.0943 25.2668 18.0201 24.1926C16.9458 23.1183 16.3423 21.6614 16.3423 20.1422C16.3423 18.623 16.9458 17.166 18.0201 16.0918C19.0943 15.0175 20.5513 14.4141 22.0705 14.4141H22.375V12.7062C22.375 12.437 22.5933 12.2188 22.8625 12.2188H25.1375ZM22.0705 18.1516H22.375V22.1328H22.0705C21.5425 22.1328 21.0362 21.9231 20.6629 21.5498C20.2896 21.1764 20.0798 20.6701 20.0798 20.1422C20.0798 19.6142 20.2896 19.1079 20.6629 18.7346C21.0362 18.3613 21.5425 18.1516 22.0705 18.1516ZM25.625 29.8516V25.8703H25.9298C26.4578 25.8703 26.9641 26.08 27.3374 26.4533C27.7107 26.8267 27.9205 27.333 27.9205 27.8609C27.9205 28.3889 27.7107 28.8952 27.3374 29.2685C26.9641 29.6418 26.4578 29.8516 25.9298 29.8516H25.625Z" fill="#1F2024"/>
<path fill-rule="evenodd" clip-rule="evenodd" d="M43.5 24C43.5 34.7696 34.7696 43.5 24 43.5C13.2304 43.5 4.5 34.7696 4.5 24C4.5 13.2304 13.2304 4.5 24 4.5C34.7696 4.5 43.5 13.2304 43.5 24ZM40.6 24C40.6 33.1679 33.1679 40.6 24 40.6C14.8321 40.6 7.4 33.1679 7.4 24C7.4 14.8321 14.8321 7.4 24 7.4C33.1679 7.4 40.6 14.8321 40.6 24Z" fill="#1F2024"/>
</svg>
