<svg width="48" height="48" viewBox="0 0 48 48" fill="current" xmlns="http://www.w3.org/2000/svg">
<path fill-rule="evenodd" clip-rule="evenodd" d="M25.7729 11.6795C25.7729 11.3857 25.5348 11.1476 25.2411 11.1476H22.7592C22.4655 11.1476 22.2274 11.3857 22.2274 11.6795V13.5425H21.895C20.2377 13.5425 18.6483 14.2009 17.4764 15.3728C16.3045 16.5447 15.6461 18.1341 15.6461 19.7914C15.6461 21.4487 16.3045 23.0381 17.4764 24.21C18.6483 25.3819 20.2377 26.0402 21.895 26.0402H22.2274V30.3834H21.895C21.8721 30.3834 21.8493 30.3838 21.8264 30.3846C21.4328 30.3978 21.043 30.3038 20.6987 30.1125C20.6167 30.0669 20.5037 29.9955 20.3781 29.9038C20.2256 29.7926 20.1444 29.611 20.1444 29.4222V28.8101C20.1444 28.5164 19.9063 28.2783 19.6126 28.2783H16.599C16.3053 28.2783 16.0672 28.5164 16.0672 28.8101V30.317C16.0672 31.0809 16.4436 31.6478 16.5984 31.8664C16.8054 32.1588 17.0504 32.4139 17.2674 32.6161C17.702 33.0209 18.2362 33.4087 18.7186 33.6767C19.6983 34.221 20.8061 34.4917 21.926 34.4607H22.2274V36.3204C22.2274 36.6141 22.4655 36.8522 22.7592 36.8522H25.2411C25.5348 36.8522 25.7729 36.6141 25.7729 36.3204V34.4607H26.1052C27.7625 34.4607 29.3519 33.8023 30.5238 32.6304C31.6957 31.4586 32.3541 29.8691 32.3541 28.2118C32.3541 26.5545 31.6957 24.9651 30.5238 23.7932C29.3519 22.6213 27.7625 21.963 26.1052 21.963H25.7729V17.6198H26.1052C26.1281 17.6198 26.151 17.6194 26.1738 17.6186C26.5674 17.6054 26.9572 17.6994 27.3015 17.8907C27.384 17.9365 27.4972 18.0081 27.6228 18.0997C27.7748 18.2105 27.8558 18.3914 27.8558 18.5796V19.1931C27.8558 19.4868 28.0939 19.7249 28.3876 19.7249H31.4012C31.695 19.7249 31.9331 19.4868 31.9331 19.1931V17.6863C31.9331 16.923 31.5578 16.3566 31.4021 16.1366C31.1949 15.8436 30.9495 15.5883 30.7323 15.3861C30.2973 14.9812 29.7632 14.594 29.2816 14.3265C28.3019 13.7822 27.1941 13.5116 26.0743 13.5425H25.7729V11.6795ZM22.2274 17.6198H21.895C21.3191 17.6198 20.7667 17.8486 20.3595 18.2558C19.9522 18.6631 19.7234 19.2154 19.7234 19.7914C19.7234 20.3673 19.9522 20.9197 20.3595 21.3269C20.7667 21.7342 21.3191 21.963 21.895 21.963H22.2274V17.6198ZM25.7729 26.0402V30.3834H26.1052C26.6812 30.3834 27.2335 30.1546 27.6408 29.7474C28.048 29.3401 28.2768 28.7878 28.2768 28.2118C28.2768 27.6359 28.048 27.0835 27.6408 26.6763C27.2335 26.269 26.6812 26.0402 26.1052 26.0402H25.7729ZM24 43.5C34.7696 43.5 43.5 34.7696 43.5 24C43.5 13.2304 34.7696 4.5 24 4.5C13.2304 4.5 4.5 13.2304 4.5 24C4.5 34.7696 13.2304 43.5 24 43.5Z" fill="current"/>
</svg>
