<svg width="21" height="22" viewBox="0 0 21 22" fill="none" xmlns="http://www.w3.org/2000/svg">
<path d="M8.15002 21.185C7.86002 21.185 7.58502 21.085 7.36002 20.895C7.15002 20.72 7.00002 20.47 6.93502 20.195C6.93502 20.175 6.93002 20.16 6.92502 20.14L6.62502 18C6.23502 17.845 5.88502 17.635 5.57002 17.4L3.59502 18.215C3.30502 18.325 2.99502 18.325 2.72002 18.215C2.44502 18.115 2.22002 17.925 2.07502 17.67L0.170018 14.365C0.0250181 14.125 -0.0299819 13.825 0.0200181 13.53C0.0700181 13.24 0.225018 12.98 0.450018 12.79L2.17502 11.435C2.14502 11.25 2.13502 11.04 2.13502 10.835C2.13502 10.63 2.14502 10.425 2.16502 10.22L0.470018 8.9C0.225018 8.685 0.0800181 8.435 0.0300181 8.16C-0.0249819 7.87 0.0300181 7.57 0.185018 7.315L2.09502 4.01C2.25502 3.745 2.49002 3.555 2.76002 3.465C3.00502 3.375 3.29002 3.375 3.56502 3.465L5.62002 4.29C5.94002 4.05 6.29502 3.845 6.66002 3.67L6.93502 1.56C6.98502 1.255 7.13002 1 7.35002 0.81C7.55002 0.625 7.83002 0.515 8.12002 0.5H11.98C12.27 0.5 12.545 0.6 12.77 0.79C12.98 0.96 13.13 1.215 13.19 1.49C13.19 1.51 13.195 1.525 13.2 1.545L13.5 3.685C13.885 3.84 14.23 4.04 14.55 4.275L16.535 3.465C16.825 3.355 17.135 3.355 17.41 3.465C17.69 3.565 17.915 3.76 18.055 4.015L19.96 7.315C20.105 7.555 20.16 7.855 20.11 8.15C20.06 8.435 19.91 8.7 19.685 8.885L17.955 10.245C17.985 10.43 17.995 10.635 17.995 10.845C17.995 10.875 17.995 10.905 17.99 10.935C17.99 11.1 17.98 11.27 17.965 11.435L19.66 12.765C19.905 12.97 20.055 13.23 20.105 13.515C20.155 13.81 20.105 14.11 19.95 14.36L18.04 17.665C17.88 17.93 17.645 18.12 17.37 18.21C17.125 18.3 16.84 18.3 16.565 18.21L14.515 17.385C14.19 17.63 13.83 17.84 13.475 18.005L13.195 20.125C13.145 20.43 13 20.685 12.78 20.875C12.57 21.06 12.295 21.17 12 21.18H8.14002L8.15002 21.185ZM8.38002 19.685H11.75L12.015 17.775C12.045 17.54 12.14 17.31 12.285 17.11C12.42 16.915 12.62 16.75 12.85 16.645C13.12 16.52 13.405 16.355 13.685 16.16C13.885 16.02 14.105 15.935 14.35 15.905C14.595 15.875 14.85 15.905 15.075 16L16.855 16.715L18.54 13.8L16.705 12.36C16.495 12.195 16.385 11.925 16.425 11.66C16.465 11.38 16.485 11.105 16.485 10.84C16.485 10.815 16.485 10.785 16.485 10.76C16.485 10.62 16.475 10.485 16.465 10.345C16.445 10.11 16.485 9.87 16.575 9.645C16.665 9.42 16.82 9.22 17.02 9.065L18.54 7.87L16.855 4.955L15.075 5.675C14.85 5.765 14.6 5.8 14.35 5.77C14.105 5.74 13.865 5.645 13.655 5.495C13.415 5.315 13.155 5.165 12.85 5.025C12.615 4.92 12.41 4.755 12.265 4.55C12.125 4.36 12.03 4.125 12 3.89L11.735 2.005H8.36002L8.09502 3.915C8.06502 4.145 7.97002 4.375 7.82502 4.575C7.66502 4.78 7.48002 4.93 7.28002 5.03C6.98502 5.17 6.69502 5.34 6.41502 5.53C6.22002 5.665 5.99502 5.75 5.75002 5.78C5.50502 5.81 5.25502 5.78 5.02502 5.685L3.24502 4.97L1.56002 7.885L3.07502 9.075C3.27502 9.235 3.43002 9.435 3.52002 9.66C3.61002 9.87 3.65002 10.11 3.63002 10.35C3.61502 10.515 3.60502 10.68 3.60502 10.845C3.60502 11.01 3.61502 11.18 3.63002 11.345C3.65002 11.58 3.61002 11.82 3.52002 12.04C3.40502 12.29 3.26002 12.48 3.07502 12.625L1.55502 13.82L3.24002 16.735L5.02002 16.015C5.24502 15.925 5.49502 15.89 5.74502 15.92C5.98502 15.95 6.22502 16.045 6.43502 16.195C6.68002 16.38 6.93502 16.53 7.24002 16.67C7.48002 16.78 7.68002 16.945 7.82502 17.145C7.96502 17.33 8.06002 17.565 8.09002 17.805L8.35502 19.695L8.38002 19.685ZM3.37502 16.92V16.93C3.37502 16.93 3.37502 16.925 3.37502 16.92ZM1.46002 13.605V13.615C1.46002 13.615 1.46002 13.61 1.46002 13.605ZM18.665 13.605C18.665 13.605 18.665 13.605 18.665 13.61V13.605ZM16.755 4.745V4.755V4.745ZM10.06 14.45C9.85502 14.45 9.64502 14.43 9.44002 14.395C8.70002 14.27 8.03002 13.92 7.50002 13.39C6.97002 12.86 6.62002 12.18 6.49502 11.45C6.37002 10.71 6.47002 9.96 6.79502 9.285C7.12002 8.605 7.63502 8.05 8.28502 7.685C8.90502 7.33 9.61502 7.17 10.325 7.225C10.36 7.225 10.385 7.225 10.415 7.225C11.245 7.305 12.03 7.675 12.62 8.265C13.21 8.86 13.58 9.645 13.66 10.465C13.73 11.215 13.575 11.95 13.205 12.6C12.83 13.255 12.275 13.77 11.605 14.09C11.12 14.32 10.595 14.44 10.06 14.44V14.45ZM10.06 8.72C9.70002 8.72 9.34502 8.815 9.03002 8.995C8.64502 9.21 8.34502 9.535 8.15502 9.935C7.96502 10.33 7.90502 10.765 7.98002 11.2C8.05502 11.625 8.26002 12.025 8.56502 12.33C8.87502 12.64 9.26502 12.84 9.69502 12.915C10.13 12.99 10.565 12.93 10.96 12.74C11.355 12.55 11.68 12.25 11.905 11.865C12.115 11.49 12.21 11.055 12.17 10.615C12.125 10.135 11.905 9.68 11.56 9.33C11.235 9.005 10.805 8.795 10.345 8.73C10.32 8.73 10.3 8.73 10.275 8.73C10.205 8.725 10.13 8.72 10.06 8.72V8.72Z" fill="#1F2024"/>
</svg>
