<svg width="54" height="32" viewBox="0 0 54 32" fill="none" xmlns="http://www.w3.org/2000/svg">
<g clip-path="url(#clip0_1642_24056)">
<g clip-path="url(#clip1_1642_24056)">
<mask id="mask0_1642_24056" style="mask-type:luminance" maskUnits="userSpaceOnUse" x="0" y="0" width="54" height="32">
<path d="M54 0H0V32H54V0Z" fill="white"/>
</mask>
<g mask="url(#mask0_1642_24056)">
<path d="M38 0H16C7.16344 0 0 7.16344 0 16C0 24.8366 7.16344 32 16 32H38C46.8366 32 54 24.8366 54 16C54 7.16344 46.8366 0 38 0Z" fill="#8B8D94"/>
<g filter="url(#filter0_di_1642_24056)">
<path d="M29.5 16C29.5 23.1797 23.6797 29 16.5 29C9.3203 29 3.5 23.1797 3.5 16C3.5 8.8203 9.3203 3 16.5 3C23.6797 3 29.5 8.8203 29.5 16Z" fill="white"/>
</g>
</g>
</g>
</g>
<defs>
<filter id="filter0_di_1642_24056" x="0.5" y="2" width="30" height="30" filterUnits="userSpaceOnUse" color-interpolation-filters="sRGB">
<feFlood flood-opacity="0" result="BackgroundImageFix"/>
<feColorMatrix in="SourceAlpha" type="matrix" values="0 0 0 0 0 0 0 0 0 0 0 0 0 0 0 0 0 0 127 0" result="hardAlpha"/>
<feOffset dx="-1" dy="1"/>
<feGaussianBlur stdDeviation="1"/>
<feComposite in2="hardAlpha" operator="out"/>
<feColorMatrix type="matrix" values="0 0 0 0 0 0 0 0 0 0 0 0 0 0 0 0 0 0 0.03 0"/>
<feBlend mode="normal" in2="BackgroundImageFix" result="effect1_dropShadow_1642_24056"/>
<feBlend mode="normal" in="SourceGraphic" in2="effect1_dropShadow_1642_24056" result="shape"/>
<feColorMatrix in="SourceAlpha" type="matrix" values="0 0 0 0 0 0 0 0 0 0 0 0 0 0 0 0 0 0 127 0" result="hardAlpha"/>
<feOffset dx="-1" dy="1"/>
<feGaussianBlur stdDeviation="3"/>
<feComposite in2="hardAlpha" operator="arithmetic" k2="-1" k3="1"/>
<feColorMatrix type="matrix" values="0 0 0 0 0 0 0 0 0 0 0 0 0 0 0 0 0 0 0.16 0"/>
<feBlend mode="normal" in2="shape" result="effect2_innerShadow_1642_24056"/>
</filter>
<clipPath id="clip0_1642_24056">
<rect width="54" height="32" fill="white"/>
</clipPath>
<clipPath id="clip1_1642_24056">
<rect width="54" height="32" fill="white"/>
</clipPath>
</defs>
</svg>
