<svg width="178" height="140" viewBox="0 0 178 140" fill="none" xmlns="http://www.w3.org/2000/svg">
<g clip-path="url(#clip0_3314_56432)">
<path d="M109.296 124.344L104.548 128.715L108.321 122.385C105.349 116.995 100.488 112.336 100.488 112.336C100.488 112.336 90.4028 121.999 90.4028 129.594C90.4028 137.189 94.918 139.841 100.488 139.841C106.058 139.841 110.573 137.189 110.573 129.594C110.573 127.903 110.072 126.11 109.296 124.344Z" fill="#F2F2F2"/>
<path d="M103.327 128.951V129.326C103.305 133.677 102.571 137.073 101.131 139.464C101.111 139.499 101.089 139.532 101.068 139.567L100.907 139.469L100.753 139.373C102.351 136.791 102.916 133.142 102.936 129.346C102.938 129.224 102.94 129.1 102.938 128.976C102.933 127.369 102.834 125.743 102.677 124.164C102.666 124.042 102.653 123.918 102.64 123.794C102.421 121.71 102.106 119.72 101.784 117.991C101.761 117.868 101.737 117.746 101.713 117.626C101.155 114.701 100.586 112.583 100.457 112.114C100.442 112.056 100.433 112.025 100.431 112.017L100.607 111.967L100.609 111.966L100.787 111.916C100.788 111.923 100.82 112.029 100.872 112.225C101.07 112.959 101.585 114.951 102.091 117.579C102.113 117.698 102.138 117.82 102.16 117.943C102.423 119.346 102.681 120.914 102.884 122.559C102.936 122.973 102.983 123.38 103.023 123.782C103.038 123.907 103.051 124.031 103.062 124.153C103.233 125.86 103.321 127.459 103.327 128.951Z" fill="white"/>
<path d="M102.091 117.579C101.967 117.596 101.841 117.612 101.713 117.625C101.366 117.661 101.017 117.679 100.668 117.679C99.1801 117.681 97.7108 117.349 96.3682 116.708C96.2903 116.806 96.2125 116.904 96.1328 117.005C97.5451 117.694 99.0963 118.051 100.668 118.05C101.041 118.05 101.413 118.03 101.784 117.991C101.91 117.978 102.036 117.961 102.16 117.942C103.185 117.795 104.182 117.493 105.116 117.047C105.036 116.945 104.958 116.845 104.882 116.747C103.998 117.16 103.058 117.441 102.091 117.579Z" fill="white"/>
<path d="M103.024 123.782C102.896 123.79 102.768 123.793 102.64 123.793C102.601 123.795 102.56 123.795 102.521 123.795C100.909 123.795 99.3209 123.405 97.892 122.659C96.463 121.912 95.2357 120.832 94.3148 119.508C94.2406 119.618 94.1665 119.727 94.0942 119.838C95.0542 121.177 96.3193 122.268 97.7847 123.021C99.2502 123.773 100.874 124.166 102.521 124.166C102.573 124.166 102.625 124.166 102.677 124.164C102.807 124.162 102.935 124.158 103.063 124.153C105.041 124.051 106.949 123.382 108.558 122.225C108.498 122.116 108.439 122.007 108.378 121.897C106.815 123.033 104.954 123.688 103.024 123.782Z" fill="white"/>
<path d="M103.328 128.951C103.198 128.962 103.068 128.97 102.939 128.975C102.8 128.981 102.661 128.985 102.522 128.985C100.355 128.982 98.2479 128.278 96.5153 126.978C94.7826 125.677 93.5178 123.851 92.9101 121.771C92.8267 121.922 92.7433 122.07 92.6636 122.22C93.3483 124.295 94.6693 126.101 96.4389 127.381C98.2086 128.662 100.337 129.353 102.522 129.355C102.661 129.355 102.799 129.354 102.937 129.346C103.068 129.342 103.198 129.335 103.328 129.326C105.948 129.121 108.393 127.928 110.167 125.988C110.128 125.851 110.083 125.715 110.039 125.578C108.325 127.532 105.918 128.742 103.328 128.951Z" fill="white"/>
<path d="M24.3941 49.4024C37.8304 49.4024 48.7227 38.5101 48.7227 25.0738C48.7227 11.6374 37.8304 0.745117 24.3941 0.745117C10.9577 0.745117 0.0654297 11.6374 0.0654297 25.0738C0.0654297 38.5101 10.9577 49.4024 24.3941 49.4024Z" fill="#E4E4E4"/>
<path d="M24.394 45.3475C35.5909 45.3475 44.6679 36.2706 44.6679 25.0737C44.6679 13.8767 35.5909 4.7998 24.394 4.7998C13.197 4.7998 4.12012 13.8767 4.12012 25.0737C4.12012 36.2706 13.197 45.3475 24.394 45.3475Z" fill="#D9FE51"/>
<path d="M89 49.4024C102.436 49.4024 113.329 38.5101 113.329 25.0738C113.329 11.6374 102.436 0.745117 89 0.745117C75.5637 0.745117 64.6714 11.6374 64.6714 25.0738C64.6714 38.5101 75.5637 49.4024 89 49.4024Z" fill="#E4E4E4"/>
<path d="M88.9999 45.3475C100.197 45.3475 109.274 36.2706 109.274 25.0737C109.274 13.8767 100.197 4.7998 88.9999 4.7998C77.803 4.7998 68.7261 13.8767 68.7261 25.0737C68.7261 36.2706 77.803 45.3475 88.9999 45.3475Z" fill="white"/>
<path d="M153.606 49.4024C167.042 49.4024 177.935 38.5101 177.935 25.0738C177.935 11.6374 167.042 0.745117 153.606 0.745117C140.17 0.745117 129.277 11.6374 129.277 25.0738C129.277 38.5101 140.17 49.4024 153.606 49.4024Z" fill="#E4E4E4"/>
<path d="M153.606 45.3475C164.803 45.3475 173.88 36.2706 173.88 25.0737C173.88 13.8767 164.803 4.7998 153.606 4.7998C142.409 4.7998 133.333 13.8767 133.333 25.0737C133.333 36.2706 142.409 45.3475 153.606 45.3475Z" fill="white"/>
<path d="M22.6714 32.4054C22.6352 32.4054 22.5989 32.4045 22.5625 32.4027C22.2419 32.3873 21.9284 32.3027 21.6435 32.1546C21.3587 32.0066 21.1092 31.7988 20.9122 31.5453L17.8023 27.5468C17.4402 27.0802 17.278 26.4889 17.3512 25.9028C17.4245 25.3167 17.7272 24.7835 18.193 24.4203L18.3049 24.3332C18.7716 23.9711 19.3629 23.8089 19.949 23.8822C20.5352 23.9554 21.0683 24.2581 21.4316 24.7239C21.6069 24.9493 21.8288 25.1342 22.0821 25.2658C22.3354 25.3975 22.6142 25.4728 22.8994 25.4867C23.1846 25.5006 23.4694 25.4527 23.7343 25.3464C23.9993 25.24 24.2381 25.0776 24.4344 24.8703L30.7492 18.2045C30.9504 17.9921 31.1915 17.8214 31.4587 17.7022C31.7259 17.5829 32.014 17.5175 32.3065 17.5096C32.599 17.5017 32.8901 17.5515 33.1634 17.6561C33.4366 17.7608 33.6866 17.9182 33.899 18.1195L34.0021 18.2172C34.431 18.6235 34.6809 19.1837 34.6969 19.7743C34.7128 20.365 34.4935 20.9378 34.0871 21.3667L24.2883 31.7096C24.0803 31.9295 23.8296 32.1045 23.5516 32.2242C23.2736 32.3438 22.9741 32.4055 22.6714 32.4054Z" fill="white"/>
<path d="M78.3223 20.1476H62.3091V6.22117C62.3256 5.35888 62.6833 4.53829 63.3038 3.93931C63.9243 3.34033 64.757 3.01183 65.6194 3.02582H70.9422C75.0116 3.02582 78.3223 6.22152 78.3223 10.1496V20.1476Z" fill="#2F2E41"/>
<path d="M84.2508 136.683L81.211 136.683L79.7646 124.958L84.2513 124.958L84.2508 136.683Z" fill="#FFB6B6"/>
<path d="M85.0261 139.63L75.2241 139.63V139.506C75.2242 138.494 75.6262 137.523 76.3416 136.808C77.0571 136.092 78.0275 135.69 79.0393 135.69L85.0263 135.691L85.0261 139.63Z" fill="#2F2E41"/>
<path d="M56.2313 136.683L53.1912 136.683L51.7451 124.958L56.2318 124.958L56.2313 136.683Z" fill="#FFB6B6"/>
<path d="M57.0066 139.63L47.2046 139.63V139.506C47.2047 138.494 47.6066 137.523 48.3221 136.808C49.0376 136.092 50.008 135.69 51.0198 135.69L57.0068 135.691L57.0066 139.63Z" fill="#2F2E41"/>
<path d="M59.9021 42.4839L57.9185 55.1299L76.7633 55.3777L74.2837 43.2279L59.9021 42.4839Z" fill="#FFB6B6"/>
<path d="M58.4651 52.042L52.4631 68.0236L51.7192 134.254H56.8024L68.9524 81.0415L80.1106 132.865H85.0698L81.5983 74.5946C81.5983 74.5946 82.622 62.899 77.383 55.9976L76.1078 52.3134L58.4651 52.042Z" fill="#2F2E41"/>
<path d="M84.2104 64.5005C83.6857 64.3575 83.1987 64.1012 82.7838 63.7497C82.3689 63.3981 82.0361 62.9599 81.8088 62.4658C81.5816 61.9717 81.4654 61.4338 81.4686 60.89C81.4717 60.3461 81.5941 59.8096 81.827 59.3182L73.8101 33.1811L79.7068 32.0122L87.039 57.632C87.8387 58.078 88.447 58.8019 88.7486 59.6664C89.0502 60.5309 89.0242 61.476 88.6755 62.3227C88.3269 63.1693 87.6797 63.8586 86.8568 64.26C86.0338 64.6614 85.0922 64.747 84.2104 64.5005Z" fill="#FFB6B6"/>
<path d="M73.601 49.4675L60.6108 49.2167C60.2395 49.2088 59.881 49.0794 59.5903 48.8484C59.2995 48.6173 59.0926 48.2973 59.001 47.9374C58.3046 45.1802 56.7725 37.9946 57.5852 30.8377C57.7456 29.4513 58.1824 28.1111 58.8698 26.8964C59.5573 25.6818 60.4813 24.6173 61.5874 23.7661C62.6934 22.9149 63.959 22.2941 65.3091 21.9405C66.6593 21.587 68.0667 21.5078 69.448 21.7077C70.9051 21.9163 72.3016 22.4307 73.546 23.217C74.7903 24.0033 75.8544 25.0438 76.6683 26.2703C77.4822 27.4967 78.0276 28.8814 78.2688 30.3335C78.5099 31.7856 78.4413 33.2723 78.0674 34.696C76.4322 40.9057 75.5086 45.3481 75.3222 47.9003C75.2946 48.2693 75.147 48.6191 74.9019 48.8963C74.6568 49.1736 74.3277 49.3629 73.9648 49.4355C73.8569 49.457 73.7472 49.4678 73.6372 49.4679C73.6251 49.4679 73.6131 49.4677 73.601 49.4675Z" fill="#E4E4E4"/>
<path d="M34.1422 26.5091C34.2202 26.6841 34.2843 26.865 34.3339 27.0501L50.5941 32.5754L53.736 29.8306L58.4981 34.0309L53.4082 39.4306C52.997 39.8668 52.4554 40.1579 51.8647 40.2601C51.274 40.3623 50.666 40.2702 50.1322 39.9975L32.7328 31.1099C32.1036 31.4959 31.3718 31.6811 30.6348 31.641C29.8977 31.6009 29.1903 31.3374 28.6067 30.8854C28.0231 30.4335 27.5909 29.8146 27.3676 29.111C27.1443 28.4074 27.1405 27.6526 27.3567 26.9468C27.5729 26.241 27.9988 25.6178 28.5779 25.16C29.1569 24.7022 29.8616 24.4315 30.5983 24.384C31.3349 24.3365 32.0685 24.5144 32.7016 24.894C33.3346 25.2736 33.8371 25.8369 34.1422 26.5091Z" fill="#FFB6B6"/>
<path d="M50.6275 31.6945C50.6287 31.4706 50.6783 31.2496 50.7728 31.0466C50.8672 30.8435 51.0044 30.6633 51.1749 30.5181L57.1287 25.4466C57.8821 24.5832 58.9472 24.0539 60.0903 23.9747C61.2335 23.8955 62.3614 24.273 63.2267 25.0242C64.0919 25.7755 64.6239 26.8393 64.7059 27.9823C64.7879 29.1253 64.4133 30.2541 63.6641 31.1212L59.4243 37.7234C59.3033 37.9118 59.1431 38.0719 58.9547 38.1928C58.7662 38.3138 58.5539 38.3926 58.3322 38.4241C58.1104 38.4556 57.8846 38.4389 57.6699 38.3752C57.4552 38.3115 57.2568 38.2022 57.0881 38.0549L51.1606 32.8777C50.9919 32.7305 50.8569 32.5485 50.7649 32.3443C50.6729 32.1401 50.626 31.9185 50.6275 31.6945Z" fill="#E4E4E4"/>
<path d="M73.4508 39.8018C73.2526 39.6976 73.0792 39.5518 72.9425 39.3745C72.8058 39.1971 72.7089 38.9924 72.6586 38.7742L70.8983 31.1539C70.479 30.0876 70.4997 28.8985 70.9559 27.8474C71.412 26.7964 72.2664 25.9691 73.3316 25.547C74.3968 25.1249 75.5859 25.1425 76.6381 25.5959C77.6904 26.0492 78.52 26.9014 78.9449 27.9655L82.8531 34.7692C82.9646 34.9633 83.033 35.1793 83.0536 35.4022C83.0741 35.6252 83.0464 35.85 82.9722 36.0613C82.898 36.2726 82.7792 36.4654 82.6238 36.6267C82.4684 36.7879 82.2801 36.9137 82.0717 36.9956L74.7465 39.8734C74.5381 39.9553 74.3145 39.9914 74.0908 39.979C73.8672 39.9667 73.6489 39.9062 73.4508 39.8018Z" fill="#E4E4E4"/>
<path d="M79.7525 4.38638C80.354 2.97832 79.3196 1.18676 77.4422 0.384795C75.5648 -0.417168 73.5553 0.074161 72.9538 1.48222C72.3523 2.89028 73.3867 4.68186 75.2641 5.48382C77.1415 6.28578 79.151 5.79444 79.7525 4.38638Z" fill="#2F2E41"/>
<path d="M73.9288 14.8531C75.9372 11.179 74.5869 6.57249 70.9129 4.56408C67.2388 2.55567 62.6323 3.90593 60.6239 7.57997C58.6154 11.254 59.9657 15.8606 63.6397 17.869C67.3138 19.8774 71.9203 18.5271 73.9288 14.8531Z" fill="#FFB6B6"/>
<path d="M71.4354 2.53293H62.7634C62.1276 2.5247 61.5123 2.75713 61.0407 3.18362C60.5691 3.6101 60.2763 4.1991 60.2208 4.83249C60.1984 5.16908 60.2453 5.50669 60.3587 5.82441C60.4721 6.14212 60.6495 6.43316 60.8799 6.6795C61.1104 6.92584 61.389 7.12223 61.6985 7.25649C62.0079 7.39076 62.3417 7.46005 62.679 7.46006C63.3324 7.46006 63.959 7.71961 64.421 8.18162C64.883 8.64362 65.1426 9.27024 65.1426 9.92362V20.0242H78.6922V9.78977C78.6922 8.83678 78.5045 7.89313 78.1398 7.01269C77.7751 6.13225 77.2406 5.33227 76.5667 4.65841C75.8929 3.98454 75.0929 3.45001 74.2124 3.08532C73.332 2.72063 72.3883 2.53293 71.4354 2.53293Z" fill="#2F2E41"/>
<path d="M114.184 140H20.322C20.2567 140 20.194 139.974 20.1478 139.928C20.1016 139.882 20.0757 139.819 20.0757 139.754C20.0757 139.688 20.1016 139.626 20.1478 139.579C20.194 139.533 20.2567 139.507 20.322 139.507H114.184C114.249 139.507 114.312 139.533 114.358 139.579C114.404 139.626 114.43 139.688 114.43 139.754C114.43 139.819 114.404 139.882 114.358 139.928C114.312 139.974 114.249 140 114.184 140Z" fill="#CACACA"/>
</g>
<defs>
<clipPath id="clip0_3314_56432">
<rect width="177.869" height="140" fill="white" transform="translate(0.0654297)"/>
</clipPath>
</defs>
</svg>
