<svg width="16" height="16" viewBox="0 0 16 16" fill="none" xmlns="http://www.w3.org/2000/svg">
<path d="M7.14906 7.99794L3.72303 11.4273C3.48969 11.6606 3.48806 12.0423 3.72139 12.2789C3.95472 12.5123 4.33636 12.5106 4.57303 12.2773L7.99906 8.84794L11.4297 12.2752C11.663 12.5119 12.0416 12.5105 12.2749 12.2738C12.5116 12.0405 12.513 11.6619 12.2763 11.4286L8.84906 7.99794L12.2748 4.56888C12.5081 4.33555 12.5097 3.95392 12.2764 3.71726C12.1597 3.60059 12.0048 3.54218 11.8515 3.54218C11.6982 3.54218 11.5455 3.60152 11.4288 3.71819L7.99906 7.14794L4.56818 3.71707C4.45151 3.6004 4.29884 3.54106 4.14551 3.54106C3.99217 3.54106 3.83961 3.60182 3.72294 3.71849C3.48961 3.95182 3.48887 4.33109 3.7222 4.56776L7.14906 7.99794Z" fill="#C3C5C9"/>
</svg>
