<svg width="48" height="48" viewBox="0 0 48 48" fill="current" xmlns="http://www.w3.org/2000/svg">
<path d="M38.1508 9.84915C30.352 2.05028 17.648 2.05028 9.84915 9.84915C2.05028 17.648 2.05028 30.352 9.84915 38.1508C17.648 45.9497 30.352 45.9497 38.1508 38.1508C45.9497 30.352 45.9497 17.648 38.1508 9.84915ZM28.3509 30.5264L24 26.1755L19.6491 30.5264C19.3617 30.8138 18.9718 30.9779 18.5613 30.9779C18.1508 30.9779 17.7609 30.8138 17.4736 30.5264C17.1862 30.2391 17.0221 29.8492 17.0221 29.4387C17.0221 29.0282 17.1862 28.6383 17.4736 28.3509L21.8245 24L17.4736 19.6491C17.1862 19.3617 17.0221 18.9718 17.0221 18.5613C17.0221 18.1508 17.1862 17.7609 17.4736 17.4736C17.7609 17.1862 18.1508 17.0221 18.5613 17.0221C18.9718 17.0221 19.3617 17.1862 19.6491 17.4736L24 21.8245L28.3509 17.4736C28.6383 17.1862 29.0282 17.0221 29.4387 17.0221C29.8492 17.0221 30.2391 17.1862 30.5264 17.4736C30.8138 17.7609 30.9779 18.1508 30.9779 18.5613C30.9779 18.9718 30.8138 19.3617 30.5264 19.6491L26.1755 24L30.5264 28.3509C30.8138 28.6383 30.9779 29.0282 30.9779 29.4387C30.9779 29.8492 30.8138 30.2391 30.5264 30.5264C30.2391 30.8138 29.8492 30.9779 29.4387 30.9779C29.0282 30.9779 28.6383 30.8138 28.3509 30.5264Z" fill="current"/>
</svg>
