<svg width="16" height="12" viewBox="0 0 16 12" fill="none" xmlns="http://www.w3.org/2000/svg">
<g clip-path="url(#clip0_1266_16391)">
<rect width="16" height="12" fill="white"/>
<path fill-rule="evenodd" clip-rule="evenodd" d="M0 0H16V12H0V0Z" fill="#E31D1C"/>
<path fill-rule="evenodd" clip-rule="evenodd" d="M3.55692 4.87756L1.61027 6.40328L2.3536 4.09597L1.05542 2.89621L2.81322 2.83133L3.55692 0.974121L4.30061 2.83133H6.05542L4.76023 4.09597L5.35025 6.40328L3.55692 4.87756Z" fill="#FECA00"/>
<path fill-rule="evenodd" clip-rule="evenodd" d="M7.50805 3.08585L6.69119 3.57898L6.87751 2.61668L6.19727 1.89648L7.11835 1.85754L7.50805 0.958984L7.89774 1.85754H8.81727L8.13859 2.61668L8.34291 3.57898L7.50805 3.08585Z" fill="#FECA00"/>
<path fill-rule="evenodd" clip-rule="evenodd" d="M8.50805 5.08585L7.69119 5.57898L7.87751 4.61668L7.19727 3.89648L8.11835 3.85754L8.50805 2.95898L8.89774 3.85754H9.81727L9.13859 4.61668L9.34291 5.57898L8.50805 5.08585Z" fill="#FECA00"/>
<path fill-rule="evenodd" clip-rule="evenodd" d="M7.50805 7.08585L6.69119 7.57898L6.87751 6.61668L6.19727 5.89648L7.11835 5.85754L7.50805 4.95898L7.89774 5.85754H8.81727L8.13859 6.61668L8.34291 7.57898L7.50805 7.08585Z" fill="#FECA00"/>
<path fill-rule="evenodd" clip-rule="evenodd" d="M5.50805 8.08585L4.69119 8.57898L4.87751 7.61668L4.19727 6.89648L5.11835 6.85754L5.50805 5.95898L5.89774 6.85754H6.81727L6.13859 7.61668L6.34291 8.57898L5.50805 8.08585Z" fill="#FECA00"/>
</g>
<defs>
<clipPath id="clip0_1266_16391">
<rect width="16" height="12" fill="white"/>
</clipPath>
</defs>
</svg>
