<svg width="20" height="15" viewBox="0 0 20 15" fill="none" xmlns="http://www.w3.org/2000/svg">
<g clip-path="url(#clip0_1266_16401)">
<rect width="20" height="15" fill="white"/>
<path fill-rule="evenodd" clip-rule="evenodd" d="M0 0H20V15H0V0Z" fill="#E31D1C"/>
<path fill-rule="evenodd" clip-rule="evenodd" d="M4.44621 6.09707L2.01289 8.00422L2.94206 5.12008L1.31934 3.62038L3.51659 3.53929L4.44621 1.21777L5.37582 3.53929H7.56934L5.95035 5.12008L6.68788 8.00422L4.44621 6.09707Z" fill="#FECA00"/>
<path fill-rule="evenodd" clip-rule="evenodd" d="M9.38531 3.85731L8.36423 4.47373L8.59713 3.27085L7.74683 2.3706L8.89819 2.32193L9.38531 1.19873L9.87242 2.32193H11.0218L10.1735 3.27085L10.4289 4.47373L9.38531 3.85731Z" fill="#FECA00"/>
<path fill-rule="evenodd" clip-rule="evenodd" d="M10.6353 6.35731L9.61423 6.97373L9.84713 5.77085L8.99683 4.8706L10.1482 4.82193L10.6353 3.69873L11.1224 4.82193H12.2718L11.4235 5.77085L11.6789 6.97373L10.6353 6.35731Z" fill="#FECA00"/>
<path fill-rule="evenodd" clip-rule="evenodd" d="M9.38531 8.85731L8.36423 9.47373L8.59713 8.27085L7.74683 7.3706L8.89819 7.32193L9.38531 6.19873L9.87242 7.32193H11.0218L10.1735 8.27085L10.4289 9.47373L9.38531 8.85731Z" fill="#FECA00"/>
<path fill-rule="evenodd" clip-rule="evenodd" d="M6.88531 10.1073L5.86423 10.7237L6.09713 9.52085L5.24683 8.6206L6.39819 8.57193L6.88531 7.44873L7.37242 8.57193H8.52183L7.67348 9.52085L7.92888 10.7237L6.88531 10.1073Z" fill="#FECA00"/>
</g>
<defs>
<clipPath id="clip0_1266_16401">
<rect width="20" height="15" fill="white"/>
</clipPath>
</defs>
</svg>
