<svg width="16" height="12" viewBox="0 0 16 12" fill="none" xmlns="http://www.w3.org/2000/svg">
<g clip-path="url(#clip0_1266_15992)">
<rect width="16" height="12" fill="white"/>
<path fill-rule="evenodd" clip-rule="evenodd" d="M0 0V12H16V0H0Z" fill="#EA1A1A"/>
<mask id="mask0_1266_15992" style="mask-type:luminance" maskUnits="userSpaceOnUse" x="0" y="0" width="16" height="12">
<path fill-rule="evenodd" clip-rule="evenodd" d="M0 0V12H16V0H0Z" fill="white"/>
</mask>
<g mask="url(#mask0_1266_15992)">
<path fill-rule="evenodd" clip-rule="evenodd" d="M7.93486 5.78748C7.93486 5.78748 5.04002 3.20585 8.49444 1.70166C8.49444 1.70166 9.49905 2.80997 8.7454 4.0542C8.49814 4.46228 8.2896 4.75369 8.13289 4.97268C7.81181 5.42135 7.70825 5.56606 7.93486 5.78748ZM3.66248 3.93385C3.46366 7.69627 7.06713 6.26113 7.06713 6.26113C6.76789 6.36478 6.68474 6.20746 6.42703 5.71986L6.42703 5.71985C6.30119 5.48176 6.13373 5.16491 5.87916 4.76125C5.1032 3.53077 3.66248 3.93385 3.66248 3.93385ZM9.11918 5.91362C9.11918 5.91362 12.8351 7.02608 10.3431 9.8519C10.3431 9.8519 8.96345 9.27331 9.11918 7.8271C9.17028 7.35288 9.2357 7.00066 9.28488 6.73593C9.38567 6.19333 9.41819 6.01827 9.11918 5.91362ZM8.14247 6.78095C8.14247 6.78095 8.80864 10.6021 5.16694 9.63644C5.16694 9.63644 5.0678 8.14375 6.43103 7.63651C6.87819 7.4701 7.22256 7.37112 7.48135 7.29673L7.48136 7.29673L7.48139 7.29672L7.48139 7.29672C8.01159 7.14432 8.1826 7.09517 8.14247 6.78095ZM12.7394 5.13775C10.4617 2.13666 8.63702 5.55934 8.63702 5.55934C8.79864 5.28692 8.9637 5.35335 9.47524 5.55921C9.72511 5.65976 10.0576 5.79358 10.5128 5.93743C11.8998 6.37578 12.7394 5.13775 12.7394 5.13775Z" fill="white"/>
<path d="M5.08057 5.104C5.08057 5.104 5.80847 6.24958 7.00052 6.24958" stroke="#EA1A1A" stroke-width="0.5"/>
<path d="M7.93018 3.5249C7.93018 3.5249 7.27694 4.73002 7.83657 5.78254" stroke="#EA1A1A" stroke-width="0.5"/>
<path d="M11.0549 4.88086C11.0549 4.88086 9.52984 4.64966 8.7322 5.53552" stroke="#EA1A1A" stroke-width="0.5"/>
<path d="M10.1641 7.67236C10.1641 7.67236 9.85971 6.16017 8.75446 5.71362" stroke="#EA1A1A" stroke-width="0.5"/>
<path d="M6.96655 8.49316C6.96655 8.49316 8.28346 7.68996 8.32506 6.49865" stroke="#EA1A1A" stroke-width="0.5"/>
</g>
</g>
<defs>
<clipPath id="clip0_1266_15992">
<rect width="16" height="12" fill="white"/>
</clipPath>
</defs>
</svg>
