<svg width="32" height="24" viewBox="0 0 32 24" fill="none" xmlns="http://www.w3.org/2000/svg">
<g clip-path="url(#clip0_1266_16024)">
<rect width="32" height="24" fill="white"/>
<path fill-rule="evenodd" clip-rule="evenodd" d="M0 0V24H32V0H0Z" fill="#EA1A1A"/>
<mask id="mask0_1266_16024" style="mask-type:luminance" maskUnits="userSpaceOnUse" x="0" y="0" width="32" height="24">
<path fill-rule="evenodd" clip-rule="evenodd" d="M0 0V24H32V0H0Z" fill="white"/>
</mask>
<g mask="url(#mask0_1266_16024)">
<path fill-rule="evenodd" clip-rule="evenodd" d="M15.8695 11.575C15.8695 11.575 10.0798 6.4117 16.9886 3.40332C16.9886 3.40332 18.9979 5.61994 17.4906 8.1084C16.996 8.92457 16.579 9.50738 16.2655 9.94536C15.6234 10.8427 15.4163 11.1321 15.8695 11.575ZM7.32471 7.8677C6.92707 15.3925 14.134 12.5223 14.134 12.5223C13.5355 12.7296 13.3692 12.4149 12.8538 11.4397L12.8538 11.4397C12.6021 10.9635 12.2672 10.3298 11.7581 9.5225C10.2061 7.06154 7.32471 7.8677 7.32471 7.8677ZM18.2381 11.8272C18.2381 11.8272 25.67 14.0522 20.686 19.7038C20.686 19.7038 17.9267 18.5466 18.2381 15.6542C18.3403 14.7058 18.4712 14.0013 18.5695 13.4719C18.7711 12.3867 18.8361 12.0365 18.2381 11.8272ZM16.2847 13.5619C16.2847 13.5619 17.617 21.2042 10.3336 19.2729C10.3336 19.2729 10.1353 16.2875 12.8618 15.273C13.7561 14.9402 14.4449 14.7422 14.9625 14.5935L14.9625 14.5935L14.9625 14.5934L14.9625 14.5934C16.0229 14.2886 16.365 14.1903 16.2847 13.5619ZM25.4786 10.2755C20.9232 4.27332 17.2738 11.1187 17.2738 11.1187C17.597 10.5738 17.9272 10.7067 18.9502 11.1184C19.45 11.3195 20.115 11.5872 21.0254 11.8749C23.7993 12.7516 25.4786 10.2755 25.4786 10.2755Z" fill="white"/>
<path d="M9.9502 10.3424L10.3722 10.0742C11.2985 11.5321 12.5008 12.2495 14.0011 12.2495V12.7495C12.3226 12.7495 10.9649 11.9394 9.9502 10.3424Z" fill="#EA1A1A"/>
<path fill-rule="evenodd" clip-rule="evenodd" d="M21.75 10.75C22.1642 10.75 22.5 10.4142 22.5 10C22.5 9.58579 22.1642 9.25 21.75 9.25C21.3358 9.25 21 9.58579 21 10C21 10.4142 21.3358 10.75 21.75 10.75Z" fill="#EA1A1A"/>
<path fill-rule="evenodd" clip-rule="evenodd" d="M19.9585 15.728C20.3727 15.728 20.7085 15.3922 20.7085 14.978C20.7085 14.5638 20.3727 14.228 19.9585 14.228C19.5443 14.228 19.2085 14.5638 19.2085 14.978C19.2085 15.3922 19.5443 15.728 19.9585 15.728Z" fill="#EA1A1A"/>
<path fill-rule="evenodd" clip-rule="evenodd" d="M13.9585 17.728C14.3727 17.728 14.7085 17.3922 14.7085 16.978C14.7085 16.5638 14.3727 16.228 13.9585 16.228C13.5443 16.228 13.2085 16.5638 13.2085 16.978C13.2085 17.3922 13.5443 17.728 13.9585 17.728Z" fill="#EA1A1A"/>
<path fill-rule="evenodd" clip-rule="evenodd" d="M9.9585 10.728C10.3727 10.728 10.7085 10.3922 10.7085 9.97803C10.7085 9.56381 10.3727 9.22803 9.9585 9.22803C9.54428 9.22803 9.2085 9.56381 9.2085 9.97803C9.2085 10.3922 9.54428 10.728 9.9585 10.728Z" fill="#EA1A1A"/>
<path fill-rule="evenodd" clip-rule="evenodd" d="M15.9585 7.72803C16.3727 7.72803 16.7085 7.39224 16.7085 6.97803C16.7085 6.56381 16.3727 6.22803 15.9585 6.22803C15.5443 6.22803 15.2085 6.56381 15.2085 6.97803C15.2085 7.39224 15.5443 7.72803 15.9585 7.72803Z" fill="#EA1A1A"/>
<path d="M15.6345 7.05255L16.0741 7.29082C15.2415 8.82681 15.1827 10.2435 15.8878 11.5696L15.4463 11.8043C14.659 10.3236 14.7251 8.73021 15.6345 7.05255Z" fill="#EA1A1A"/>
<path d="M22.015 9.68604L21.9401 10.1804C19.9843 9.8839 18.5203 10.2965 17.5179 11.4098L17.1463 11.0753C18.2709 9.82626 19.9039 9.366 22.015 9.68604Z" fill="#EA1A1A"/>
<path d="M20.3511 15.3651L19.8609 15.4637C19.4706 13.5245 18.5822 12.2899 17.1932 11.7287L17.3805 11.2651C18.9388 11.8947 19.9298 13.2718 20.3511 15.3651Z" fill="#EA1A1A"/>
<path d="M13.9065 17.1502L13.6462 16.7234C15.335 15.6933 16.1912 14.4362 16.2435 12.939L16.7432 12.9565C16.6845 14.6361 15.7294 16.0384 13.9065 17.1502Z" fill="#EA1A1A"/>
</g>
</g>
<defs>
<clipPath id="clip0_1266_16024">
<rect width="32" height="24" fill="white"/>
</clipPath>
</defs>
</svg>
