<svg width="16" height="12" viewBox="0 0 16 12" fill="none" xmlns="http://www.w3.org/2000/svg">
<g clip-path="url(#clip0_1266_15605)">
<rect width="16" height="12" fill="white"/>
<path fill-rule="evenodd" clip-rule="evenodd" d="M0 0V12H16V0H0Z" fill="#F7FCFF"/>
<mask id="mask0_1266_15605" style="mask-type:luminance" maskUnits="userSpaceOnUse" x="0" y="0" width="16" height="12">
<path fill-rule="evenodd" clip-rule="evenodd" d="M0 0V12H16V0H0Z" fill="white"/>
</mask>
<g mask="url(#mask0_1266_15605)">
<path fill-rule="evenodd" clip-rule="evenodd" d="M0 0V4H16V0H0Z" fill="#5EAA22"/>
<path fill-rule="evenodd" clip-rule="evenodd" d="M0 8V12H16V8H0Z" fill="#E31D1C"/>
<path d="M0.186342 8.68379H-0.950684" stroke="#F7FCFF" stroke-width="0.5"/>
<path d="M-0.962402 9.13405V8.87305H-0.592269V9.12529H-0.218255V8.87333H-0.412299" stroke="#F7FCFF" stroke-width="0.5"/>
<path d="M0.169181 9.12328H-0.0192871V8.87837H0.377528V8.67773V9.12328H0.557096V8.67773" stroke="#F7FCFF" stroke-width="0.5"/>
<path d="M0.759146 8.7041C0.759146 8.72873 0.759146 9.12502 0.759146 9.12502H0.572754" stroke="#F7FCFF" stroke-width="0.5"/>
<path d="M2.13751 8.68379H1.00049" stroke="#F7FCFF" stroke-width="0.5"/>
<path d="M0.98877 9.13405V8.87305H1.3589V9.12529H1.73292V8.87333H1.53887" stroke="#F7FCFF" stroke-width="0.5"/>
<path d="M2.15527 9.12328H1.9668V8.87837H2.36361V8.67773V9.12328H2.54318V8.67773" stroke="#F7FCFF" stroke-width="0.5"/>
<path d="M2.74523 8.7041C2.74523 8.72873 2.74523 9.12502 2.74523 9.12502H2.55884" stroke="#F7FCFF" stroke-width="0.5"/>
<path d="M4.1236 8.68379H2.98657" stroke="#F7FCFF" stroke-width="0.5"/>
<path d="M2.97485 9.13405V8.87305H3.34499V9.12529H3.719V8.87333H3.52496" stroke="#F7FCFF" stroke-width="0.5"/>
<path d="M4.10644 9.12328H3.91797V8.87837H4.31478V8.67773V9.12328H4.49435V8.67773" stroke="#F7FCFF" stroke-width="0.5"/>
<path d="M4.6964 8.7041C4.6964 8.72873 4.6964 9.12502 4.6964 9.12502H4.51001" stroke="#F7FCFF" stroke-width="0.5"/>
<path d="M6.07477 8.68379H4.93774" stroke="#F7FCFF" stroke-width="0.5"/>
<path d="M4.92603 9.13405V8.87305H5.29616V9.12529H5.67017V8.87333H5.47613" stroke="#F7FCFF" stroke-width="0.5"/>
<path d="M6.05761 9.12328H5.86914V8.87837H6.26596V8.67773V9.12328H6.44552V8.67773" stroke="#F7FCFF" stroke-width="0.5"/>
<path d="M6.64757 8.7041C6.64757 8.72873 6.64757 9.12502 6.64757 9.12502H6.46118" stroke="#F7FCFF" stroke-width="0.5"/>
<path d="M8.02594 8.68379H6.88892" stroke="#F7FCFF" stroke-width="0.5"/>
<path d="M6.8772 9.13405V8.87305H7.24733V9.12529H7.62134V8.87333H7.4273" stroke="#F7FCFF" stroke-width="0.5"/>
<path d="M8.04369 9.12328H7.85522V8.87837H8.25204V8.67773V9.12328H8.43161V8.67773" stroke="#F7FCFF" stroke-width="0.5"/>
<path d="M8.63366 8.7041C8.63366 8.72873 8.63366 9.12502 8.63366 9.12502H8.44727" stroke="#F7FCFF" stroke-width="0.5"/>
<path d="M10.012 8.68379H8.875" stroke="#F7FCFF" stroke-width="0.5"/>
<path d="M8.86328 9.13405V8.87305H9.23341V9.12529H9.60743V8.87333H9.41338" stroke="#F7FCFF" stroke-width="0.5"/>
<path d="M10.0298 9.12328H9.84131V8.87837H10.2381V8.67773V9.12328H10.4177V8.67773" stroke="#F7FCFF" stroke-width="0.5"/>
<path d="M10.6197 8.7041C10.6197 8.72873 10.6197 9.12502 10.6197 9.12502H10.4333" stroke="#F7FCFF" stroke-width="0.5"/>
<path d="M11.9981 8.68379H10.8611" stroke="#F7FCFF" stroke-width="0.5"/>
<path d="M10.8494 9.13405V8.87305H11.2195V9.12529H11.5935V8.87333H11.3995" stroke="#F7FCFF" stroke-width="0.5"/>
<path d="M12.0159 9.12328H11.8274V8.87837H12.2242V8.67773V9.12328H12.4038V8.67773" stroke="#F7FCFF" stroke-width="0.5"/>
<path d="M12.6058 8.7041C12.6058 8.72873 12.6058 9.12502 12.6058 9.12502H12.4194" stroke="#F7FCFF" stroke-width="0.5"/>
<path d="M13.9842 8.68379H12.8472" stroke="#F7FCFF" stroke-width="0.5"/>
<path d="M12.8354 9.13405V8.87305H13.2056V9.12529H13.5796V8.87333H13.3856" stroke="#F7FCFF" stroke-width="0.5"/>
<path d="M13.967 9.12328H13.7786V8.87837H14.1754V8.67773V9.12328H14.3549V8.67773" stroke="#F7FCFF" stroke-width="0.5"/>
<path d="M14.557 8.7041C14.557 8.72873 14.557 9.12502 14.557 9.12502H14.3706" stroke="#F7FCFF" stroke-width="0.5"/>
<path d="M15.9354 8.68379H14.7983" stroke="#F7FCFF" stroke-width="0.5"/>
<path d="M14.7866 9.13405V8.87305H15.1568V9.12529H15.5308V8.87333H15.3367" stroke="#F7FCFF" stroke-width="0.5"/>
<path d="M16.0229 9.12328H15.8345V8.87837H16.2313V8.67773V9.12328H16.4109V8.67773" stroke="#F7FCFF" stroke-width="0.5"/>
<path d="M0.186342 2.58369H-0.950684" stroke="#F7FCFF" stroke-width="0.5"/>
<path d="M-0.962402 3.03395V2.77295H-0.592269V3.02519H-0.218255V2.77323H-0.412299" stroke="#F7FCFF" stroke-width="0.5"/>
<path d="M0.169181 3.02318H-0.0192871V2.77827H0.377528V2.57764V3.02318H0.557096V2.57764" stroke="#F7FCFF" stroke-width="0.5"/>
<path d="M0.759146 2.604C0.759146 2.62863 0.759146 3.02492 0.759146 3.02492H0.572754" stroke="#F7FCFF" stroke-width="0.5"/>
<path d="M2.13751 2.58369H1.00049" stroke="#F7FCFF" stroke-width="0.5"/>
<path d="M0.98877 3.03395V2.77295H1.3589V3.02519H1.73292V2.77323H1.53887" stroke="#F7FCFF" stroke-width="0.5"/>
<path d="M2.15527 3.02318H1.9668V2.77827H2.36361V2.57764V3.02318H2.54318V2.57764" stroke="#F7FCFF" stroke-width="0.5"/>
<path d="M2.74523 2.604C2.74523 2.62863 2.74523 3.02492 2.74523 3.02492H2.55884" stroke="#F7FCFF" stroke-width="0.5"/>
<path d="M4.1236 2.58369H2.98657" stroke="#F7FCFF" stroke-width="0.5"/>
<path d="M2.97485 3.03395V2.77295H3.34499V3.02519H3.719V2.77323H3.52496" stroke="#F7FCFF" stroke-width="0.5"/>
<path d="M4.10644 3.02318H3.91797V2.77827H4.31478V2.57764V3.02318H4.49435V2.57764" stroke="#F7FCFF" stroke-width="0.5"/>
<path d="M4.6964 2.604C4.6964 2.62863 4.6964 3.02492 4.6964 3.02492H4.51001" stroke="#F7FCFF" stroke-width="0.5"/>
<path d="M6.07477 2.58369H4.93774" stroke="#F7FCFF" stroke-width="0.5"/>
<path d="M4.92603 3.03395V2.77295H5.29616V3.02519H5.67017V2.77323H5.47613" stroke="#F7FCFF" stroke-width="0.5"/>
<path d="M6.05761 3.02318H5.86914V2.77827H6.26596V2.57764V3.02318H6.44552V2.57764" stroke="#F7FCFF" stroke-width="0.5"/>
<path d="M6.64757 2.604C6.64757 2.62863 6.64757 3.02492 6.64757 3.02492H6.46118" stroke="#F7FCFF" stroke-width="0.5"/>
<path d="M8.02594 2.58369H6.88892" stroke="#F7FCFF" stroke-width="0.5"/>
<path d="M6.8772 3.03395V2.77295H7.24733V3.02519H7.62134V2.77323H7.4273" stroke="#F7FCFF" stroke-width="0.5"/>
<path d="M8.04369 3.02318H7.85522V2.77827H8.25204V2.57764V3.02318H8.43161V2.57764" stroke="#F7FCFF" stroke-width="0.5"/>
<path d="M8.63366 2.604C8.63366 2.62863 8.63366 3.02492 8.63366 3.02492H8.44727" stroke="#F7FCFF" stroke-width="0.5"/>
<path d="M10.012 2.58369H8.875" stroke="#F7FCFF" stroke-width="0.5"/>
<path d="M8.86328 3.03395V2.77295H9.23341V3.02519H9.60743V2.77323H9.41338" stroke="#F7FCFF" stroke-width="0.5"/>
<path d="M10.0298 3.02318H9.84131V2.77827H10.2381V2.57764V3.02318H10.4177V2.57764" stroke="#F7FCFF" stroke-width="0.5"/>
<path d="M10.6197 2.604C10.6197 2.62863 10.6197 3.02492 10.6197 3.02492H10.4333" stroke="#F7FCFF" stroke-width="0.5"/>
<path d="M11.9981 2.58369H10.8611" stroke="#F7FCFF" stroke-width="0.5"/>
<path d="M10.8494 3.03395V2.77295H11.2195V3.02519H11.5935V2.77323H11.3995" stroke="#F7FCFF" stroke-width="0.5"/>
<path d="M12.0159 3.02318H11.8274V2.77827H12.2242V2.57764V3.02318H12.4038V2.57764" stroke="#F7FCFF" stroke-width="0.5"/>
<path d="M12.6058 2.604C12.6058 2.62863 12.6058 3.02492 12.6058 3.02492H12.4194" stroke="#F7FCFF" stroke-width="0.5"/>
<path d="M13.9842 2.58369H12.8472" stroke="#F7FCFF" stroke-width="0.5"/>
<path d="M12.8354 3.03395V2.77295H13.2056V3.02519H13.5796V2.77323H13.3856" stroke="#F7FCFF" stroke-width="0.5"/>
<path d="M13.967 3.02318H13.7786V2.77827H14.1754V2.57764V3.02318H14.3549V2.57764" stroke="#F7FCFF" stroke-width="0.5"/>
<path d="M14.557 2.604C14.557 2.62863 14.557 3.02492 14.557 3.02492H14.3706" stroke="#F7FCFF" stroke-width="0.5"/>
<path d="M15.9354 2.58369H14.7983" stroke="#F7FCFF" stroke-width="0.5"/>
<path d="M14.7866 3.03395V2.77295H15.1568V3.02519H15.5308V2.77323H15.3367" stroke="#F7FCFF" stroke-width="0.5"/>
<path d="M16.0229 3.02318H15.8345V2.77827H16.2313V2.57764V3.02318H16.4109V2.57764" stroke="#F7FCFF" stroke-width="0.5"/>
<path fill-rule="evenodd" clip-rule="evenodd" d="M7.30322 4.125C7.30322 4.125 7.51688 4.2375 7.73557 4.2375C7.95426 4.2375 8.1743 4.125 8.1743 4.125V4.275C8.1743 4.275 7.93409 4.3875 7.72133 4.3875C7.50858 4.3875 7.30322 4.275 7.30322 4.275V4.125ZM5.72827 5.8953C5.72827 5.0063 6.94927 4.425 6.94927 4.425C6.94927 4.425 6.24355 4.8031 6.24355 5.85804C6.24355 6.91299 6.6099 7.36983 6.6099 7.36983C6.6099 7.36983 5.72827 6.7843 5.72827 5.8953ZM9.84711 5.84624C9.84711 4.95724 8.62726 4.425 8.62726 4.425C8.62726 4.425 9.33297 4.8031 9.33297 5.85804C9.33297 6.91299 8.96662 7.36983 8.96662 7.36983C8.96662 7.36983 9.84711 6.73524 9.84711 5.84624ZM6.56183 6.08879C6.5153 5.20101 7.25383 4.40526 7.25383 4.40526C7.25383 4.40526 6.98503 4.77092 7.04024 5.82442C7.0592 6.18614 7.20167 6.72431 7.38118 7.04159V4.4625H8.13118V7.06396C8.31093 6.76758 8.44942 6.26228 8.46865 5.8953C8.52386 4.8418 8.26795 4.40526 8.26795 4.40526C8.26795 4.40526 9.00648 5.20101 8.95996 6.08879C8.93225 6.61753 8.5254 7.17671 8.20085 7.54253C8.35855 7.5777 8.56993 7.62057 8.8605 7.67793C8.8667 7.71008 8.80195 7.70859 8.6733 7.70563C8.53124 7.70236 8.31128 7.6973 8.02289 7.73375C7.8903 7.86964 7.79802 7.95019 7.79802 7.95019C7.79802 7.95019 7.78343 7.93048 7.76089 7.90321C7.73836 7.93048 7.72377 7.95019 7.72377 7.95019C7.72377 7.95019 7.63148 7.86964 7.49889 7.73375C7.2105 7.6973 6.99054 7.70236 6.84849 7.70563C6.71983 7.70859 6.65508 7.71008 6.66129 7.67793C6.95185 7.62057 7.16324 7.5777 7.32094 7.54253C6.99638 7.17671 6.58954 6.61753 6.56183 6.08879Z" fill="#E31D1C"/>
</g>
</g>
<defs>
<clipPath id="clip0_1266_15605">
<rect width="16" height="12" fill="white"/>
</clipPath>
</defs>
</svg>
