<svg width="16" height="12" viewBox="0 0 16 12" fill="none" xmlns="http://www.w3.org/2000/svg">
<g clip-path="url(#clip0_1266_15473)">
<rect width="16" height="12" fill="white"/>
<path fill-rule="evenodd" clip-rule="evenodd" d="M0 0V12H16V0H0Z" fill="#F7FCFF"/>
<mask id="mask0_1266_15473" style="mask-type:luminance" maskUnits="userSpaceOnUse" x="0" y="0" width="16" height="12">
<path fill-rule="evenodd" clip-rule="evenodd" d="M0 0V12H16V0H0Z" fill="white"/>
</mask>
<g mask="url(#mask0_1266_15473)">
<path fill-rule="evenodd" clip-rule="evenodd" d="M7.78206 9.10036C9.46053 9.10036 10.8212 7.7589 10.8212 6.10414C10.8212 4.44937 9.46053 3.10791 7.78206 3.10791C6.10359 3.10791 4.74292 4.44937 4.74292 6.10414C4.74292 7.7589 6.10359 9.10036 7.78206 9.10036Z" fill="#3D58DB"/>
<mask id="mask1_1266_15473" style="mask-type:luminance" maskUnits="userSpaceOnUse" x="4" y="3" width="7" height="7">
<path fill-rule="evenodd" clip-rule="evenodd" d="M7.78206 9.10036C9.46053 9.10036 10.8212 7.7589 10.8212 6.10414C10.8212 4.44937 9.46053 3.10791 7.78206 3.10791C6.10359 3.10791 4.74292 4.44937 4.74292 6.10414C4.74292 7.7589 6.10359 9.10036 7.78206 9.10036Z" fill="white"/>
</mask>
<g mask="url(#mask1_1266_15473)">
<path fill-rule="evenodd" clip-rule="evenodd" d="M10.928 6.33364C10.928 6.33364 10.7574 4.92083 9.494 4.84413C8.23063 4.76743 7.88998 5.88021 7.81707 6.17502C7.74417 6.46983 7.55965 7.25629 6.22947 7.25629C4.89928 7.25629 4.7793 5.2565 4.7793 5.2565V2.89844H10.928V6.33364Z" fill="#E31D1C"/>
</g>
<path fill-rule="evenodd" clip-rule="evenodd" d="M3.22222 1.23486L3.70173 1.63747L1.47951 4.04665L1 3.64404L3.22222 1.23486ZM4.01305 1.88623L4.49256 2.28883L2.35 4.66311L1.87049 4.26051L4.01305 1.88623ZM5.27959 2.94801L4.80009 2.54541L2.65157 4.93771L3.13108 5.34031L5.27959 2.94801Z" fill="#272727"/>
<path fill-rule="evenodd" clip-rule="evenodd" d="M12.6895 1.06592L12.2099 1.46702L13.0419 2.37331L13.5215 1.97222L12.6895 1.06592ZM14.1681 2.73291L13.6885 3.13401L14.5204 4.04031L15 3.63921L14.1681 2.73291ZM10.6267 2.77219L11.1064 2.37109L11.9383 3.27739L11.4587 3.67849L10.6267 2.77219ZM12.5854 4.03857L12.1058 4.43967L12.9377 5.34597L13.4173 4.94487L12.5854 4.03857ZM11.4484 2.10032L11.928 1.69922L14.2436 4.31709L13.764 4.71819L11.4484 2.10032Z" fill="#272727"/>
<path fill-rule="evenodd" clip-rule="evenodd" d="M13.052 7.16585L12.5684 6.76318L11.7294 7.67302L12.2131 8.07568L13.052 7.16585ZM11.6414 8.7667L11.1578 8.36403L10.3188 9.27387L10.8025 9.67653L11.6414 8.7667ZM14.0953 8.03662L14.5789 8.43928L13.74 9.34912L13.2564 8.94646L14.0953 8.03662ZM13.2377 10.0775L12.754 9.6748L11.9151 10.5846L12.3988 10.9873L13.2377 10.0775ZM11.9571 8.98291L12.4408 9.38557L11.5651 10.3571L11.0814 9.95445L11.9571 8.98291ZM13.8778 7.76692L13.3941 7.36426L12.5184 8.3358L13.0021 8.73846L13.8778 7.76692Z" fill="#272727"/>
<path fill-rule="evenodd" clip-rule="evenodd" d="M2.75424 7.48064L3.23387 7.0791L5.37451 9.35619L4.89487 9.75773L2.75424 7.48064ZM3.25383 9.47234L3.73347 9.0708L4.63766 9.99302L4.15803 10.3946L3.25383 9.47234ZM1.65539 8.35693L1.17575 8.75847L3.32751 11.0662L3.80714 10.6647L1.65539 8.35693ZM1.99664 8.0949L2.47628 7.69336L3.26013 8.54664L2.78049 8.94819L1.99664 8.0949Z" fill="#272727"/>
</g>
</g>
<defs>
<clipPath id="clip0_1266_15473">
<rect width="16" height="12" fill="white"/>
</clipPath>
</defs>
</svg>
