<svg width="20" height="15" viewBox="0 0 20 15" fill="none" xmlns="http://www.w3.org/2000/svg">
<g clip-path="url(#clip0_1266_15505)">
<rect width="20" height="15" fill="white"/>
<path fill-rule="evenodd" clip-rule="evenodd" d="M0 0V15H20V0H0Z" fill="#F7FCFF"/>
<mask id="mask0_1266_15505" style="mask-type:luminance" maskUnits="userSpaceOnUse" x="0" y="0" width="20" height="15">
<path fill-rule="evenodd" clip-rule="evenodd" d="M0 0V15H20V0H0Z" fill="white"/>
</mask>
<g mask="url(#mask0_1266_15505)">
<path fill-rule="evenodd" clip-rule="evenodd" d="M9.71967 11.3871C11.8777 11.3871 13.6271 9.66384 13.6271 7.53805C13.6271 5.41226 11.8777 3.68896 9.71967 3.68896C7.56166 3.68896 5.81226 5.41226 5.81226 7.53805C5.81226 9.66384 7.56166 11.3871 9.71967 11.3871Z" fill="#3D58DB"/>
<mask id="mask1_1266_15505" style="mask-type:luminance" maskUnits="userSpaceOnUse" x="5" y="3" width="9" height="9">
<path fill-rule="evenodd" clip-rule="evenodd" d="M9.71967 11.3871C11.8777 11.3871 13.6271 9.66384 13.6271 7.53805C13.6271 5.41226 11.8777 3.68896 9.71967 3.68896C7.56166 3.68896 5.81226 5.41226 5.81226 7.53805C5.81226 9.66384 7.56166 11.3871 9.71967 11.3871Z" fill="white"/>
</mask>
<g mask="url(#mask1_1266_15505)">
<path fill-rule="evenodd" clip-rule="evenodd" d="M13.7642 7.83294C13.7642 7.83294 13.5449 6.01797 11.9206 5.91944C10.2962 5.82092 9.85828 7.25043 9.76454 7.62917C9.67081 8.0079 9.43358 9.01821 7.72336 9.01821C6.01315 9.01821 5.85889 6.44919 5.85889 6.44919V3.41992H13.7642V7.83294Z" fill="#E31D1C"/>
</g>
<path fill-rule="evenodd" clip-rule="evenodd" d="M3.85709 1.28271L4.4736 1.79992L1.6165 4.89486L1 4.37766L3.85709 1.28271ZM4.87375 2.11963L5.49026 2.63683L2.73558 5.68694L2.11907 5.16973L4.87375 2.11963ZM6.50218 3.484L5.88568 2.9668L3.12334 6.04005L3.73985 6.55725L6.50218 3.484Z" fill="#272727"/>
<path fill-rule="evenodd" clip-rule="evenodd" d="M16.0292 1.06592L15.4125 1.58119L16.4821 2.74546L17.0988 2.23019L16.0292 1.06592ZM17.9304 3.20757L17.3138 3.72284L18.3834 4.88711L19 4.37184L17.9304 3.20757ZM13.3775 3.25794L13.9942 2.74268L15.0638 3.90695L14.4471 4.42222L13.3775 3.25794ZM15.8954 4.88477L15.2788 5.40003L16.3484 6.56431L16.965 6.04904L15.8954 4.88477ZM14.4333 2.39466L15.0499 1.87939L18.0272 5.24243L17.4105 5.7577L14.4333 2.39466Z" fill="#272727"/>
<path fill-rule="evenodd" clip-rule="evenodd" d="M16.4952 8.90204L15.8733 8.38477L14.7947 9.55358L15.4166 10.0709L16.4952 8.90204ZM14.6814 10.9589L14.0596 10.4416L12.981 11.6105L13.6028 12.1277L14.6814 10.9589ZM17.8365 10.0205L18.4583 10.5378L17.3797 11.7066L16.7578 11.1893L17.8365 10.0205ZM16.7338 12.6423L16.1119 12.125L15.0333 13.2938L15.6551 13.8111L16.7338 12.6423ZM15.0876 11.2363L15.7094 11.7536L14.5835 13.0017L13.9617 12.4844L15.0876 11.2363ZM17.5567 9.67402L16.9349 9.15674L15.809 10.4048L16.4308 10.9221L17.5567 9.67402Z" fill="#272727"/>
<path fill-rule="evenodd" clip-rule="evenodd" d="M3.25588 9.30636L3.87255 8.79053L6.62476 11.7158L6.00809 12.2316L3.25588 9.30636ZM3.89751 11.865L4.51418 11.3491L5.6767 12.5338L5.06003 13.0497L3.89751 11.865ZM1.84254 10.4321L1.22587 10.948L3.99237 13.9126L4.60904 13.3967L1.84254 10.4321ZM2.28129 10.0954L2.89796 9.57959L3.90575 10.6758L3.28908 11.1916L2.28129 10.0954Z" fill="#272727"/>
</g>
</g>
<defs>
<clipPath id="clip0_1266_15505">
<rect width="20" height="15" fill="white"/>
</clipPath>
</defs>
</svg>
