<svg width="16" height="12" viewBox="0 0 16 12" fill="none" xmlns="http://www.w3.org/2000/svg">
<g clip-path="url(#clip0_1266_15125)">
<rect width="16" height="12" fill="white"/>
<path fill-rule="evenodd" clip-rule="evenodd" d="M4 0H16V12H4V0Z" fill="#EF0000"/>
<path fill-rule="evenodd" clip-rule="evenodd" d="M0 0H6V12H0V0Z" fill="#2F8D00"/>
<mask id="mask0_1266_15125" style="mask-type:luminance" maskUnits="userSpaceOnUse" x="2" y="2" width="8" height="8">
<path fill-rule="evenodd" clip-rule="evenodd" d="M5.95236 9.90342C3.82212 9.90342 2.09521 8.15571 2.09521 5.99981C2.09521 3.8439 3.82212 2.09619 5.95236 2.09619C8.0826 2.09619 9.8095 3.8439 9.8095 5.99981C9.8095 8.15571 8.0826 9.90342 5.95236 9.90342Z" fill="white"/>
</mask>
<g mask="url(#mask0_1266_15125)">
<path fill-rule="evenodd" clip-rule="evenodd" d="M5.71436 2H6.21436V3.3494H5.71436V2Z" fill="#FFE017"/>
<path fill-rule="evenodd" clip-rule="evenodd" d="M5.71436 8.74658H6.21436V9.99959H5.71436V8.74658Z" fill="#FFE017"/>
<path d="M2.15713 6.20152L2.01733 5.84288C3.55993 5.22704 4.72421 4.82988 5.5142 4.6509C6.67326 4.38829 7.9468 4.194 9.3349 4.06787L9.36896 4.45187C7.99679 4.57655 6.73958 4.76835 5.59743 5.02713C4.83095 5.20078 3.68284 5.59242 2.15713 6.20152Z" fill="#FFE017"/>
<path d="M9.57042 3.83156L9.45698 4.19961C8.29112 3.83155 7.34141 3.67334 6.61139 3.72234L6.58618 3.33765C7.36998 3.28503 8.36354 3.45055 9.57042 3.83156Z" fill="#FFE017"/>
<path d="M9.9738 5.88967L9.7583 6.20759C9.16396 5.79496 8.43174 5.58769 7.55664 5.58769V5.20215C8.50533 5.20215 9.31271 5.43069 9.9738 5.88967Z" fill="#FFE017"/>
<path d="M9.65089 6.00488L9.74938 6.37732C8.46806 6.72439 7.26509 6.9213 6.14037 6.96767C5.00789 7.01436 3.68796 6.81674 2.17944 6.37632L2.28504 6.00588C3.75689 6.4356 5.0372 6.62728 6.12486 6.58244C7.22027 6.53728 8.39565 6.34489 9.65089 6.00488Z" fill="#FFE017"/>
<path d="M9.50578 7.81787L8.90361 8.43521C7.75926 7.29192 6.7518 6.47444 5.88742 5.98325C5.00826 5.48368 3.86177 4.97639 2.44971 4.46344L2.73928 3.64697C4.19298 4.17505 5.38165 4.701 6.30706 5.22686C7.24724 5.76112 8.31142 6.62462 9.50578 7.81787Z" fill="#FFE017"/>
<path d="M2.72915 8.16736L2.50122 7.85844C2.53305 7.83438 2.58984 7.79427 2.66809 7.74343C2.79729 7.6595 2.94076 7.5757 3.09512 7.49739C3.52028 7.28172 3.94675 7.14707 4.3535 7.1347C4.3734 7.13409 4.39321 7.13379 4.41293 7.13379V7.51933C4.39704 7.51933 4.38105 7.51958 4.36495 7.52007C4.02216 7.53049 3.64573 7.64935 3.26583 7.84206C3.12423 7.91389 2.99229 7.99095 2.87389 8.06788C2.83267 8.09466 2.7962 8.11941 2.76496 8.14149C2.74674 8.15435 2.73465 8.1632 2.72915 8.16736Z" fill="#FFE017"/>
<path d="M2.90601 8.30103L3.00194 7.92791C4.272 8.26239 5.25114 8.42906 5.93449 8.42906C6.61528 8.42906 7.62857 8.23246 8.96779 7.83789L9.07427 8.20807C7.70338 8.61197 6.65898 8.8146 5.93449 8.8146C5.21255 8.8146 4.20468 8.64304 2.90601 8.30103Z" fill="#FFE017"/>
<path d="M2.41113 4.84692L3.01467 4.23096L3.89833 5.11778L3.29479 5.73374L2.41113 4.84692Z" fill="#FFE017"/>
<path d="M7.41797 7.92355L7.86689 7.18457L9.2687 8.0568L8.81978 8.79578L7.41797 7.92355Z" fill="#FFE017"/>
</g>
<path fill-rule="evenodd" clip-rule="evenodd" d="M2.09521 5.99981C2.09521 8.15571 3.82212 9.90342 5.95236 9.90342C8.0826 9.90342 9.8095 8.15571 9.8095 5.99981C9.8095 3.8439 8.0826 2.09619 5.95236 2.09619C3.82212 2.09619 2.09521 3.8439 2.09521 5.99981ZM9.33331 6.048C9.33331 7.91113 7.84093 9.42149 5.99998 9.42149C4.15903 9.42149 2.66664 7.91113 2.66664 6.048C2.66664 4.18487 4.15903 2.6745 5.99998 2.6745C7.84093 2.6745 9.33331 4.18487 9.33331 6.048Z" fill="#F9E813"/>
<path d="M3.82837 3.59277V6.72313C4.03444 7.96217 4.72867 8.58169 5.91106 8.58169C7.09346 8.58169 7.78769 7.96217 7.99376 6.72313V3.59277H3.82837Z" fill="white"/>
<path d="M3.04272 3H8.57954V6.71137L8.57491 6.73706C8.30745 8.21984 7.35926 9 5.81113 9C4.263 9 3.31482 8.21984 3.04736 6.73706L3.04272 6.71137V3Z" fill="#C51918"/>
<path fill-rule="evenodd" clip-rule="evenodd" d="M4.52402 3.95312H3.62402V4.85312H4.52402V3.95312ZM8.02402 3.95312H7.12402V4.85312H8.02402V3.95312Z" fill="#F9E813"/>
<path fill-rule="evenodd" clip-rule="evenodd" d="M3.62402 5.95312H4.52402V6.85312H3.62402V5.95312ZM7.17382 5.96729H8.07382V6.86729H7.17382V5.96729ZM7.18743 7.42475H6.28743V8.32475H7.18743V7.42475Z" fill="#F9E813"/>
<path fill-rule="evenodd" clip-rule="evenodd" d="M4.32446 7.42041H5.22446V8.32041H4.32446V7.42041Z" fill="#F9E813"/>
<path d="M4.42627 4.35547H7.39613V6.57592C7.39613 6.57592 7.17575 7.72257 5.9112 7.72257C4.64665 7.72257 4.42627 6.57592 4.42627 6.57592V4.35547Z" fill="#F7FCFF"/>
<path d="M5.61914 4.60254H6.27931V5.08328C6.27931 5.08328 6.23032 5.33153 5.94922 5.33153C5.66813 5.33153 5.61914 5.08328 5.61914 5.08328V4.60254Z" fill="#013399"/>
<path d="M5.61914 5.6626H6.27931V6.14333C6.27931 6.14333 6.23032 6.39159 5.94922 6.39159C5.66813 6.39159 5.61914 6.14333 5.61914 6.14333V5.6626Z" fill="#013399"/>
<path d="M6.47632 5.6626H7.13648V6.14333C7.13648 6.14333 7.0875 6.39159 6.8064 6.39159C6.52531 6.39159 6.47632 6.14333 6.47632 6.14333V5.6626Z" fill="#013399"/>
<path d="M4.76196 5.6626H5.42213V6.14333C5.42213 6.14333 5.37314 6.39159 5.09205 6.39159C4.81095 6.39159 4.76196 6.14333 4.76196 6.14333V5.6626Z" fill="#013399"/>
<path d="M5.61914 6.72266H6.27931V7.20339C6.27931 7.20339 6.23032 7.45165 5.94922 7.45165C5.66813 7.45165 5.61914 7.20339 5.61914 7.20339V6.72266Z" fill="#013399"/>
</g>
<defs>
<clipPath id="clip0_1266_15125">
<rect width="16" height="12" fill="white"/>
</clipPath>
</defs>
</svg>
