<svg width="16" height="12" viewBox="0 0 16 12" fill="none" xmlns="http://www.w3.org/2000/svg">
<g clip-path="url(#clip0_1266_16063)">
<rect width="16" height="12" fill="white"/>
<path fill-rule="evenodd" clip-rule="evenodd" d="M0 0V12H16V0H0Z" fill="#FFB400"/>
<mask id="mask0_1266_16063" style="mask-type:luminance" maskUnits="userSpaceOnUse" x="0" y="0" width="16" height="12">
<path fill-rule="evenodd" clip-rule="evenodd" d="M0 0V12H16V0H0Z" fill="white"/>
</mask>
<g mask="url(#mask0_1266_16063)">
<path fill-rule="evenodd" clip-rule="evenodd" d="M0 0V3H16V0H0Z" fill="#C51918"/>
<path fill-rule="evenodd" clip-rule="evenodd" d="M0 9V12H16V9H0Z" fill="#C51918"/>
<rect x="2.50391" y="5.13574" width="0.56" height="2.912" fill="#F1F9FF"/>
<path fill-rule="evenodd" clip-rule="evenodd" d="M3.28779 4.63184H2.27979V4.91184H2.44779V5.13584H3.11979V4.91184H3.28779V4.63184Z" fill="#C88A02"/>
<path fill-rule="evenodd" clip-rule="evenodd" d="M3.11979 8.2157H3.28779V8.4957H2.27979V8.2157H2.44779V7.9917H3.11979V8.2157Z" fill="#C88A02"/>
<path fill-rule="evenodd" clip-rule="evenodd" d="M2.78385 4.68778C2.90571 4.68778 2.9181 4.64189 2.99 4.57335C3.04582 4.52013 3.17585 4.45413 3.17585 4.37978C3.17585 4.20967 3.00034 4.07178 2.78385 4.07178C2.56735 4.07178 2.39185 4.20967 2.39185 4.37978C2.39185 4.46261 2.48139 4.518 2.54909 4.57335C2.62042 4.63167 2.67277 4.68778 2.78385 4.68778Z" fill="#AD1619"/>
<path fill-rule="evenodd" clip-rule="evenodd" d="M2.27979 8.49561H3.28779V8.94361C3.28779 8.94361 3.16179 8.88761 3.03579 8.88761C2.90979 8.88761 2.78379 8.94361 2.78379 8.94361C2.78379 8.94361 2.65779 8.88761 2.53179 8.88761C2.40579 8.88761 2.27979 8.94361 2.27979 8.94361V8.49561Z" fill="#005BBF"/>
<mask id="mask1_1266_16063" style="mask-type:luminance" maskUnits="userSpaceOnUse" x="2" y="8" width="2" height="1">
<path fill-rule="evenodd" clip-rule="evenodd" d="M2.27979 8.49561H3.28779V8.94361C3.28779 8.94361 3.16179 8.88761 3.03579 8.88761C2.90979 8.88761 2.78379 8.94361 2.78379 8.94361C2.78379 8.94361 2.65779 8.88761 2.53179 8.88761C2.40579 8.88761 2.27979 8.94361 2.27979 8.94361V8.49561Z" fill="white"/>
</mask>
<g mask="url(#mask1_1266_16063)">
</g>
<rect x="7.99194" y="5.13574" width="0.56" height="2.912" fill="#F1F9FF"/>
<path fill-rule="evenodd" clip-rule="evenodd" d="M8.77582 4.63184H7.76782V4.91184H7.93582V5.13584H8.60782V4.91184H8.77582V4.63184Z" fill="#C88A02"/>
<path fill-rule="evenodd" clip-rule="evenodd" d="M8.60782 8.2157H8.77582V8.4957H7.76782V8.2157H7.93582V7.9917H8.60782V8.2157Z" fill="#C88A02"/>
<path fill-rule="evenodd" clip-rule="evenodd" d="M8.27188 4.68778C8.39375 4.68778 8.40614 4.64189 8.47803 4.57335C8.53386 4.52013 8.66388 4.45413 8.66388 4.37978C8.66388 4.20967 8.48838 4.07178 8.27188 4.07178C8.05539 4.07178 7.87988 4.20967 7.87988 4.37978C7.87988 4.46261 7.96942 4.518 8.03712 4.57335C8.10845 4.63167 8.16081 4.68778 8.27188 4.68778Z" fill="#AD1619"/>
<path fill-rule="evenodd" clip-rule="evenodd" d="M7.76782 8.49561H8.77582V8.94361C8.77582 8.94361 8.64982 8.88761 8.52382 8.88761C8.39782 8.88761 8.27182 8.94361 8.27182 8.94361C8.27182 8.94361 8.14582 8.88761 8.01982 8.88761C7.89382 8.88761 7.76782 8.94361 7.76782 8.94361V8.49561Z" fill="#005BBF"/>
<mask id="mask2_1266_16063" style="mask-type:luminance" maskUnits="userSpaceOnUse" x="7" y="8" width="2" height="1">
<path fill-rule="evenodd" clip-rule="evenodd" d="M7.76782 8.49561H8.77582V8.94361C8.77582 8.94361 8.64982 8.88761 8.52382 8.88761C8.39782 8.88761 8.27182 8.94361 8.27182 8.94361C8.27182 8.94361 8.14582 8.88761 8.01982 8.88761C7.89382 8.88761 7.76782 8.94361 7.76782 8.94361V8.49561Z" fill="white"/>
</mask>
<g mask="url(#mask2_1266_16063)">
</g>
<path fill-rule="evenodd" clip-rule="evenodd" d="M2.49388 7.83994C2.59484 7.71754 2.6513 7.60618 2.6513 7.48791C2.6513 7.41334 2.62911 7.34893 2.59023 7.29631L2.5968 7.29336C2.59619 7.29363 2.70756 7.24509 2.74633 7.22649C2.81841 7.19194 2.8819 7.15533 2.94382 7.11031C2.98334 7.08156 3.0363 7.05025 3.11703 7.0069L3.21338 6.95568C3.25262 6.93474 3.28183 6.9187 3.30898 6.90295C3.39356 6.85389 3.44946 6.81334 3.49221 6.75912C3.59347 6.63072 3.57245 6.45666 3.43055 6.36005C3.36103 6.31272 3.26722 6.28556 3.1297 6.26418L2.93303 6.23369C2.86722 6.22336 2.8085 6.21372 2.75615 6.20457C3.10043 6.14728 3.59205 6.16834 3.8083 6.27999L4.01383 5.88192C3.57316 5.65439 2.56909 5.67763 2.19403 5.93592C1.91893 6.12538 1.95584 6.41176 2.24207 6.53508C2.36167 6.58661 2.51758 6.6208 2.80611 6.66715C2.75776 6.6952 2.71767 6.72083 2.68032 6.74799C2.64244 6.77553 2.60186 6.79893 2.55264 6.82253C2.5291 6.83382 2.4594 6.86442 2.42744 6.87845L2.42742 6.87846L2.42742 6.87847L2.41136 6.88554C2.17822 6.99155 2.06507 7.1382 2.09888 7.40293L2.11718 7.54624L2.15001 7.55632L2.49388 7.83994ZM2.20569 7.4696L2.20498 7.47166L2.20552 7.4702L2.20569 7.4696ZM8.35288 7.48791C8.35288 7.60618 8.40933 7.71754 8.5103 7.83994L8.85416 7.55632L8.88699 7.54624L8.9053 7.40293C8.93911 7.1382 8.82596 6.99155 8.59282 6.88554L8.57676 6.87846C8.54481 6.86444 8.47508 6.83382 8.45154 6.82253C8.40232 6.79893 8.36173 6.77553 8.32385 6.74799C8.28651 6.72083 8.24642 6.6952 8.19807 6.66715C8.48659 6.6208 8.64251 6.58661 8.76211 6.53508C9.04833 6.41176 9.08525 6.12538 8.81015 5.93592C8.43509 5.67763 7.43102 5.65439 6.99035 5.88192L7.19588 6.27999C7.41212 6.16834 7.90374 6.14728 8.24803 6.20457C8.19567 6.21372 8.13696 6.22336 8.07115 6.23369L7.87447 6.26418C7.73696 6.28556 7.64315 6.31272 7.57363 6.36005C7.43173 6.45666 7.4107 6.63072 7.51196 6.75912C7.55472 6.81334 7.61061 6.85389 7.6952 6.90295C7.72234 6.9187 7.75156 6.93474 7.7908 6.95568L7.88714 7.0069C7.96788 7.05025 8.02083 7.08156 8.06036 7.11031C8.12227 7.15533 8.18577 7.19194 8.25785 7.22649C8.29662 7.24509 8.40798 7.29363 8.40738 7.29336L8.41395 7.29631C8.37507 7.34893 8.35288 7.41334 8.35288 7.48791Z" fill="#AD1619"/>
<path d="M2.96158 6.19971L3.12688 6.2339V6.48027C2.95083 6.62074 2.50391 6.85749 2.50391 6.85749V6.19971H2.96158Z" fill="#F1F9FF"/>
<path d="M8.15731 6.19971L7.99202 6.2339V6.48027C8.16807 6.62074 8.61499 6.85749 8.61499 6.85749V6.19971H8.15731Z" fill="#F1F9FF"/>
<path fill-rule="evenodd" clip-rule="evenodd" d="M7.38783 3.60289V3.5209C7.09979 3.31418 6.79815 3.21082 6.48291 3.21082C6.1807 3.07708 5.8748 3.02516 5.56522 3.05508C5.5653 3.05412 5.56535 3.05364 5.56535 3.05364C5.09986 3.00809 4.63074 3.21082 4.63074 3.21082C4.15789 3.21082 3.72583 3.5209 3.72583 3.5209V3.60289L4.29064 4.17016C4.29064 4.17016 4.44957 4.71596 5.56245 4.5879C5.56284 4.58877 5.56305 4.58921 5.56305 4.58921C5.56305 4.58921 6.30022 4.56909 6.35202 4.55187C6.37257 4.54503 6.39389 4.53881 6.41567 4.53245C6.56006 4.49029 6.72489 4.44217 6.82301 4.17016L7.38783 3.60289ZM5.56269 3.08441C5.56036 3.11192 5.55666 3.15672 5.5523 3.21399C5.55784 3.17294 5.56156 3.12988 5.56269 3.08441Z" fill="#AD1619"/>
<path fill-rule="evenodd" clip-rule="evenodd" d="M3.75977 3.69899L3.79814 3.6582L4.31098 4.1407C4.40833 4.11453 4.93675 3.97988 5.52699 3.97325V3.97299L5.54945 3.97306L5.5719 3.97299V3.97325C6.22585 3.98059 6.8039 4.14509 6.8039 4.14509C6.8039 4.14509 6.79771 4.19816 6.78266 4.26056C6.79859 4.2279 6.81746 4.1916 6.83928 4.15154L6.84468 4.14454L7.3616 3.6582L7.39997 3.69899L6.88632 4.18225C6.81138 4.32026 6.77364 4.41136 6.77364 4.4492C6.77364 4.50693 6.62345 4.54119 6.33032 4.57639C6.10067 4.60396 5.82966 4.62247 5.60797 4.62523V4.62559L5.57987 4.6255L5.55177 4.62559V4.62523C5.33008 4.62247 5.05906 4.60396 4.82942 4.57639C4.53629 4.54119 4.3861 4.50693 4.3861 4.4492C4.3861 4.44204 4.38475 4.43297 4.38205 4.42205C4.35249 4.3844 4.33171 4.32282 4.31788 4.26728C4.3049 4.2413 4.29008 4.21293 4.27342 4.18225L3.75977 3.69899ZM6.6264 4.45029C6.66564 4.46865 6.69709 4.45034 6.72196 4.41518C6.71981 4.42489 6.71846 4.43367 6.71792 4.44153C6.71463 4.44368 6.7096 4.44627 6.70299 4.44905C6.68454 4.4568 6.65637 4.46507 6.61972 4.47343C6.54769 4.48986 6.44516 4.5062 6.32364 4.52079C6.08635 4.54928 5.80418 4.56802 5.57987 4.5695C5.35555 4.56802 5.07339 4.54928 4.8361 4.52079C4.71458 4.5062 4.61205 4.48986 4.54001 4.47343C4.5093 4.46642 4.48453 4.45948 4.46646 4.45285L4.47249 4.45029C4.59482 4.39305 5.40377 4.33933 5.54945 4.33006C5.69513 4.33933 6.50407 4.39305 6.6264 4.45029ZM6.78067 4.44003L6.77983 4.44101L6.78033 4.4403L6.78067 4.44003Z" fill="#C88A02"/>
<path fill-rule="evenodd" clip-rule="evenodd" d="M5.55594 2.6734C5.64872 2.6734 5.72394 2.59819 5.72394 2.5054C5.72394 2.41262 5.64872 2.3374 5.55594 2.3374C5.46316 2.3374 5.38794 2.41262 5.38794 2.5054C5.38794 2.59819 5.46316 2.6734 5.55594 2.6734Z" fill="#005BBF"/>
<path fill-rule="evenodd" clip-rule="evenodd" d="M5.49319 2.03809H5.60985V2.11179H5.68608V2.22845H5.60985V2.46179H5.68608V2.57845H5.41577V2.46179H5.49319V2.22845H5.41577V2.11179H5.49319V2.03809Z" fill="#C88A02"/>
<rect x="5.47192" y="2.67188" width="0.224" height="0.728" fill="#C88A02"/>
<path d="M3.85376 3.64807L3.54614 3.6365C3.69128 2.7977 4.40606 2.38672 5.54827 2.38672C6.69196 2.38672 7.40423 2.79948 7.53845 3.6414L7.12241 3.68504C7.05709 3.27533 6.37086 2.90456 5.55429 2.90456C4.73623 2.90456 3.92519 3.23524 3.85376 3.64807Z" fill="#C88A02"/>
<path opacity="0.3" fill-rule="evenodd" clip-rule="evenodd" d="M3.73584 4.63184H7.37584V7.90225C7.37584 7.90225 7.10545 8.99984 5.55584 8.99984C4.00623 8.99984 3.73584 7.87331 3.73584 7.87331V4.63184Z" fill="#E1E5E8"/>
<mask id="mask3_1266_16063" style="mask-type:luminance" maskUnits="userSpaceOnUse" x="3" y="4" width="5" height="5">
<path fill-rule="evenodd" clip-rule="evenodd" d="M3.73584 4.63184H7.37584V7.90225C7.37584 7.90225 7.10545 8.99984 5.55584 8.99984C4.00623 8.99984 3.73584 7.87331 3.73584 7.87331V4.63184Z" fill="white"/>
</mask>
<g mask="url(#mask3_1266_16063)">
<rect x="3.73584" y="6.64795" width="1.848" height="2.184" fill="#FFC034"/>
<rect x="3.73584" y="4.57568" width="1.848" height="2.128" fill="#AD1619"/>
<rect x="5.52783" y="6.5918" width="1.848" height="2.128" fill="#AD1619"/>
<rect x="5.52783" y="4.63184" width="1.96" height="2.072" fill="#F1F9FF"/>
<path fill-rule="evenodd" clip-rule="evenodd" d="M6.74109 8.72104C6.74109 8.72104 5.55499 8.8143 5.55499 8.04932C5.55499 8.04932 5.54368 8.72104 4.30518 8.72104V9.32495H6.74109V8.72104Z" fill="#F1F9FF"/>
<path fill-rule="evenodd" clip-rule="evenodd" d="M5.55574 7.09571C5.7877 7.09571 5.97574 6.89513 5.97574 6.64771C5.97574 6.40028 5.7877 6.19971 5.55574 6.19971C5.32378 6.19971 5.13574 6.40028 5.13574 6.64771C5.13574 6.89513 5.32378 7.09571 5.55574 7.09571Z" fill="#005BBF" stroke="#AD1619" stroke-width="0.583333"/>
</g>
<path fill-rule="evenodd" clip-rule="evenodd" d="M4.5 6C4.77614 6 5 5.77614 5 5.5C5 5.22386 4.77614 5 4.5 5C4.22386 5 4 5.22386 4 5.5C4 5.77614 4.22386 6 4.5 6Z" fill="#C88A02"/>
<path fill-rule="evenodd" clip-rule="evenodd" d="M6.5 6C6.77614 6 7 5.77614 7 5.5C7 5.22386 6.77614 5 6.5 5C6.22386 5 6 5.22386 6 5.5C6 5.77614 6.22386 6 6.5 6Z" fill="#C37C9C"/>
<path fill-rule="evenodd" clip-rule="evenodd" d="M6.5 8C6.77614 8 7 7.77614 7 7.5C7 7.22386 6.77614 7 6.5 7C6.22386 7 6 7.22386 6 7.5C6 7.77614 6.22386 8 6.5 8Z" fill="#FFC034"/>
<path d="M4.5 8C4.77614 8 5 7.77614 5 7.5C5 7.22386 4.77614 7 4.5 7C4.22386 7 4 7.22386 4 7.5C4 7.77614 4.22386 8 4.5 8Z" fill="#AD1619"/>
</g>
</g>
<defs>
<clipPath id="clip0_1266_16063">
<rect width="16" height="12" fill="white"/>
</clipPath>
</defs>
</svg>
