<svg width="16" height="12" viewBox="0 0 16 12" fill="none" xmlns="http://www.w3.org/2000/svg">
<g clip-path="url(#clip0_1266_15080)">
<rect width="16" height="12" fill="white"/>
<path fill-rule="evenodd" clip-rule="evenodd" d="M0 0V12H16V0H0Z" fill="#E31D1C"/>
<mask id="mask0_1266_15080" style="mask-type:luminance" maskUnits="userSpaceOnUse" x="0" y="0" width="16" height="12">
<path fill-rule="evenodd" clip-rule="evenodd" d="M0 0V12H16V0H0Z" fill="white"/>
</mask>
<g mask="url(#mask0_1266_15080)">
<path fill-rule="evenodd" clip-rule="evenodd" d="M8.01267 8.05682C6.94201 7.79306 6.10345 6.8969 6.11318 5.58323C6.12229 4.35352 6.86682 3.31409 8.04379 3.03271C9.22077 2.75133 10.257 3.34864 10.257 3.34864C9.93171 2.58073 8.8016 2.04126 7.8751 2.04281C6.15049 2.0457 4.31205 3.44432 4.29621 5.58323C4.27978 7.80072 6.2649 9.06359 8.01081 9.06067C9.41044 9.05832 10.0743 8.10075 10.2118 7.6934C10.2118 7.6934 9.08333 8.32058 8.01267 8.05682ZM10.4516 5.16335L9.38487 5.55518L10.5885 5.97978L10.568 7.24847L11.361 6.29667L12.6711 6.39186L11.6329 5.49949L12.3145 4.54759L11.2047 4.92108L10.4116 4.03928L10.4516 5.16335Z" fill="#F7FCFF"/>
</g>
</g>
<defs>
<clipPath id="clip0_1266_15080">
<rect width="16" height="12" fill="white"/>
</clipPath>
</defs>
</svg>
