<svg width="20" height="15" viewBox="0 0 20 15" fill="none" xmlns="http://www.w3.org/2000/svg">
<g clip-path="url(#clip0_1266_15013)">
<rect width="20" height="15" fill="white"/>
<path fill-rule="evenodd" clip-rule="evenodd" d="M0 0H20V15H0V0Z" fill="#E31D1C"/>
<path fill-rule="evenodd" clip-rule="evenodd" d="M0 1.25V2.40909H20V1.25H0ZM0 3.56818V4.72727H20V3.56818H0ZM0 7.04545V5.88636H20V7.04545H0ZM0 8.20455V9.36364H20V8.20455H0ZM0 11.6818V10.5227H20V11.6818H0ZM0 14V12.8409H20V14H0Z" fill="#F7FCFF"/>
<path d="M0 0L11.25 0V8.2041H0V0Z" fill="#2E42A5"/>
<path fill-rule="evenodd" clip-rule="evenodd" d="M1.31319 2.46269L1.87716 2.06984L2.42283 2.46269L2.25318 1.76358L2.6914 1.32054H2.13367L1.87637 0.75L1.65694 1.32054H1.00269L1.50359 1.76358L1.31319 2.46269ZM3.83185 2.46269L4.39581 2.06984L4.94149 2.46269L4.77184 1.76358L5.21006 1.32054H4.65233L4.39503 0.75L4.17559 1.32054H3.52134L4.02225 1.76358L3.83185 2.46269ZM6.91447 2.06984L6.3505 2.46269L6.54091 1.76358L6.04 1.32054H6.69425L6.91368 0.75L7.17098 1.32054H7.72872L7.29049 1.76358L7.46015 2.46269L6.91447 2.06984ZM8.86916 2.46269L9.43313 2.06984L9.9788 2.46269L9.80915 1.76358L10.2474 1.32054H9.68964L9.43234 0.75L9.21291 1.32054H8.55866L9.05956 1.76358L8.86916 2.46269ZM1.87716 4.5885L1.31319 4.98134L1.50359 4.28224L1.00269 3.8392H1.65694L1.87637 3.26866L2.13367 3.8392H2.6914L2.25318 4.28224L2.42283 4.98134L1.87716 4.5885ZM3.83185 4.98134L4.39581 4.5885L4.94149 4.98134L4.77184 4.28224L5.21006 3.8392H4.65233L4.39503 3.26866L4.17559 3.8392H3.52134L4.02225 4.28224L3.83185 4.98134ZM6.91447 4.5885L6.3505 4.98134L6.54091 4.28224L6.04 3.8392H6.69425L6.91368 3.26866L7.17098 3.8392H7.72872L7.29049 4.28224L7.46015 4.98134L6.91447 4.5885ZM8.86916 4.98134L9.43313 4.5885L9.9788 4.98134L9.80915 4.28224L10.2474 3.8392H9.68964L9.43234 3.26866L9.21291 3.8392H8.55866L9.05956 4.28224L8.86916 4.98134ZM1.87716 7.10715L1.31319 7.5L1.50359 6.80089L1.00269 6.35785H1.65694L1.87637 5.78731L2.13367 6.35785H2.6914L2.25318 6.80089L2.42283 7.5L1.87716 7.10715ZM3.83185 7.5L4.39581 7.10715L4.94149 7.5L4.77184 6.80089L5.21006 6.35785H4.65233L4.39503 5.78731L4.17559 6.35785H3.52134L4.02225 6.80089L3.83185 7.5ZM6.91447 7.10715L6.3505 7.5L6.54091 6.80089L6.04 6.35785H6.69425L6.91368 5.78731L7.17098 6.35785H7.72872L7.29049 6.80089L7.46015 7.5L6.91447 7.10715ZM8.86916 7.5L9.43313 7.10715L9.9788 7.5L9.80915 6.80089L10.2474 6.35785H9.68964L9.43234 5.78731L9.21291 6.35785H8.55866L9.05956 6.80089L8.86916 7.5ZM3.13649 3.32917L2.57252 3.72201L2.76292 3.02291L2.26201 2.57987H2.91627L3.1357 2.00933L3.393 2.57987H3.95073L3.51251 3.02291L3.68216 3.72201L3.13649 3.32917ZM5.09118 3.72201L5.65514 3.32917L6.20082 3.72201L6.03116 3.02291L6.46939 2.57987H5.91165L5.65435 2.00933L5.43492 2.57987H4.78067L5.28158 3.02291L5.09118 3.72201ZM8.1738 3.32917L7.60983 3.72201L7.80023 3.02291L7.29933 2.57987H7.95358L8.17301 2.00933L8.43031 2.57987H8.98804L8.54982 3.02291L8.71947 3.72201L8.1738 3.32917ZM2.57252 6.24067L3.13649 5.84783L3.68216 6.24067L3.51251 5.54157L3.95073 5.09852H3.393L3.1357 4.52798L2.91627 5.09852H2.26201L2.76292 5.54157L2.57252 6.24067ZM5.65514 5.84783L5.09118 6.24067L5.28158 5.54157L4.78067 5.09852H5.43492L5.65435 4.52798L5.91165 5.09852H6.46939L6.03116 5.54157L6.20082 6.24067L5.65514 5.84783ZM7.60983 6.24067L8.1738 5.84783L8.71947 6.24067L8.54982 5.54157L8.98804 5.09852H8.43031L8.17301 4.52798L7.95358 5.09852H7.29933L7.80023 5.54157L7.60983 6.24067Z" fill="#F7FCFF"/>
</g>
<defs>
<clipPath id="clip0_1266_15013">
<rect width="20" height="15" fill="white"/>
</clipPath>
</defs>
</svg>
