<svg width="16" height="12" viewBox="0 0 16 12" fill="none" xmlns="http://www.w3.org/2000/svg">
<g clip-path="url(#clip0_1266_14982)">
<rect width="16" height="12" fill="white"/>
<path fill-rule="evenodd" clip-rule="evenodd" d="M0 0H16V12H0V0Z" fill="#E31D1C"/>
<path fill-rule="evenodd" clip-rule="evenodd" d="M0 1V1.90909H16V1H0ZM0 2.81818V3.72727H16V2.81818H0ZM0 5.54545V4.63636H16V5.54545H0ZM0 6.45455V7.36364H16V6.45455H0ZM0 9.18182V8.27273H16V9.18182H0ZM0 11V10.0909H16V11H0Z" fill="#F7FCFF"/>
<rect width="9" height="6.45801" fill="#2E42A5"/>
<path fill-rule="evenodd" clip-rule="evenodd" d="M0.985726 1.75092L1.38815 1.4706L1.77753 1.75092L1.65647 1.25206L1.96917 0.935924H1.57119L1.38759 0.528809L1.23101 0.935924H0.76416L1.12159 1.25206L0.985726 1.75092ZM3.07479 1.75092L3.47722 1.4706L3.86659 1.75092L3.74553 1.25206L4.05823 0.935924H3.66026L3.47666 0.528809L3.32008 0.935924H2.85323L3.21066 1.25206L3.07479 1.75092ZM5.56628 1.4706L5.16386 1.75092L5.29972 1.25206L4.94229 0.935924H5.40914L5.56572 0.528809L5.74932 0.935924H6.1473L5.8346 1.25206L5.95566 1.75092L5.56628 1.4706ZM7.25243 1.75092L7.65485 1.4706L8.04423 1.75092L7.92317 1.25206L8.23587 0.935924H7.83789L7.65429 0.528809L7.49771 0.935924H7.03086L7.38829 1.25206L7.25243 1.75092ZM1.38815 3.55966L0.985726 3.83999L1.12159 3.34113L0.76416 3.02499H1.23101L1.38759 2.61787L1.57119 3.02499H1.96917L1.65647 3.34113L1.77753 3.83999L1.38815 3.55966ZM3.07479 3.83999L3.47722 3.55966L3.86659 3.83999L3.74553 3.34113L4.05823 3.02499H3.66026L3.47666 2.61787L3.32008 3.02499H2.85323L3.21066 3.34113L3.07479 3.83999ZM5.56628 3.55966L5.16386 3.83999L5.29972 3.34113L4.94229 3.02499H5.40914L5.56572 2.61787L5.74932 3.02499H6.1473L5.8346 3.34113L5.95566 3.83999L5.56628 3.55966ZM7.25243 3.83999L7.65485 3.55966L8.04423 3.83999L7.92317 3.34113L8.23587 3.02499H7.83789L7.65429 2.61787L7.49771 3.02499H7.03086L7.38829 3.34113L7.25243 3.83999ZM1.38815 5.64873L0.985726 5.92905L1.12159 5.4302L0.76416 5.11406H1.23101L1.38759 4.70694L1.57119 5.11406H1.96917L1.65647 5.4302L1.77753 5.92905L1.38815 5.64873ZM3.07479 5.92905L3.47722 5.64873L3.86659 5.92905L3.74553 5.4302L4.05823 5.11406H3.66026L3.47666 4.70694L3.32008 5.11406H2.85323L3.21066 5.4302L3.07479 5.92905ZM5.56628 5.64873L5.16386 5.92905L5.29972 5.4302L4.94229 5.11406H5.40914L5.56572 4.70694L5.74932 5.11406H6.1473L5.8346 5.4302L5.95566 5.92905L5.56628 5.64873ZM7.25243 5.92905L7.65485 5.64873L8.04423 5.92905L7.92317 5.4302L8.23587 5.11406H7.83789L7.65429 4.70694L7.49771 5.11406H7.03086L7.38829 5.4302L7.25243 5.92905ZM2.43244 2.51488L2.03001 2.7952L2.16587 2.29635L1.80844 1.98021H2.2753L2.43187 1.57309L2.61547 1.98021H3.01345L2.70075 2.29635L2.82181 2.7952L2.43244 2.51488ZM4.11908 2.7952L4.5215 2.51488L4.91088 2.7952L4.78982 2.29635L5.10252 1.98021H4.70454L4.52094 1.57309L4.36436 1.98021H3.89751L4.25494 2.29635L4.11908 2.7952ZM6.61057 2.51488L6.20814 2.7952L6.34401 2.29635L5.98658 1.98021H6.45343L6.61001 1.57309L6.79361 1.98021H7.19158L6.87888 2.29635L6.99994 2.7952L6.61057 2.51488ZM2.03001 4.88427L2.43244 4.60395L2.82181 4.88427L2.70075 4.38541L3.01345 4.06927H2.61547L2.43187 3.66216L2.2753 4.06927H1.80844L2.16587 4.38541L2.03001 4.88427ZM4.5215 4.60395L4.11908 4.88427L4.25494 4.38541L3.89751 4.06927H4.36436L4.52094 3.66216L4.70454 4.06927H5.10252L4.78982 4.38541L4.91088 4.88427L4.5215 4.60395ZM6.20814 4.88427L6.61057 4.60395L6.99994 4.88427L6.87888 4.38541L7.19158 4.06927H6.79361L6.61001 3.66216L6.45343 4.06927H5.98658L6.34401 4.38541L6.20814 4.88427Z" fill="#F7FCFF"/>
</g>
<defs>
<clipPath id="clip0_1266_14982">
<rect width="16" height="12" fill="white"/>
</clipPath>
</defs>
</svg>
